<?xml version="1.0" encoding="UTF-8" standalone="no"?>
<!-- Created with Inkscape (http://www.inkscape.org/) -->

<svg
   width="54.999996"
   height="150.26515"
   viewBox="0 0 14.552082 39.757656"
   version="1.1"
   id="svg5"
   inkscape:version="1.1.1 (3bf5ae0d25, 2021-09-20)"
   sodipodi:docname="linear.svg"
   xmlns:inkscape="http://www.inkscape.org/namespaces/inkscape"
   xmlns:sodipodi="http://sodipodi.sourceforge.net/DTD/sodipodi-0.dtd"
   xmlns="http://www.w3.org/2000/svg"
   xmlns:svg="http://www.w3.org/2000/svg">
  <sodipodi:namedview
     id="namedview7"
     pagecolor="#ffffff"
     bordercolor="#d888a9"
     borderopacity="1.0"
     inkscape:pageshadow="2"
     inkscape:pageopacity="0.0"
     inkscape:pagecheckerboard="0"
     inkscape:document-units="mm"
     showgrid="false"
     units="px"
     inkscape:zoom="1.4681257"
     inkscape:cx="-8.8548276"
     inkscape:cy="26.223913"
     inkscape:window-width="1920"
     inkscape:window-height="1009"
     inkscape:window-x="-8"
     inkscape:window-y="-8"
     inkscape:window-maximized="1"
     inkscape:current-layer="layer1"
     fit-margin-top="0"
     fit-margin-left="0"
     fit-margin-right="0"
     fit-margin-bottom="0" />
  <defs
     id="defs2" />
  <g
     inkscape:label="Слой 1"
     inkscape:groupmode="layer"
     id="layer1">
    <path
       style="fill:#d888a9;fill-opacity:1;stroke-width:0.181017"
       d="M 10.572843,39.736933 C 10.50429,39.674333 9.4136311,39.596256 5.2494973,39.355891 4.3534611,39.304168 3.0908662,39.207469 2.4437339,39.14101 1.7965947,39.074578 1.2175773,39.030553 1.1570292,39.043251 1.0964811,39.055976 0.81137837,38.820468 0.52347058,38.519958 L 0,37.973575 V 20.336483 C 0,10.63608 0.06266896,2.6993058 0.13921267,2.6992052 0.21578375,2.6991039 0.22604613,2.4903328 0.16206358,2.2352688 -0.00474806,1.5706199 0.56079145,0.41987682 1.1803932,0.16323168 1.6665566,-0.03814368 4.9814027,0.0336417 5.3367207,0.25324032 c 0.084377,0.0521466 0.1946706,-0.007512 0.2450931,-0.13258454 0.062737,-0.15554218 0.096193,-0.16055502 0.1059694,-0.0158657 0.010194,0.15123061 0.9302647,0.22324382 3.2273422,0.25260792 1.7671756,0.0225909 3.4378576,0.032436 3.7126166,0.0218862 0.837219,-0.0321555 1.734014,0.6227489 1.873918,1.3684637 0.06691,0.3567041 0.06732,4.8506422 6.84e-4,9.9865301 -0.06636,5.135886 -0.122505,13.207217 -0.124763,17.936289 -0.0027,5.09433 -0.07632,8.826636 -0.181316,9.15859 -0.09746,0.308152 -0.358328,0.648945 -0.579708,0.757316 -0.484104,0.236979 -2.484195,0.224329 -2.484195,-0.01574 0,-0.09328 -0.109315,-0.07887 -0.242925,0.03202 -0.133609,0.110888 -0.276161,0.171259 -0.316779,0.134163 z m 3.046478,-0.618384 c -0.175453,-0.03435 -0.272528,-0.137687 -0.215729,-0.22959 0.05678,-0.0919 0.104826,-8.445135 0.106735,-18.562746 C 13.513064,6.9198735 13.458468,1.8752157 13.309828,1.7264878 13.101741,1.5182927 1.888231,1.1474648 1.4052421,1.3328069 1.2759634,1.3824153 1.1826715,1.6490163 1.1979282,1.925251 1.2302205,2.5092108 1.016804,23.974621 0.89982644,31.912788 c -0.0438546,2.975503 -0.0326344,5.597604 0.0249034,5.82688 0.0875313,0.348743 0.25716856,0.43364 1.03808816,0.519489 1.2146969,0.133547 2.7163233,0.251271 4.7348113,0.371211 2.9766937,0.176868 4.2506797,0.301461 4.3271487,0.423159 0.0416,0.06623 0.71418,0.122026 1.494593,0.123976 0.780413,0.0021 1.275389,-0.02456 1.099943,-0.05897 z M 8.9603483,35.597614 c -2.4513827,-0.158451 -3.2014878,-0.330155 -2.98346,-0.682928 0.049396,-0.07996 0.3539839,-0.119385 0.6768248,-0.08762 0.3228341,0.03175 1.1571729,0.10573 1.8540914,0.164362 3.1144355,0.262006 3.5479325,0.326864 3.4831905,0.521097 -0.09185,0.275552 -0.08638,0.275395 -3.0306467,0.08509 z M 2.6197748,35.342122 C 2.3736144,35.176015 2.1452421,35.020074 2.1122862,34.995588 c -0.1746179,-0.129737 0.3870629,-0.77871 0.8342977,-0.963959 0.5542098,-0.229563 1.4389848,-0.02135 1.7081534,0.401957 0.5908534,0.929231 -0.9709447,1.626512 -2.0349625,0.908536 z m 1.6244466,-0.403969 c 0.1410189,-0.26349 0.1178738,-0.369336 -0.098943,-0.452537 -0.506695,-0.194438 -1.2984859,-0.114569 -1.3965053,0.140862 -0.2469951,0.643663 1.160751,0.937065 1.4954483,0.311675 z m 6.3452736,-0.544324 c -1.1923453,-0.157103 -1.1503585,-0.557979 0.04878,-0.465919 0.52074,0.03996 1.048617,0.07593 1.173066,0.07988 0.124448,0.0041 0.226271,0.129374 0.226271,0.278712 0,0.280902 -0.08365,0.287108 -1.448138,0.107331 z M 9.7293499,32.928874 c 0.049259,-0.264619 0.167058,-0.278343 1.7652331,-0.205699 0.339589,0.01546 0.543051,0.121985 0.543051,0.284391 0,0.202456 -0.260028,0.252345 -1.179408,0.226272 -0.9386252,-0.02661 -1.1690841,-0.08887 -1.1288761,-0.304964 z m 0.5433661,-0.851046 c -0.6435475,-0.08421 -0.7983043,-0.499949 -0.2404,-0.645846 0.191346,-0.05001 0.724668,-0.04851 1.185162,0.0034 0.64391,0.07258 0.824494,0.161865 0.781973,0.386645 -0.05822,0.307653 -0.65487,0.396046 -1.726735,0.255801 z m 0,-1.284618 C 9.9095916,30.75647 9.6844143,30.634191 9.6844143,30.473673 c 0,-0.374953 2.0407707,-0.365005 2.3532197,0.01149 0.123942,0.149339 0.195006,0.282921 0.157924,0.296843 -0.157,0.05898 -1.379976,0.06609 -1.922842,0.01122 z m -0.06753,-1.205228 c -0.04543,-0.04543 -0.8933334,-0.09629 -1.884242,-0.113044 -2.0072472,-0.03393 -2.2568968,-0.08633 -2.2568968,-0.473705 0,-0.231027 0.3352515,-0.24876 2.3984698,-0.126877 1.3191681,0.07793 2.663212,0.130791 2.986785,0.117463 0.470058,-0.01936 0.588302,0.04639 0.588302,0.327261 0,0.29949 -0.12943,0.351487 -0.874917,0.351487 -0.481203,0 -0.912079,-0.03715 -0.957501,-0.08258 z M 2.267043,29.315926 c -0.4251843,-0.270257 0.3408411,-0.470565 1.5217817,-0.397928 1.2449778,0.07658 1.3396996,0.390532 0.117819,0.390532 -0.4896526,0 -0.9987627,0.03989 -1.1313527,0.08861 -0.13259,0.04871 -0.3613044,0.01218 -0.508248,-0.08122 z m 8.036918,-0.921747 c -0.191427,-0.06955 -0.416974,-0.08627 -0.5012077,-0.03715 -0.08424,0.04912 -0.1233333,-0.06287 -0.086874,-0.248924 0.054049,-0.275833 0.2158795,-0.332673 0.8772287,-0.308152 0.446017,0.01656 1.000193,0.03688 1.2315,0.04522 0.292417,0.01054 0.402703,0.107933 0.361948,0.31957 -0.06335,0.328903 -1.220581,0.469915 -1.882594,0.229399 z m -0.212287,-1.214464 c -0.4539261,-0.07642 -0.5514051,-0.542497 -0.1459999,-0.698068 0.4845149,-0.185927 2.1824399,0.183902 2.1824399,0.475367 0,0.270469 -1.062492,0.386659 -2.03644,0.222701 z M 10.681549,26.06704 C 10.017709,25.98818 9.7621006,25.875687 9.717945,25.642936 9.666223,25.370381 9.805018,25.32654 10.71196,25.328928 c 0.57977,0.0014 1.167811,0.07476 1.306771,0.162747 0.296576,0.187788 0.136366,0.752575 -0.201718,0.711129 -0.127568,-0.01567 -0.638532,-0.07673 -1.135464,-0.135764 z m -0.589875,-1.242878 c -0.2629226,-0.04276 -0.407287,-0.193268 -0.407287,-0.42463 0,-0.316827 0.110218,-0.353683 0.950338,-0.317758 1.301708,0.05569 1.611023,0.155277 1.545098,0.49761 -0.0561,0.29113 -1.071345,0.410146 -2.088149,0.244778 z M 2.5159332,23.242605 c -0.4783435,-0.478343 -0.4849319,-0.508987 -0.160408,-0.74628 0.4760926,-0.348128 1.0489253,-0.307687 1.5820835,0.111696 l 0.4565941,0.359156 0.098683,-0.377369 c 0.1477647,-0.56506 0.4850893,-0.228276 0.4850893,0.484316 0,0.708892 -0.2800194,0.804339 -0.8371027,0.285329 -0.5459589,-0.508638 -1.1160823,-0.775474 -1.2374179,-0.579148 -0.057948,0.0937 0.038997,0.251771 0.2152843,0.351248 0.2456131,0.138569 0.2709407,0.231033 0.1083024,0.395375 -0.1632609,0.164971 -0.3274727,0.09931 -0.711108,-0.284323 z m 6.2645976,0.228373 c -1.4429529,-0.09008 -2.6545164,-0.194746 -2.692364,-0.232594 -0.037834,-0.03783 -0.018678,-0.199439 0.042555,-0.359081 0.097459,-0.25398 0.4113643,-0.276564 2.5113493,-0.1807 3.1487659,0.143742 3.6137619,0.22034 3.5426019,0.583574 -0.07305,0.372833 -0.275969,0.384087 -3.4041554,0.188801 z m 0.9726689,-1.303953 c -0.198714,-0.517853 0.1167586,-0.667869 1.1687693,-0.555763 1.070463,0.114077 1.419432,0.29254 1.215922,0.621833 -0.191257,0.309458 -2.26261,0.252071 -2.3846913,-0.06609 z m 0.025724,-1.151084 c -0.051996,-0.052 -0.09453,-0.206869 -0.09453,-0.344159 0,-0.192762 0.2779191,-0.237437 1.2199853,-0.196107 1.002369,0.04399 1.230994,0.111196 1.281649,0.376828 0.0546,0.286341 -0.07403,0.319557 -1.125462,0.290637 -0.652907,-0.01799 -1.2296459,-0.0752 -1.2816423,-0.127199 z M 10.49896,19.906475 c -0.477898,-0.06691 -0.7240588,-0.193651 -0.7240588,-0.372867 0,-0.213505 0.2514078,-0.271522 1.1766028,-0.271522 1.032793,0 1.17661,0.0418 1.17661,0.341861 0,0.384401 -0.448767,0.467739 -1.629154,0.302528 z M 9.8842777,18.644024 C 9.5173701,18.41169 9.7753185,17.92485 10.262973,17.929283 c 1.323574,0.01204 1.955648,0.183122 1.955648,0.529313 0,0.30688 -0.130688,0.350597 -1.040845,0.348176 -0.572463,-0.0014 -1.154539,-0.07476 -1.2934983,-0.162748 z M 4.1486376,17.518589 c -0.069634,-0.112674 0.016762,-0.285103 0.1920502,-0.383184 0.2592484,-0.145082 0.2724253,-0.207621 0.070674,-0.335429 -0.3633295,-0.230158 -0.5195162,-0.197428 -0.5195162,0.108884 0,0.368659 -0.3039855,0.343105 -0.5204808,-0.04372 -0.097041,-0.1734 -0.2412755,-0.250423 -0.3205353,-0.17117 -0.079253,0.07925 -0.024972,0.217734 0.1206788,0.307735 0.1974688,0.12204 0.2125614,0.215845 0.059385,0.369042 -0.2684093,0.268403 -1.1686188,-0.291123 -1.0337711,-0.642541 0.3140085,-0.818282 2.9618612,-0.678105 2.9618612,0.156802 0,0.23531 -0.5559819,0.838457 -0.7728876,0.838457 -0.060959,0 -0.1678037,-0.09218 -0.2374374,-0.204851 z M 8.236255,17.370551 C 6.3084523,17.278265 6.1545575,17.244132 6.1545575,16.90886 c 0,-0.311621 0.1134268,-0.359006 0.8145803,-0.340287 1.8662626,0.04981 5.1388892,0.259857 5.2136472,0.334622 0.04433,0.04433 0.03229,0.20626 -0.02661,0.359895 -0.114658,0.298786 0.007,0.295454 -3.9199023,0.107461 z m 2.17425,-1.09525 c -0.389498,-0.05583 -0.6530293,-0.203175 -0.6876888,-0.384511 -0.076516,-0.400308 0.2379094,-0.479465 1.4097028,-0.354894 0.814512,0.08659 1.005036,0.171697 1.047509,0.467883 0.0429,0.299128 -0.05145,0.36203 -0.543051,0.36203 -0.327227,0 -0.879138,-0.04071 -1.226472,-0.09051 z m 0.04324,-1.214977 C 9.8324458,15.001418 9.684428,14.91845 9.684428,14.629187 c 0,-0.326063 0.1144051,-0.355284 1.27634,-0.325961 1.186414,0.02997 1.272508,0.05911 1.22186,0.413835 -0.05898,0.412869 -0.361496,0.472945 -1.728884,0.343263 z M 9.8843119,13.756563 c -0.1389527,-0.08799 -0.2092432,-0.273082 -0.1561935,-0.411316 0.070078,-0.182616 0.4026826,-0.241693 1.2163866,-0.216051 1.22877,0.03872 1.370802,0.09892 1.211687,0.51355 -0.120214,0.313283 -1.82221,0.398543 -2.2718801,0.113817 z m 0.6599401,-1.066269 c -0.5857088,-0.03756 -0.859824,-0.135169 -0.859824,-0.306092 0,-0.383301 0.277666,-0.479172 1.387837,-0.479172 0.629666,0 1.072939,0.08803 1.161032,0.230562 0.294037,0.475771 -0.231164,0.648254 -1.689045,0.554702 z M 3.1181436,11.425325 C 2.642831,11.17025 2.2827376,10.874187 2.3179375,10.767404 c 0.086423,-0.262184 2.1382159,-0.337838 2.4789886,-0.09141 0.2045157,0.147902 0.215688,0.219013 0.045223,0.288168 -0.1244485,0.05049 -0.2262719,0.288667 -0.2262719,0.529272 0,0.55941 -0.3588345,0.543093 -1.4977677,-0.06807 z m 7.9619964,0.03079 c -0.02271,-0.02271 -1.1402744,-0.08034 -2.4834495,-0.12804 -2.2646005,-0.08042 -2.4461558,-0.11292 -2.4974883,-0.44705 -0.053775,-0.349899 0.024767,-0.357589 2.7152561,-0.26583 2.7053627,0.09226 3.5851847,0.231485 3.5851847,0.567318 0,0.141642 -1.202184,0.390915 -1.319503,0.273602 z m -0.14446,-1.164183 c -0.1129,-0.06977 -0.338803,-0.09506 -0.502009,-0.05618 C 10.007488,10.33725 9.6128171,10.02525 9.7418974,9.6888757 9.8252622,9.4716279 10.041443,9.4186213 10.628102,9.4715821 c 0.426772,0.038525 0.959225,0.078151 1.183233,0.088055 0.647693,0.028639 0.53753,0.6818699 -0.13155,0.7800709 -0.296364,0.0435 -0.631212,0.022 -0.744105,-0.04777 z M 9.7170556,8.6273032 c 0.051654,-0.3635991 0.1549278,-0.4051344 0.9629264,-0.3872053 1.481177,0.032867 1.538639,0.04902 1.538639,0.432459 0,0.3278941 -0.120678,0.3620343 -1.279705,0.3620343 -1.223564,0 -1.2771678,-0.01787 -1.2218604,-0.407288 z M 9.9082849,7.6645231 C 9.3970607,7.2907041 9.8527311,7.0434039 11.052698,7.0434039 c 1.110944,0 1.165923,0.020545 1.165923,0.4356793 0,0.4111939 -0.05706,0.4343849 -1.015558,0.4126416 C 10.644502,7.8790542 10.061851,7.7768135 9.9082849,7.6645231 Z M 9.8137341,6.4379672 c -0.204071,-0.6060643 0.058359,-0.7527637 1.2371309,-0.6914918 1.078296,0.056046 1.167756,0.092421 1.167756,0.474755 0,0.387977 -0.07351,0.4144286 -1.16723,0.4199669 -0.726316,0.00369 -1.1938434,-0.073092 -1.2376569,-0.2032301 z M 2.9867577,5.5212441 C 2.4723728,5.3365403 2.3427246,5.1885807 2.2975359,4.7346631 2.2490975,4.2481993 2.2902838,4.1882307 2.6143152,4.2729761 c 0.2048441,0.05357 0.3724425,0.2254414 0.3724425,0.3819421 0,0.2222203 0.08084,0.1977719 0.3690833,-0.1116213 0.2029968,-0.2178916 0.5569327,-0.396167 0.7865228,-0.396167 0.9432021,0 1.4075272,1.4704472 0.5047041,1.5983363 C 4.2641441,5.7997132 4.2451998,5.7687003 4.4394872,5.4056657 4.6065999,5.0934182 4.6033775,4.9753269 4.4247778,4.8649256 4.0260226,4.6184805 3.7045089,4.8733886 3.82228,5.3426136 3.9444093,5.829223 3.8818019,5.8426141 2.9867919,5.5212441 Z M 8.238239,5.2423802 C 6.4335165,5.1559011 6.1503842,5.1000874 6.096924,4.8202705 6.0396599,4.5205664 6.253439,4.4992398 9.1269684,4.5179933 l 3.0916526,0.020176 v 0.4380396 c 0,0.4921128 0.306729,0.4716018 -3.980382,0.2661713 z"
       id="path1178" />
  </g>
</svg>
