<?xml version="1.0" encoding="UTF-8" standalone="no"?>
<!-- Created with Inkscape (http://www.inkscape.org/) -->

<svg
   width="13.229167mm"
   height="7.5334206mm"
   viewBox="0 0 13.229168 7.5334205"
   version="1.1"
   id="svg5"
   sodipodi:docname="arrow_more.svg"
   inkscape:version="1.1.1 (3bf5ae0d25, 2021-09-20)"
   xmlns:inkscape="http://www.inkscape.org/namespaces/inkscape"
   xmlns:sodipodi="http://sodipodi.sourceforge.net/DTD/sodipodi-0.dtd"
   xmlns="http://www.w3.org/2000/svg"
   xmlns:svg="http://www.w3.org/2000/svg">
  <sodipodi:namedview
     id="namedview7"
     pagecolor="#ffffff"
     bordercolor="#666666"
     borderopacity="1.0"
     inkscape:pageshadow="2"
     inkscape:pageopacity="0.0"
     inkscape:pagecheckerboard="0"
     inkscape:document-units="mm"
     showgrid="false"
     fit-margin-top="0"
     fit-margin-left="0"
     fit-margin-right="0"
     fit-margin-bottom="0"
     inkscape:zoom="5.8725028"
     inkscape:cx="11.91996"
     inkscape:cy="-13.537669"
     inkscape:window-width="1920"
     inkscape:window-height="1009"
     inkscape:window-x="-8"
     inkscape:window-y="-8"
     inkscape:window-maximized="1"
     inkscape:current-layer="layer1" />
  <defs
     id="defs2" />
  <g
     inkscape:label="Слой 1"
     inkscape:groupmode="layer"
     id="layer1"
     transform="translate(-184.37839,-32.538222)">
    <path
       style="fill:#000000;stroke-width:0.0258637"
       d="m 197.57791,39.383872 c -0.12491,0.46328 -0.59544,0.762301 -1.05674,0.671547 -0.0885,-0.01743 -0.20785,-0.05501 -0.2651,-0.08352 -0.0679,-0.03383 -1.00125,-0.947995 -2.684,-2.628885 l -2.5799,-2.577041 -2.57992,2.577041 c -1.68275,1.68089 -2.6161,2.595071 -2.68399,2.628885 -0.17688,0.0881 -0.40126,0.120041 -0.58777,0.08369 -0.62875,-0.122541 -0.94813,-0.786304 -0.64844,-1.347639 0.0855,-0.160085 5.92547,-5.997634 6.074,-6.071442 0.0573,-0.02847 0.17655,-0.06598 0.2651,-0.08341 0.18571,-0.03656 0.40985,-0.0046 0.58713,0.08341 0.12992,0.06457 5.9614,5.880361 6.05667,6.040384 0.12782,0.214685 0.16565,0.474482 0.10296,0.706979 z"
       id="path1392" />
  </g>
</svg>
