<?xml version="1.0" encoding="UTF-8" standalone="no"?>
<!-- Created with Inkscape (http://www.inkscape.org/) -->

<svg
   width="13.229177mm"
   height="13.229165mm"
   viewBox="0 0 13.229178 13.229165"
   version="1.1"
   id="svg5"
   sodipodi:docname="close.svg"
   inkscape:version="1.1.1 (3bf5ae0d25, 2021-09-20)"
   xmlns:inkscape="http://www.inkscape.org/namespaces/inkscape"
   xmlns:sodipodi="http://sodipodi.sourceforge.net/DTD/sodipodi-0.dtd"
   xmlns="http://www.w3.org/2000/svg"
   xmlns:svg="http://www.w3.org/2000/svg">
  <sodipodi:namedview
     id="namedview7"
     pagecolor="#ffffff"
     bordercolor="#666666"
     borderopacity="1.0"
     inkscape:pageshadow="2"
     inkscape:pageopacity="0.0"
     inkscape:pagecheckerboard="0"
     inkscape:document-units="mm"
     showgrid="false"
     fit-margin-top="0"
     fit-margin-left="0"
     fit-margin-right="0"
     fit-margin-bottom="0"
     inkscape:zoom="5.8725028"
     inkscape:cx="1.3622812"
     inkscape:cy="-9.9616811"
     inkscape:window-width="1920"
     inkscape:window-height="1009"
     inkscape:window-x="-8"
     inkscape:window-y="-8"
     inkscape:window-maximized="1"
     inkscape:current-layer="layer1" />
  <defs
     id="defs2" />
  <g
     inkscape:label="Слой 1"
     inkscape:groupmode="layer"
     id="layer1"
     transform="translate(-184.37759,-29.48172)">
    <path
       style="fill:#000000;stroke-width:0.0589908"
       d="m 184.9267,42.604078 c -0.38985,-0.19211 -0.59614,-0.618701 -0.51443,-1.063776 0.0361,-0.19634 0.35545,-0.53848 2.64529,-2.833651 l 2.60428,-2.610348 -2.60428,-2.610348 c -2.81342,-2.819964 -2.745,-2.735609 -2.64615,-3.262538 0.0523,-0.278705 0.42917,-0.655591 0.70787,-0.707876 0.52693,-0.09885 0.44258,-0.167271 3.26254,2.646145 l 2.61035,2.604287 2.61035,-2.604287 c 2.81997,-2.813416 2.73561,-2.744997 3.26254,-2.646145 0.2787,0.05228 0.65559,0.429171 0.70787,0.707876 0.0989,0.526929 0.16727,0.442574 -2.64614,3.262538 l -2.60429,2.610348 2.60429,2.610348 c 2.81341,2.819965 2.745,2.73561 2.64614,3.262539 -0.0523,0.278705 -0.42917,0.655591 -0.70787,0.707875 -0.52694,0.09885 -0.44255,0.167298 -3.26285,-2.646451 l -2.61065,-2.604593 -2.58055,2.576437 c -1.4193,1.41704 -2.65527,2.604425 -2.74661,2.638632 -0.23647,0.08857 -0.51079,0.0748 -0.7377,-0.03701 z"
       id="path984" />
  </g>
</svg>
