<?xml version="1.0" encoding="UTF-8" standalone="no"?>
<!-- Created with Inkscape (http://www.inkscape.org/) -->

<svg
   width="10.751173mm"
   height="10.751164mm"
   viewBox="0 0 10.751173 10.751164"
   version="1.1"
   id="svg5"
   sodipodi:docname="close.svg"
   inkscape:version="1.1.1 (3bf5ae0d25, 2021-09-20)"
   xmlns:inkscape="http://www.inkscape.org/namespaces/inkscape"
   xmlns:sodipodi="http://sodipodi.sourceforge.net/DTD/sodipodi-0.dtd"
   xmlns="http://www.w3.org/2000/svg"
   xmlns:svg="http://www.w3.org/2000/svg">
  <sodipodi:namedview
     id="namedview7"
     pagecolor="#ffffff"
     bordercolor="#666666"
     borderopacity="1.0"
     inkscape:pageshadow="2"
     inkscape:pageopacity="0.0"
     inkscape:pagecheckerboard="0"
     inkscape:document-units="mm"
     showgrid="false"
     fit-margin-top="0"
     fit-margin-left="0"
     fit-margin-right="0"
     fit-margin-bottom="0"
     inkscape:zoom="5.8725028"
     inkscape:cx="-4.597699"
     inkscape:cy="38.229015"
     inkscape:window-width="1920"
     inkscape:window-height="1009"
     inkscape:window-x="-8"
     inkscape:window-y="-8"
     inkscape:window-maximized="1"
     inkscape:current-layer="layer1" />
  <defs
     id="defs2" />
  <g
     inkscape:label="Слой 1"
     inkscape:groupmode="layer"
     id="layer1"
     transform="translate(-185.95451,-31.14874)">
    <path
       style="fill:#000000;stroke-width:0.047941"
       d="m 186.40075,41.813101 c -0.31683,-0.156125 -0.48447,-0.50281 -0.41807,-0.864516 0.0293,-0.159562 0.28888,-0.437615 2.14979,-2.302869 l 2.11647,-2.121394 -2.11647,-2.121394 c -2.28643,-2.291746 -2.23081,-2.223191 -2.15048,-2.651421 0.0426,-0.226499 0.34878,-0.532789 0.57527,-0.57528 0.42822,-0.08034 0.35968,-0.135939 2.65142,2.150486 l 2.12139,2.116468 2.1214,-2.116468 c 2.29175,-2.286425 2.2232,-2.230822 2.65143,-2.150486 0.2265,0.04248 0.53278,0.348781 0.57527,0.57528 0.0804,0.42823 0.13594,0.359675 -2.15048,2.651421 l -2.11647,2.121394 2.11647,2.121394 c 2.28642,2.291746 2.23083,2.223193 2.15048,2.651421 -0.0426,0.2265 -0.34877,0.532789 -0.57527,0.57528 -0.42824,0.08034 -0.35967,0.135961 -2.65168,-2.150734 l -2.12164,-2.116718 -2.09717,2.093835 c -1.15345,1.151609 -2.1579,2.116581 -2.23214,2.14438 -0.19218,0.07198 -0.4151,0.06079 -0.59952,-0.03008 z"
       id="path984" />
  </g>
</svg>
