<?xml version="1.0" encoding="UTF-8" standalone="no"?>
<!-- Created with Inkscape (http://www.inkscape.org/) -->

<svg
   width="55"
   height="40.932758"
   viewBox="0 0 14.552083 10.830126"
   version="1.1"
   id="svg31666"
   inkscape:version="1.1.1 (3bf5ae0d25, 2021-09-20)"
   sodipodi:docname="cry.svg"
   xmlns:inkscape="http://www.inkscape.org/namespaces/inkscape"
   xmlns:sodipodi="http://sodipodi.sourceforge.net/DTD/sodipodi-0.dtd"
   xmlns="http://www.w3.org/2000/svg"
   xmlns:svg="http://www.w3.org/2000/svg">
  <sodipodi:namedview
     id="namedview31668"
     pagecolor="#ffffff"
     bordercolor="#666666"
     borderopacity="1.0"
     inkscape:pageshadow="2"
     inkscape:pageopacity="0.0"
     inkscape:pagecheckerboard="0"
     inkscape:document-units="mm"
     showgrid="false"
     width="155mm"
     units="px"
     inkscape:zoom="2.9362514"
     inkscape:cx="95.359682"
     inkscape:cy="39.335869"
     inkscape:window-width="1920"
     inkscape:window-height="1009"
     inkscape:window-x="-8"
     inkscape:window-y="-8"
     inkscape:window-maximized="1"
     inkscape:current-layer="layer1"
     fit-margin-top="0"
     fit-margin-left="0"
     fit-margin-right="0"
     fit-margin-bottom="0" />
  <defs
     id="defs31663" />
  <g
     inkscape:label="Слой 1"
     inkscape:groupmode="layer"
     id="layer1"
     transform="translate(-1.7795751,-0.20578257)">
    <path
       style="fill:#000000;stroke-width:0.0958767"
       d="M 1.8400309,10.803285 C 1.7087844,10.515234 1.8006124,10.112595 2.0249334,9.992542 2.1175658,9.9429662 2.3608388,9.8709852 2.5655448,9.8325849 L 2.9377342,9.76276 2.884013,10.163294 c -0.076996,0.574033 -0.2995815,0.872614 -0.650518,0.872614 -0.2112721,0 -0.3155729,-0.06166 -0.3934641,-0.232623 z M 2.570868,10.561288 c 0.1446759,-0.279778 0.1939871,-0.580023 0.09526,-0.580023 -0.1961504,0 -0.715998,0.304002 -0.715998,0.41871 0,0.500034 0.3927937,0.602109 0.620738,0.161313 z m 12.854686,0.135468 c -0.08852,-0.186533 -0.147361,-0.434615 -0.130768,-0.551291 0.07289,-0.5126035 1.036872,-0.141802 1.036872,0.398842 0,0.330912 -0.159391,0.491601 -0.487633,0.491601 -0.200589,0 -0.293116,-0.07498 -0.418471,-0.339152 z m 0.653743,0.04052 c 0.07811,-0.111519 0.121329,-0.25668 0.09604,-0.322584 -0.04597,-0.119803 -0.442826,-0.337547 -0.615202,-0.337547 -0.143701,0 -0.106753,0.414749 0.05789,0.649804 0.186062,0.265642 0.280963,0.267765 0.461278,0.01033 z M 8.0140853,10.838185 C 6.7805153,10.621644 5.6821778,10.05421 4.901221,9.2299794 4.4192302,8.7212819 4.2567511,8.6960863 4.2526419,9.1294111 4.2519171,9.2145823 4.161756,9.3979448 4.0524619,9.536888 3.7063628,9.9768804 3.0894184,9.8245621 2.94883,9.2644117 2.8605713,8.9127759 3.0633676,8.6601176 3.5815955,8.4760558 3.8444003,8.3827167 4.0594266,8.2625442 4.0594338,8.2090078 4.0594411,8.1554677 3.9419791,7.8420111 3.7984048,7.5124363 3.5954126,7.0464512 3.4919272,6.9132044 3.3330102,6.9132044 3.2206141,6.9132044 3.0144913,6.8074035 2.874961,6.6780884 2.4428067,6.2775834 2.5744011,5.6608455 3.1426721,5.4234067 3.419004,5.3079486 3.4644161,5.2366815 3.5193404,4.8322955 3.7736475,2.9599372 5.1441718,1.3189772 7.0758099,0.57405842 8.5270697,0.01439874 10.150194,0.09506575 11.608128,0.79931441 c 1.530989,0.73954119 2.901871,2.72496219 2.901871,4.20272569 0,0.28184 0.05438,0.3904782 0.26366,0.5266892 0.346809,0.2257234 0.496573,0.4282117 0.500305,0.6764383 0.0044,0.2944576 -0.33855,0.683595 -0.665875,0.7554891 -0.238363,0.052355 -0.338688,0.1784559 -0.635161,0.7983465 -0.643372,1.345216 -2.126034,2.5563008 -3.608208,2.9472898 -0.6575297,0.173456 -1.7611143,0.235377 -2.3506347,0.131892 z M 10.001873,10.461013 C 11.362246,10.20302 12.889404,9.1456851 13.453737,8.0710937 L 13.575746,7.8387715 13.310865,8.0471266 C 12.833984,8.4222403 12.391864,8.2758468 12.107031,7.6485132 12.007209,7.4286565 11.924589,7.0379718 11.92343,6.7803272 L 11.92123,6.311878 12.365122,6.37272 c 0.840026,0.1151392 1.373136,0.6376068 1.232486,1.2078817 -0.09819,0.3981242 0.108356,0.1101023 0.341095,-0.4756422 0.267004,-0.6719883 0.356814,-1.9791701 0.185221,-2.69594 C 13.764138,2.9060312 12.793257,1.6865899 11.441873,1.0402863 11.046384,0.85114408 10.604152,0.67057909 10.459135,0.63903484 10.203777,0.58348364 10.195457,0.59456852 10.194939,0.99098236 10.194215,1.654792 10.02905,2.0741655 9.6250992,2.4391112 8.6094326,3.3567025 7.0254732,3.0208587 6.8690638,1.8547546 6.8256592,1.5311589 6.8598234,1.4288149 7.1016143,1.1582121 7.5699076,0.63409938 8.2779372,0.77928989 8.2779372,1.3994341 c 0,0.2519806 -0.172861,0.4322956 -0.4144199,0.4322956 -0.1529706,0 -0.1640192,0.02446 -0.064962,0.1438171 C 7.9846392,2.1997663 8.4463302,2.1514408 8.718513,1.8792544 8.9280457,1.6697216 8.9549625,1.5691207 8.9298793,1.0892025 8.8951643,0.42520078 8.8340073,0.39922978 7.8568425,0.63360655 5.963485,1.0877422 4.4595945,2.4968584 3.9246868,4.3179631 3.737436,4.955454 3.7277752,6.2122736 3.9050102,6.8778843 c 0.4362925,1.638543 1.9043229,3.0656907 3.6322371,3.5310817 0.5958111,0.160475 1.7628647,0.18512 2.4645637,0.05205 z M 8.2211395,10.038164 C 6.529002,9.6273716 6.2327,8.325408 7.6706608,7.6193316 8.1568479,7.3806027 8.336728,7.34525 9.0450185,7.3492469 c 0.6844829,0.00388 0.8917001,0.044412 1.2943355,0.2532961 0.603751,0.3132247 0.808609,0.5395352 0.878554,0.9705589 0.115588,0.7122983 -0.515637,1.2870448 -1.6422469,1.4953091 -0.6713143,0.124101 -0.723539,0.122934 -1.3545216,-0.03026 z M 10.158949,9.5591411 C 11.048446,9.1449676 11.190404,8.6572041 10.5748,8.1302722 10.141656,7.7595177 9.8645962,7.6799741 9.0090642,7.6807531 8.2035428,7.6814779 7.7209431,7.834597 7.3477028,8.2078373 6.9816193,8.5739208 6.9532168,8.8011046 7.2296067,9.1524759 c 0.50694,0.64447 1.9795651,0.8489041 2.9293423,0.4066652 z M 4.929272,7.9069803 C 4.6492333,7.5509706 4.6740194,7.1467477 4.9956073,6.8251559 5.281883,6.5388842 6.1837765,6.1905387 6.4119713,6.2781052 6.7017145,6.389291 6.5106444,7.3911513 6.1085668,7.8689967 5.7770895,8.2629355 5.2232951,8.280775 4.929272,7.9069803 Z M 6.0480692,7.6508251 C 6.2749486,7.3175541 6.4540387,6.4338189 6.2947013,6.4338189 6.0098284,6.4338189 5.2782955,6.774138 5.1138886,6.9831453 4.8834396,7.2761136 4.8727569,7.4709233 5.0715639,7.7547634 5.3089882,8.0937309 5.7807386,8.043521 6.0480692,7.6508251 Z M 8.6937088,6.85882 C 8.6095196,6.63942 8.8023217,6.4961247 9.0859372,6.5673049 9.3601275,6.6361224 9.4157983,6.8607805 9.1809903,6.9508836 8.9258353,7.0487993 8.7541629,7.0163637 8.6937088,6.85882 Z M 6.8638203,6.2744453 C 6.5870101,6.1627522 6.7786165,6.0502402 7.2473265,6.049251 L 7.7506791,6.0481638 7.4390815,5.8025862 C 7.123842,5.5541423 7.0390983,5.3791542 7.2340204,5.3791542 c 0.168922,0 1.0499974,0.7755897 0.9904782,0.8718966 -0.055591,0.089951 -1.1491271,0.1087361 -1.3606783,0.023373 z m 3.2358447,-0.024931 c 0,-0.1230316 0.883978,-0.8689723 1.030676,-0.8697296 0.206348,-0.00109 0.131475,0.1697953 -0.167784,0.3828866 -0.397969,0.2833763 -0.36042,0.3835062 0.143813,0.3835062 0.237294,0 0.431448,0.043147 0.431448,0.095879 0,0.055395 -0.303611,0.095876 -0.719078,0.095876 -0.395494,0 -0.719075,-0.039788 -0.719075,-0.088418 z M 3.9120003,9.3770107 C 3.9915476,9.2556062 4.0855752,9.0115686 4.120946,8.8347071 L 4.1852593,8.513137 3.8636892,8.5774539 C 3.1806412,8.7140635 2.9323857,9.0611443 3.259326,9.422412 3.4752474,9.6610031 3.7378926,9.6427325 3.9120003,9.3770107 Z M 13.259865,7.8538823 c 0.362308,-0.388891 0.187037,-0.8822386 -0.414912,-1.1678834 -0.181174,-0.085972 -0.440457,-0.1563116 -0.576186,-0.1563116 -0.225129,0 -0.242225,0.027323 -0.194914,0.3115977 0.104685,0.6290295 0.134783,0.7167808 0.331731,0.9671598 0.245697,0.3123514 0.588618,0.3305931 0.854281,0.045438 z m 1.516432,-1.2816927 c 0.263185,-0.1843445 0.276205,-0.5322189 0.02576,-0.6886139 -0.221723,-0.1384685 -0.249013,-0.1036557 -0.337384,0.430386 -0.07304,0.441391 -0.01663,0.4881331 0.311605,0.2582279 z M 3.4599336,6.1893791 C 3.3989288,5.6481481 3.3441639,5.5902342 3.1012388,5.8100764 2.849443,6.0379523 2.8573209,6.2909331 3.1219664,6.4763103 3.4539582,6.7088463 3.5128323,6.6588611 3.4599155,6.1893791 Z M 9.1389374,2.5747641 C 9.7889263,2.2426382 9.955848,1.9473689 9.955848,1.1297444 V 0.44150377 H 9.5306984 9.1055487 L 9.1293926,1.0260343 C 9.1501563,1.5344311 9.1208769,1.6490195 8.9047816,1.905845 8.7681249,2.0682517 8.5311971,2.2286109 8.3782773,2.2621989 7.9285843,2.3609663 7.4150999,2.0193753 7.4150999,1.621454 c 0,-0.060878 0.1285976,-0.074579 0.3355684,-0.035766 0.3111048,0.058363 0.335572,0.045405 0.335572,-0.1777095 0,-0.433524 -0.4742109,-0.52444606 -0.8868624,-0.1700381 -0.2140081,0.1837973 -0.2203821,0.7636388 -0.011668,1.061615 0.3536216,0.5048673 1.253388,0.631769 1.9512169,0.275194 z M 14.323303,9.6986786 C 14.120992,9.4963715 13.902987,8.8189186 13.956825,8.55985 c 0.04346,-0.2091595 0.453682,-0.1828225 0.921823,0.059182 0.459115,0.2373409 0.529538,0.6645054 0.168988,1.0250555 -0.289859,0.2898592 -0.475106,0.3038212 -0.724333,0.054591 z m 0.62958,-0.2474728 c 0.133331,-0.1333265 0.226235,-0.2951207 0.206453,-0.3595391 -0.0341,-0.1110118 -0.793857,-0.5361941 -0.97319,-0.5446156 -0.133286,-0.00627 0.02895,0.7878849 0.199463,0.9762807 0.20384,0.2252415 0.279531,0.2156169 0.567274,-0.072126 z"
       id="path3193"
       sodipodi:nodetypes="ssscssssssssssssssssssscsssssssssssssssssssscssccsssssscsssssssssssssssscssssssssssssssssssssssssscccsssccscssssssscsssssssssssssscsscccsccccssscsssccssssssssss" />
    <path
       style="fill:#fff0eb;fill-opacity:1;stroke-width:0"
       d="M 7.6627937,10.399037 C 5.9828536,10.01898 4.3717671,8.4837923 3.9399281,6.8515582 3.8038077,6.3370627 3.8028873,5.0422559 3.9381162,4.4599539 4.1632562,3.4912684 4.9431,2.3188735 5.7893014,1.6769328 6.2028408,1.3632189 7.1929313,0.82666604 7.358284,0.82666604 c 0.041469,0 -0.056185,0.12129223 -0.2170121,0.26954106 -0.2699686,0.2488462 -0.2924174,0.2941279 -0.2924174,0.5898465 0,0.4165072 0.1205711,0.6935674 0.4139017,0.9511141 C 7.876664,3.1761883 9.0126553,3.0712679 9.6905104,2.4129445 10.018505,2.0944002 10.171454,1.7245118 10.221889,1.1278891 c 0.0416,-0.49208297 0.04279,-0.49464854 0.211935,-0.45607796 0.342613,0.0781268 1.487511,0.66611076 1.888241,0.96974356 1.117459,0.8466938 1.84102,2.2998126 1.84102,3.6973004 0,0.7536917 -0.07015,1.1695938 -0.307405,1.8224563 L 13.677692,7.6511041 13.630732,7.3325526 C 13.548268,6.7731632 13.061765,6.4175232 12.265093,6.3342543 l -0.408126,-0.042658 0.03881,0.4838354 c 0.09322,1.1622196 0.627112,1.739731 1.290969,1.3964406 0.105971,-0.054801 0.192672,-0.079555 0.192672,-0.055015 0,0.1039927 -0.560792,0.7592976 -0.891766,1.0420543 -0.521982,0.4459424 -1.297488,0.8911744 -1.923872,1.1045344 -0.490264,0.16699 -0.6501631,0.188522 -1.5271836,0.205659 -0.6574247,0.01283 -1.1092665,-0.01018 -1.3739084,-0.07007 z M 10.054496,9.9763151 C 10.566534,9.8142998 10.981882,9.5298581 11.135432,9.2360527 11.274328,8.9702911 11.273781,8.491047 11.134345,8.2212667 10.695933,7.3734713 8.8042821,7.0244445 7.6686967,7.5818227 6.5253566,8.1430094 6.4091122,9.1612126 7.4207021,9.754045 8.1458573,10.179014 9.1469494,10.263493 10.054572,9.9763151 Z M 5.9406014,8.0571678 C 6.3804886,7.760728 6.7695935,6.5445626 6.4969469,6.3182847 6.3392619,6.1874151 5.9119597,6.2675748 5.4205472,6.5202077 4.9019349,6.7868245 4.7265303,7.0066232 4.7265303,7.3898794 c 0,0.6601787 0.6744997,1.0309042 1.2140711,0.6672884 z M 9.204258,6.9630954 C 9.5059087,6.8016563 9.2124838,6.4417802 8.8528034,6.5320536 8.6590989,6.5806727 8.5883137,6.7334077 8.6800511,6.9048192 8.7542426,7.0434472 9.0025416,7.0710524 9.204258,6.9630954 Z M 8.229271,6.2642627 C 8.3356482,6.1578892 7.4224451,5.3327528 7.1983451,5.3327528 c -0.1704295,0 -0.085617,0.2538106 0.1496041,0.4476999 l 0.2377686,0.1959874 -0.2214402,0.036418 c -0.1217923,0.020039 -0.309601,0.04418 -0.4173551,0.053663 -0.122325,0.010762 -0.1959186,0.053805 -0.1959186,0.114563 0,0.054363 0.086472,0.1176359 0.1959186,0.1433496 0.2573039,0.060458 1.2062474,0.015944 1.2823485,-0.060171 z m 3.120166,0.072053 c 0.304104,-0.06082 0.20734,-0.1841778 -0.162755,-0.207489 -0.176785,-0.011125 -0.348356,-0.04688 -0.381274,-0.079439 -0.03606,-0.035657 0.05479,-0.1617146 0.228572,-0.3171275 0.229825,-0.2055322 0.272103,-0.274694 0.208105,-0.3404603 -0.06469,-0.066473 -0.112846,-0.065121 -0.247506,0.00696 -0.20755,0.1110771 -0.945642,0.773912 -0.945642,0.8492196 0,0.1090042 0.893679,0.1697156 1.3005,0.088349 z"
       id="path4993" />
    <path
       style="fill:#fff0eb;fill-opacity:1;stroke-width:0"
       d="M 3.1910086,6.5028539 C 2.8930613,6.3081783 2.8526427,6.1140897 3.0616391,5.8816371 3.1887474,5.740266 3.2887722,5.6809425 3.3351445,5.7194297 c 0.07892,0.065495 0.165947,0.767643 0.1043479,0.8418671 -0.045216,0.054479 -0.092785,0.043292 -0.2484838,-0.058443 z"
       id="path5032" />
    <path
       style="fill:#fff0eb;fill-opacity:1;stroke-width:0"
       d="m 14.460112,6.6528856 c -0.03709,-0.09664 0.07176,-0.7228686 0.136979,-0.7880878 0.04802,-0.048018 0.133044,-0.025221 0.232949,0.06252 0.103663,0.091016 0.138617,0.1817246 0.124927,0.3241937 -0.01388,0.1444766 -0.09876,0.2573365 -0.272607,0.3624779 -0.136598,0.082613 -0.20114,0.093908 -0.222248,0.038896 z"
       id="path5071" />
    <path
       style="fill:#fff0eb;fill-opacity:1;stroke-width:0"
       d="M 8.0682269,2.0935704 C 7.9472572,2.0757056 7.8420904,2.018723 7.7936271,1.9447599 7.7425838,1.8668613 7.7624634,1.8403323 7.87183,1.8403323 c 0.3092206,0 0.4794,-0.2808724 0.3886193,-0.6414007 C 8.223205,1.0510124 8.0609723,0.88878337 7.9130568,0.85153544 7.7280673,0.8049565 7.6012163,0.82243719 7.3555517,0.92829249 c -0.037969,0.0163791 -0.040027,0.0128279 -0.017321,-0.0296056 0.03457,-0.0645778 0.032758,-0.0740067 -0.01464,-0.0759127 -0.1264596,-0.005073 0.8156424,-0.25685821 1.1025011,-0.29463154 0.2253175,-0.029678 0.310217,-0.0144948 0.3794585,0.0677847 0.077504,0.092107 0.1082615,0.26781264 0.1117801,0.63850905 0.00362,0.376277 -0.014386,0.4325058 -0.1959113,0.6131069 -0.1890842,0.188135 -0.4301684,0.2789339 -0.6532067,0.2460126 z"
       id="path5110" />
    <path
       style="fill:#fdb5cb;fill-opacity:1;stroke:#fdb5cb;stroke-width:0.108711;stroke-miterlimit:4;stroke-dasharray:none;stroke-opacity:1"
       d="M 8.5693437,9.7558641 C 7.9999276,9.6844375 7.4842617,9.4457485 7.2434818,9.1421484 6.9820868,8.8125627 7.0061155,8.5783308 7.3347046,8.2528943 7.5842466,8.0057404 7.7220339,7.9182717 8.0105015,7.8238745 8.2170846,7.7562705 8.3674316,7.7301945 8.6973325,7.704742 9.040623,7.678253 9.6932971,7.710862 9.8922595,7.764442 10.364303,7.8915611 10.882408,8.3523752 10.93306,8.6901613 10.96085,8.8754624 10.8459,9.0891443 10.62343,9.265745 10.452229,9.4016446 10.0355,9.6065934 9.7883574,9.6764328 9.4340146,9.7765699 8.973581,9.8065704 8.5693437,9.7558641 Z"
       id="path29482" />
    <path
       style="fill:#fdb5cb;fill-opacity:1;stroke:#fdb5cb;stroke-width:0.0724738;stroke-miterlimit:4;stroke-dasharray:none;stroke-opacity:1"
       d="M 5.2954791,7.926059 C 5.1408851,7.8587525 4.9712344,7.6162333 4.9457308,7.4260873 4.9290256,7.3015954 5.0409872,7.0764228 5.1876706,6.9394798 5.3766607,6.7630314 5.8974831,6.5133771 6.1824828,6.4626128 6.2999376,6.4417041 6.3066269,6.443226 6.3308803,6.4964581 6.3838079,6.6126264 6.2626244,7.1783282 6.1180971,7.4897628 5.9844734,7.7777014 5.7422115,7.9597774 5.4950394,7.9580345 5.4245151,7.9576721 5.3347128,7.9431411 5.2954791,7.9260735 Z"
       id="path29521" />
    <path
       style="fill:#fdb5cb;fill-opacity:1;stroke:#fdb5cb;stroke-width:0.0362369;stroke-miterlimit:4;stroke-dasharray:none;stroke-opacity:1"
       d="M 7.9296895,2.7258286 C 7.7227586,2.6819131 7.4729666,2.5622153 7.3352192,2.4409665 7.0663449,2.2042923 6.9691176,1.7230877 7.1218163,1.3847799 7.2442247,1.1135864 7.71092,0.94328733 7.9147237,1.0954462 c 0.1184694,0.088451 0.152619,0.1597686 0.1530756,0.3196639 3.624e-4,0.1814202 -0.021344,0.2024702 -0.1842865,0.1775283 -0.063494,-0.00971 -0.1933711,-0.01772 -0.2886126,-0.017756 l -0.173169,-7.97e-5 -0.0071,0.073412 c -0.01062,0.109617 0.079371,0.2937948 0.1961625,0.4014511 C 7.7736425,2.19977 7.9385966,2.2651957 8.179554,2.2752406 8.3713488,2.283249 8.3922249,2.2793354 8.5374335,2.208166 8.7255973,2.1159576 8.9687869,1.8818417 9.0635899,1.70165 L 9.1303275,1.5748026 9.1281533,1.0148915 9.125979,0.45498391 h 0.4150578 0.4150577 l -0.0129,0.54836249 C 9.9347509,1.3618926 9.9183356,1.604709 9.8957274,1.7048171 9.8271164,2.0088883 9.6768854,2.2191676 9.3938025,2.4073604 8.9346372,2.712613 8.4076111,2.8272449 7.9296859,2.7258214 Z"
       id="path29560" />
    <path
       style="fill:#fdb5cb;fill-opacity:1;stroke:#fdb5cb;stroke-width:0.0724738;stroke-miterlimit:4;stroke-dasharray:none;stroke-opacity:1"
       d="m 12.710456,8.0178725 c -0.05006,-0.018408 -0.1176,-0.053098 -0.150079,-0.07709 -0.104431,-0.077138 -0.277252,-0.3109455 -0.327198,-0.4426594 -0.05822,-0.153525 -0.15738,-0.6623421 -0.15833,-0.8123992 -7.25e-4,-0.124347 0.01471,-0.1352289 0.192618,-0.1352289 0.393464,0 0.945519,0.3081116 1.09758,0.6125815 0.114824,0.2299197 0.07893,0.4514287 -0.106591,0.6577762 -0.172734,0.192121 -0.369215,0.2627612 -0.548,0.1970198 z"
       id="path29599" />
    <path
       style="fill:#fdb5cb;fill-opacity:1;stroke:#fdb5cb;stroke-width:0.0724738;stroke-miterlimit:4;stroke-dasharray:none;stroke-opacity:1"
       d="M 14.473704,9.5823907 C 14.303322,9.4284635 14.171264,9.0682142 14.16635,8.7439481 l -0.0025,-0.1731654 0.06803,0.00496 c 0.171835,0.012538 0.895251,0.4373688 0.909224,0.5339402 0.01935,0.1336635 -0.374936,0.5578203 -0.518521,0.5578203 -0.03044,0 -0.09619,-0.037632 -0.14876,-0.085121 z"
       id="path29638" />
    <path
       style="fill:#fdb5cb;fill-opacity:1;stroke:#fdb5cb;stroke-width:0.108711;stroke-miterlimit:4;stroke-dasharray:none;stroke-opacity:1"
       d="m 15.735057,10.843077 c -0.126912,-0.111432 -0.230079,-0.343867 -0.240022,-0.540771 -0.01087,-0.21565 0.01468,-0.241019 0.186649,-0.185247 0.265417,0.08607 0.479244,0.246879 0.479244,0.36042 0,0.139498 -0.206949,0.43684 -0.304038,0.43684 -0.02239,0 -0.0772,-0.03207 -0.121833,-0.07124 z"
       id="path29677" />
    <path
       style="fill:#fdb5cb;fill-opacity:1;stroke:#fdb5cb;stroke-width:0.108711;stroke-miterlimit:4;stroke-dasharray:none;stroke-opacity:1"
       d="m 2.0800208,10.752539 c -0.085037,-0.08504 -0.140487,-0.291852 -0.1013076,-0.377846 0.048594,-0.106645 0.4836325,-0.355814 0.6414406,-0.367384 0.061806,-0.0045 0.069035,0.0022 0.075721,0.07211 0.010074,0.105054 -0.07022,0.357677 -0.1623668,0.510879 -0.1387222,0.230637 -0.3201749,0.295556 -0.4534869,0.16224 z"
       id="path29716" />
    <path
       style="fill:#fdb5cb;fill-opacity:1;stroke:#fdb5cb;stroke-width:0.0724738;stroke-miterlimit:4;stroke-dasharray:none;stroke-opacity:1"
       d="M 3.3900072,9.509145 C 3.3327565,9.4728393 3.2527998,9.3931325 3.2123195,9.332019 3.0385019,9.0695984 3.1734518,8.8234881 3.5731631,8.6739347 3.7152119,8.6207896 4.1320744,8.5289798 4.1499899,8.5468953 c 0.0208,0.0208 -0.068702,0.414554 -0.1286809,0.566086 C 3.8539922,9.5356958 3.6418212,9.6688412 3.3900072,9.509145 Z"
       id="path29755" />
  </g>
</svg>
