<?xml version="1.0" encoding="UTF-8" standalone="no"?>
<!-- Created with Inkscape (http://www.inkscape.org/) -->

<svg
   width="155"
   height="115"
   viewBox="0 0 41.010416 30.427084"
   version="1.1"
   id="svg31666"
   inkscape:version="1.1.1 (3bf5ae0d25, 2021-09-20)"
   sodipodi:docname="cry.svg"
   xmlns:inkscape="http://www.inkscape.org/namespaces/inkscape"
   xmlns:sodipodi="http://sodipodi.sourceforge.net/DTD/sodipodi-0.dtd"
   xmlns="http://www.w3.org/2000/svg"
   xmlns:svg="http://www.w3.org/2000/svg">
  <sodipodi:namedview
     id="namedview31668"
     pagecolor="#ffffff"
     bordercolor="#666666"
     borderopacity="1.0"
     inkscape:pageshadow="2"
     inkscape:pageopacity="0.0"
     inkscape:pagecheckerboard="0"
     inkscape:document-units="mm"
     showgrid="false"
     width="155mm"
     units="px"
     inkscape:zoom="4.1524866"
     inkscape:cx="48.404732"
     inkscape:cy="48.765962"
     inkscape:window-width="1920"
     inkscape:window-height="1009"
     inkscape:window-x="-8"
     inkscape:window-y="-8"
     inkscape:window-maximized="1"
     inkscape:current-layer="layer1" />
  <defs
     id="defs31663" />
  <g
     inkscape:label="Слой 1"
     inkscape:groupmode="layer"
     id="layer1">
    <path
       style="fill:#000000;stroke-width:0.264583"
       d="m 0.70785817,29.540932 c -0.36218999,-0.79491 -0.10878,-1.90604 0.51025993,-2.23734 0.25563,-0.13681 0.92697,-0.33545 1.49188,-0.44142 l 1.0271,-0.19269 -0.14825,1.10532 c -0.21248,1.58411 -0.82673,2.40808 -1.79518,2.40808 -0.58303,0 -0.87085993,-0.17017 -1.08580993,-0.64195 z m 2.01682993,-0.66782 c 0.39925,-0.77208 0.53533,-1.60064 0.26288,-1.60064 -0.5413,0 -1.9758799,0.83893 -1.9758799,1.15548 0,1.3799 1.0839599,1.66159 1.7129999,0.44516 z m 35.4740009,0.37384 c -0.24427,-0.51476 -0.40666,-1.19937 -0.36087,-1.52135 0.20116,-1.41459 2.86137,-0.39132 2.86137,1.10065 0,0.91319 -0.43986,1.35663 -1.34568,1.35663 -0.55355,0 -0.80889,-0.20693 -1.15482,-0.93593 z m 1.80408,0.11181 c 0.21556,-0.30775 0.33482,-0.70834 0.26503,-0.89021 -0.12686,-0.33061 -1.22203,-0.9315 -1.69772,-0.9315 -0.39656,0 -0.2946,1.14455 0.15974,1.79321 0.51346,0.73307 0.77535,0.73893 1.27295,0.0285 z m -22.25689,0.27848 c -3.40418,-0.59757 -6.43517,-2.16347 -8.5903104,-4.43803 -1.33011,-1.40381 -1.77849,-1.47334 -1.78983,-0.27753 -0.002,0.23504 -0.25081,0.74105 -0.55242,1.12448 -0.9551005,1.21421 -2.6576305,0.79387 -3.0456005,-0.75193 -0.24356,-0.97038 0.31608,-1.66762 1.74619,-2.17556 0.7252405,-0.25758 1.3186305,-0.58921 1.3186505,-0.73695 2e-5,-0.14775 -0.32413,-1.01277 -0.72034,-1.92227 -0.5601805,-1.28594 -0.8457605,-1.65365 -1.2843105,-1.65365 -0.31017,0 -0.87899,-0.29197 -1.26404,-0.64883 -1.19258,-1.10524 -0.82943,-2.8072 0.73878,-3.46244 0.76257,-0.31862 0.88789,-0.51529 1.03946,-1.63124 0.70179,-5.1669902 4.483911,-9.6954101 9.8144909,-11.7511002 4.00492,-1.54444594 8.48412,-1.32183594 12.50746,0.6216201 4.22494,2.0408499 8.00805,7.5198499 8.00805,11.5979101 0,0.77777 0.15008,1.07757 0.7276,1.45346 0.95706,0.62291 1.37035,1.1817 1.38065,1.86671 0.0122,0.81259 -0.93427,1.88646 -1.83756,2.08486 -0.65779,0.14448 -0.93465,0.49247 -1.7528,2.20313 -1.77546,3.71228 -5.86704,7.05441 -9.95727,8.13339 -1.81453,0.47867 -4.86,0.64955 -6.48685,0.36397 z m 5.48553,-1.04085 c 3.75411,-0.71196 7.96848,-3.6298 9.52582,-6.59526 l 0.3367,-0.64112 -0.73097,0.57498 c -1.31601,1.03517 -2.53609,0.63118 -3.32212,-1.10002 -0.27547,-0.60672 -0.50347,-1.68486 -0.50667,-2.39586 l -0.006,-1.29274 1.22497,0.1679 c 2.31815,0.31774 3.78933,1.75955 3.40119,3.33329 -0.27098,1.09867 0.29902,0.30384 0.94129,-1.31259 0.73683,-1.85443 0.98467,-5.46175 0.51114,-7.43976 -0.99294,-4.1476702 -3.6722,-7.5128602 -7.4015,-9.2964101 -1.0914,-0.52196 -2.31179,-1.0202501 -2.71198,-1.1073001 -0.70469,-0.1533 -0.72765,-0.12271 -0.72908,0.9712401 -0.002,1.8318599 -0.45779,2.9891699 -1.57254,3.9962799 -2.80285,2.5322 -7.17397,1.6054 -7.6056,-1.6126 -0.11978,-0.893 -0.0255,-1.17543 0.64175,-1.9221899 1.29231,-1.4463501 3.2462,-1.04568 3.2462,0.66568 0,0.6953699 -0.47703,1.1929699 -1.14364,1.1929699 -0.42214,0 -0.45263,0.0675 -0.17927,0.39688 0.51352,0.61876 1.78761,0.4854 2.53873,-0.26573 0.57823,-0.57823 0.65251,-0.85585 0.58329,-2.1802399 -0.0958,-1.83239004 -0.26457,-1.90406004 -2.96117,-1.2572701 -5.22494,1.2532401 -9.3751004,5.14186 -10.8512404,10.1674102 -0.5167405,1.75923 -0.5434005,5.22757 -0.0543,7.0644 1.204,4.52175 5.2552004,8.46013 10.0235804,9.74443 1.64421,0.44285 4.86483,0.51086 6.80125,0.14363 z m -4.91414,-1.1669 c -4.66965,-1.13363 -5.48733,-4.72655 -1.51911,-6.67505 1.34169,-0.6588 1.83809,-0.75636 3.7927,-0.74533 1.88891,0.0107 2.46075,0.12256 3.57187,0.699 1.66612,0.86438 2.23145,1.48891 2.42447,2.67837 0.31898,1.96567 -1.42296,3.55175 -4.53197,4.12648 -1.85257,0.34247 -1.99669,0.33925 -3.73796,-0.0835 z m 5.34761,-1.32192 c 2.45467,-1.14296 2.84642,-2.489 1.14759,-3.94313 -1.19531,-1.02314 -1.95989,-1.24265 -4.32083,-1.2405 -2.22293,0.002 -3.55472,0.42455 -4.58472,1.45455 -1.01025,1.01025 -1.08863,1.63719 -0.3259,2.60684 1.39896,1.77849 5.46284,2.34265 8.08386,1.12224 z M 9.2329786,21.548242 c -0.7728,-0.98245 -0.7044,-2.09795 0.18306,-2.98542 0.7900104,-0.79 3.2788904,-1.7513 3.9086204,-1.50965 0.79958,0.30683 0.2723,3.07158 -0.83728,4.39025 -0.91475,1.08712 -2.44301,1.13635 -3.2544004,0.10482 z m 3.0874504,-0.70689 c 0.6261,-0.9197 1.12032,-3.35847 0.68061,-3.35847 -0.78614,0 -2.80489,0.93915 -3.2585899,1.51593 -0.6359505,0.80848 -0.6654305,1.34608 -0.1168,2.12937 0.6551999,0.93542 1.9570499,0.79686 2.6947799,-0.28683 z m 7.30095,-2.18563 c -0.23233,-0.60546 0.29973,-1.0009 1.0824,-0.80447 0.75666,0.18991 0.91029,0.80988 0.26231,1.05853 -0.70413,0.27021 -1.17788,0.1807 -1.34471,-0.25406 z m -5.04979,-1.61265 c -0.76389,-0.30823 -0.23513,-0.61872 1.05833,-0.62145 l 1.38906,-0.003 -0.85989,-0.6777 c -0.86994,-0.68561 -1.1038,-1.16851 -0.56589,-1.16851 0.46616,0 2.89759,2.14033 2.73334,2.4061 -0.15341,0.24823 -3.17115,0.30007 -3.75495,0.0645 z m 8.92969,-0.0688 c 0,-0.33952 2.43944,-2.39803 2.84427,-2.40012 0.56944,-0.003 0.36282,0.46857 -0.46302,1.05662 -1.09824,0.78201 -0.99462,1.05833 0.39687,1.05833 0.65484,0 1.19063,0.11907 1.19063,0.26459 0,0.15287 -0.83785,0.26458 -1.98438,0.26458 -1.09141,0 -1.98437,-0.1098 -1.98437,-0.244 z m -17.0755804,8.63069 c 0.21952,-0.33503 0.479,-1.00848 0.57661,-1.49655 l 0.17748,-0.88741 -0.88741,0.17749 c -1.8849505,0.37699 -2.5700405,1.3348 -1.6678105,2.33176 0.59586,0.65842 1.32066,0.608 1.8011305,-0.12529 z m 25.7965204,-4.20325 c 0.99983,-1.07319 0.51615,-2.43464 -1.145,-3.22291 -0.49997,-0.23725 -1.21549,-0.43136 -1.59005,-0.43136 -0.62127,0 -0.66845,0.0754 -0.53789,0.85989 0.28889,1.73588 0.37195,1.97804 0.91545,2.66899 0.67803,0.86197 1.62436,0.91231 2.35749,0.12539 z m 4.18477,-3.53698 c 0.72629,-0.50872 0.76222,-1.46872 0.0711,-1.90031 -0.61187,-0.38212 -0.68718,-0.28605 -0.93105,1.1877 -0.20155,1.21807 -0.0459,1.34706 0.85991,0.71261 z M 5.1781681,16.808322 c -0.16835,-1.49359 -0.31948,-1.65341 -0.98986,-1.04673 -0.69486,0.62885 -0.67312,1.32698 0.0572,1.83855 0.91617,0.64171 1.07864,0.50377 0.93261,-0.79182 z M 20.850039,6.8333718 c 1.79372,-0.91654 2.25436,-1.73137 2.25436,-3.9876999 V 0.94639186 h -1.17325 -1.17325 l 0.0658,1.61308004 c 0.0573,1.4029799 -0.0235,1.7191999 -0.61984,2.4279399 -0.37712,0.44818 -1.03095,0.89071 -1.45295,0.9834 -1.24098,0.27256 -2.658,-0.6701 -2.658,-1.76821 0,-0.168 0.35488,-0.20581 0.92604,-0.0987 0.85853,0.16106 0.92605,0.1253 0.92605,-0.4904099 0,-1.19636 -1.30864,-1.44727 -2.4474,-0.46924 -0.59058,0.5072099 -0.60817,2.1073499 -0.0322,2.9296499 0.97586,1.39324 3.45887,1.74344 5.38461,0.75943 z m 14.30686,19.6592702 c -0.5583,-0.55829 -1.15991,-2.4278 -1.01134,-3.14273 0.11994,-0.5772 1.25199,-0.50452 2.54388,0.16332 1.26698,0.65497 1.46132,1.83378 0.46634,2.82876 -0.7999,0.7999 -1.31111,0.83843 -1.99888,0.15065 z m 1.7374,-0.68293 c 0.36794,-0.36793 0.62432,-0.81442 0.56973,-0.99219 -0.0941,-0.30635 -2.19074,-1.47969 -2.68563,-1.50293 -0.36782,-0.0173 0.0799,2.17426 0.55044,2.69416 0.56252,0.62158 0.7714,0.59502 1.56546,-0.19904 z"
       id="path3193"
       sodipodi:nodetypes="ssscssssssssssssssssssscsssssssssssssssssssscssccsssssscsssssssssssssssscssssssssssssssssssssssssscccsssccscssssssscsssssssssssssscsscccsccccssscsssccssssssssss" />
    <path
       style="fill:#fff0eb;fill-opacity:1;stroke-width:0"
       d="m 16.776449,28.425362 c -4.63599,-1.04881 -9.0819704,-5.28534 -10.2736804,-9.78968 -0.37564,-1.41981 -0.37818,-4.99298 -0.005,-6.59991 0.6213,-2.6732002 2.77337,-5.9085602 5.1085604,-7.6800702 1.14121,-0.8657299 3.87348,-2.3464099 4.32979,-2.3464099 0.11444,0 -0.15505,0.33472 -0.59887,0.74383 -0.74501,0.68672 -0.80696,0.81168 -0.80696,1.6277499 0,1.1494 0.33273,1.91398 1.14221,2.62471 1.69415,1.48749 4.82905,1.19795 6.69967,-0.61877 0.90514,-0.87906 1.32722,-1.89981 1.4664,-3.5462599 0.11479,-1.3579601 0.11808,-1.3650401 0.58486,-1.2586001 0.94548,0.2156001 4.10496,1.8382101 5.21082,2.67612 3.08376,2.33655 5.08051,6.3466002 5.08051,10.2031302 0,2.0799 -0.1936,3.22763 -0.84832,5.02928 l -0.49118,1.35164 -0.12959,-0.87908 c -0.22757,-1.5437 -1.57013,-2.52513 -3.76864,-2.75492 l -1.12627,-0.11772 0.10709,1.3352 c 0.25724,3.20728 1.73059,4.80099 3.56258,3.85364 0.29244,-0.15123 0.5317,-0.21954 0.5317,-0.15182 0,0.28698 -1.54757,2.09537 -2.46093,2.87567 -1.44047,1.23063 -3.58057,2.4593 -5.30915,3.04809 -1.35294,0.46083 -1.7942,0.52025 -4.21444,0.56754 -1.81424,0.0354 -3.06115,-0.0281 -3.79146,-0.19336 z m 6.60018,-1.16655 c 1.41303,-0.4471 2.55923,-1.23205 2.98297,-2.04284 0.3833,-0.7334 0.38179,-2.05593 -0.003,-2.80042 -1.20985,-2.33959 -6.43008,-3.30277 -9.56386,-1.76462 -3.15518,1.54866 -3.47597,4.35851 -0.68437,5.9945 2.00115,1.17275 4.76378,1.40588 7.26847,0.61338 z m -11.35277,-5.29611 c 1.21392,-0.81806 2.2877,-4.17421 1.5353,-4.79865 -0.43515,-0.36115 -1.61434,-0.13994 -2.97045,0.55723 -1.4311704,0.73576 -1.9152204,1.34232 -1.9152204,2.39996 0,1.82184 1.8613604,2.8449 3.3503704,1.84146 z m 9.00644,-3.01922 c 0.83244,-0.44551 0.0227,-1.43863 -0.96988,-1.18951 -0.53455,0.13417 -0.72989,0.55566 -0.47673,1.02869 0.20474,0.38256 0.88995,0.45874 1.44661,0.16082 z m -2.69059,-1.92851 c 0.29356,-0.29355 -2.22653,-2.57061 -2.84496,-2.57061 -0.47032,0 -0.23627,0.70042 0.41285,1.23548 l 0.65615,0.54085 -0.61109,0.1005 c -0.3361,0.0553 -0.85438,0.12192 -1.15174,0.14809 -0.33757,0.0297 -0.54066,0.14848 -0.54066,0.31615 0,0.15002 0.23863,0.32463 0.54066,0.39559 0.71006,0.16684 3.32878,0.044 3.53879,-0.16605 z m 8.61046,0.19884 c 0.83921,-0.16784 0.57218,-0.50826 -0.44914,-0.57259 -0.48786,-0.0307 -0.96133,-0.12937 -1.05217,-0.21922 -0.0995,-0.0984 0.15119,-0.44627 0.63077,-0.87515 0.63423,-0.56719 0.7509,-0.75805 0.57429,-0.93954 -0.17851,-0.18344 -0.31141,-0.17971 -0.68302,0.0192 -0.57276,0.30653 -2.60961,2.1357 -2.60961,2.34352 0,0.30081 2.46621,0.46835 3.58888,0.24381 z"
       id="path4993" />
    <path
       style="fill:#fff0eb;fill-opacity:1;stroke-width:0"
       d="m 4.4360381,17.673392 c -0.82222,-0.53723 -0.93376,-1.07284 -0.35701,-1.71432 0.35077,-0.39013 0.6268,-0.55384 0.75477,-0.44763 0.21779,0.18074 0.45795,2.1184 0.28796,2.32323 -0.12478,0.15034 -0.25605,0.11947 -0.68572,-0.16128 z"
       id="path5032" />
    <path
       style="fill:#fff0eb;fill-opacity:1;stroke-width:0"
       d="m 35.534439,18.087422 c -0.10234,-0.26669 0.19803,-1.99484 0.37801,-2.17482 0.13251,-0.13251 0.36715,-0.0696 0.64285,0.17253 0.28607,0.25117 0.38253,0.50149 0.34475,0.89465 -0.0383,0.3987 -0.27254,0.71015 -0.75229,1.0003 -0.37696,0.22798 -0.55507,0.25915 -0.61332,0.10734 z"
       id="path5071" />
    <path
       style="fill:#fff0eb;fill-opacity:1;stroke-width:0"
       d="m 17.895289,5.5054618 c -0.33383,-0.0493 -0.62405,-0.20655 -0.75779,-0.41066 -0.14086,-0.21497 -0.086,-0.28818 0.21581,-0.28818 0.85333,0 1.32296,-0.7751 1.07244,-1.7700199 -0.10278,-0.4082 -0.55048,-0.85589 -0.95867,-0.95868 -0.5105,-0.12854 -0.86056,-0.0803 -1.5385,0.21182 -0.10478,0.0452 -0.11046,0.0354 -0.0478,-0.0817 0.0954,-0.17821 0.0904,-0.20423 -0.0404,-0.20949 -0.34898,-0.014 2.25086,-0.7088301 3.04248,-0.81307 0.62179,-0.0819 0.85608,-0.04 1.04716,0.1870599 0.21388,0.2541801 0.29876,0.7390601 0.30847,1.7620401 0.01,1.0383799 -0.0397,1.1935499 -0.54064,1.6919399 -0.5218,0.51918 -1.1871,0.76975 -1.8026,0.6789 z"
       id="path5110" />
    <path
       style="fill:#fdb5cb;fill-opacity:1;stroke:#fdb5cb;stroke-width:0.3;stroke-miterlimit:4;stroke-dasharray:none;stroke-opacity:1"
       d="m 19.278179,26.650452 c -1.57137,-0.19711 -2.99441,-0.8558 -3.65887,-1.69362 -0.72135,-0.90953 -0.65504,-1.55592 0.25174,-2.454 0.68864,-0.68205 1.06888,-0.92343 1.86494,-1.18393 0.57009,-0.18656 0.98499,-0.25852 1.89539,-0.32876 0.94735,-0.0731 2.74848,0.0169 3.29754,0.16475 1.30266,0.3508 2.73243,1.62247 2.87221,2.55463 0.0767,0.51136 -0.24053,1.10104 -0.85446,1.58839 -0.47245,0.37503 -1.62246,0.94061 -2.30448,1.13334 -0.97785,0.27634 -2.24847,0.35913 -3.36401,0.2192 z"
       id="path29482" />
    <path
       style="fill:#fdb5cb;fill-opacity:1;stroke:#fdb5cb;stroke-width:0.2;stroke-miterlimit:4;stroke-dasharray:none;stroke-opacity:1"
       d="m 10.243569,21.600892 c -0.4266199,-0.18574 -0.8947904,-0.855 -0.9651704,-1.37973 -0.0461,-0.34355 0.2628705,-0.96494 0.6676605,-1.34285 0.5215399,-0.48693 1.9588099,-1.17588 2.7452999,-1.31597 0.32413,-0.0577 0.34259,-0.0535 0.40952,0.0934 0.14606,0.32058 -0.18836,1.8817 -0.5872,2.74114 -0.36875,0.7946 -1.0373,1.29706 -1.7194,1.29225 -0.19462,-0.001 -0.44244,-0.0411 -0.55071,-0.0882 z"
       id="path29521" />
    <path
       style="fill:#fdb5cb;fill-opacity:1;stroke:#fdb5cb;stroke-width:0.1;stroke-miterlimit:4;stroke-dasharray:none;stroke-opacity:1"
       d="m 17.512979,7.2502518 c -0.57105,-0.12119 -1.26038,-0.45151 -1.64051,-0.78611 -0.74199,-0.65313 -1.0103,-1.98107 -0.58891,-2.9146699 0.3378,-0.74839 1.6257,-1.21835 2.18812,-0.79845 0.32693,0.24409 0.42117,0.4409 0.42243,0.8821499 0.001,0.50065 -0.0589,0.55874 -0.50856,0.48991 -0.17522,-0.0268 -0.53363,-0.0489 -0.79646,-0.049 l -0.47788,-2.2e-4 -0.0196,0.20259 c -0.0293,0.3025 0.21904,0.81076 0.54134,1.10785 0.4494,0.41423 0.90461,0.59478 1.56956,0.6225 0.52928,0.0221 0.58689,0.0113 0.98761,-0.1851 0.51926,-0.25446 1.19037,-0.90053 1.45199,-1.39779 l 0.18417,-0.35005 -0.006,-1.5451399 -0.006,-1.54513004 h 1.1454 1.1454 l -0.0356,1.51327004 c -0.0233,0.98945 -0.0686,1.6595299 -0.13099,1.9357899 -0.18934,0.83912 -0.60392,1.41941 -1.38512,1.93875 -1.26712,0.84238 -2.72151,1.15872 -4.0404,0.87883 z"
       id="path29560" />
    <path
       style="fill:#fdb5cb;fill-opacity:1;stroke:#fdb5cb;stroke-width:0.2;stroke-miterlimit:4;stroke-dasharray:none;stroke-opacity:1"
       d="m 30.706059,21.854262 c -0.13815,-0.0508 -0.32453,-0.14653 -0.41416,-0.21274 -0.28819,-0.21287 -0.76511,-0.85809 -0.90294,-1.22157 -0.16066,-0.42367 -0.43431,-1.82781 -0.43693,-2.24191 -0.002,-0.34315 0.0406,-0.37318 0.53155,-0.37318 1.08581,0 2.60927,0.85027 3.0289,1.69049 0.31687,0.63449 0.21782,1.24577 -0.29415,1.81521 -0.47668,0.53018 -1.01889,0.72512 -1.51227,0.5437 z"
       id="path29599" />
    <path
       style="fill:#fdb5cb;fill-opacity:1;stroke:#fdb5cb;stroke-width:0.2;stroke-miterlimit:4;stroke-dasharray:none;stroke-opacity:1"
       d="m 35.571949,26.171732 c -0.47019,-0.42478 -0.83462,-1.41893 -0.84818,-2.31378 l -0.007,-0.47787 0.18774,0.0137 c 0.4742,0.0346 2.47055,1.20697 2.50911,1.47347 0.0534,0.36886 -1.03468,1.53937 -1.43092,1.53937 -0.084,0 -0.26546,-0.10385 -0.41052,-0.2349 z"
       id="path29638" />
    <path
       style="fill:#fdb5cb;fill-opacity:1;stroke:#fdb5cb;stroke-width:0.3;stroke-miterlimit:4;stroke-dasharray:none;stroke-opacity:1"
       d="m 39.052799,29.650742 c -0.35023,-0.30751 -0.63493,-0.94894 -0.66237,-1.49232 -0.03,-0.59511 0.0405,-0.66512 0.51508,-0.51121 0.73245,0.23751 1.32253,0.68129 1.32253,0.99462 0,0.38496 -0.5711,1.20551 -0.83903,1.20551 -0.0618,0 -0.21305,-0.0885 -0.33621,-0.1966 z"
       id="path29677" />
    <path
       style="fill:#fdb5cb;fill-opacity:1;stroke:#fdb5cb;stroke-width:0.3;stroke-miterlimit:4;stroke-dasharray:none;stroke-opacity:1"
       d="m 1.3701381,29.400892 c -0.23467,-0.23467 -0.38768993,-0.8054 -0.27957,-1.04271 0.1341,-0.2943 1.33464,-0.98191 1.77013,-1.01384 0.17056,-0.0125 0.19051,0.006 0.20896,0.199 0.0278,0.28991 -0.19378,0.98705 -0.44807,1.40983 -0.38282,0.63647 -0.88356,0.81562 -1.25145,0.44772 z"
       id="path29716" />
    <path
       style="fill:#fdb5cb;fill-opacity:1;stroke:#fdb5cb;stroke-width:0.2;stroke-miterlimit:4;stroke-dasharray:none;stroke-opacity:1"
       d="m 4.9851981,25.969602 c -0.15799,-0.10019 -0.37864,-0.32015 -0.49035,-0.4888 -0.47967,-0.72418 -0.10726,-1.40335 0.99579,-1.81606 0.392,-0.14666 1.5423805,-0.40002 1.5918205,-0.35058 0.0574,0.0574 -0.18959,1.14401 -0.35511,1.56218 -0.46173,1.16653 -1.0472405,1.53396 -1.7421505,1.09326 z"
       id="path29755" />
  </g>
</svg>
