<?xml version="1.0" encoding="UTF-8" standalone="no"?>
<!-- Created with Inkscape (http://www.inkscape.org/) -->

<svg
   width="50.000099"
   height="46.364597"
   viewBox="0 0 13.229192 12.2673"
   version="1.1"
   id="svg5"
   inkscape:version="1.1.1 (3bf5ae0d25, 2021-09-20)"
   sodipodi:docname="discount_cart.svg"
   xmlns:inkscape="http://www.inkscape.org/namespaces/inkscape"
   xmlns:sodipodi="http://sodipodi.sourceforge.net/DTD/sodipodi-0.dtd"
   xmlns="http://www.w3.org/2000/svg"
   xmlns:svg="http://www.w3.org/2000/svg">
  <sodipodi:namedview
     id="namedview7"
     pagecolor="#ffffff"
     bordercolor="#ffd5e6"
     borderopacity="1.0"
     inkscape:pageshadow="2"
     inkscape:pageopacity="0.0"
     inkscape:pagecheckerboard="0"
     inkscape:document-units="mm"
     showgrid="false"
     units="px"
     width="793.70081px"
     fit-margin-top="0"
     fit-margin-left="0"
     fit-margin-right="0"
     fit-margin-bottom="0"
     inkscape:zoom="4.1524866"
     inkscape:cx="-19.988024"
     inkscape:cy="39.614818"
     inkscape:window-width="1920"
     inkscape:window-height="1009"
     inkscape:window-x="-8"
     inkscape:window-y="-8"
     inkscape:window-maximized="1"
     inkscape:current-layer="layer1"
     showguides="false" />
  <defs
     id="defs2" />
  <g
     inkscape:label="Слой 1"
     inkscape:groupmode="layer"
     id="layer1"
     transform="translate(-100.70964,-77.244741)">
    <path
       style="fill:#d888a9;stroke-width:0.0325816"
       d="m 105.84362,89.481986 c -0.29931,-0.08391 -0.59202,-0.373582 -0.67334,-0.666352 -0.12457,-0.448525 0.0906,-0.94286 0.50228,-1.153923 0.18411,-0.09439 0.54495,-0.114952 0.76055,-0.04334 0.21973,0.07298 0.43844,0.271669 0.55071,0.500284 0.0764,0.155658 0.0911,0.226254 0.0894,0.430548 -0.002,0.277547 -0.0874,0.484547 -0.28017,0.681171 -0.22533,0.22983 -0.63751,0.339059 -0.94947,0.251611 z m 4.95357,0.01098 c -0.43584,-0.108958 -0.74483,-0.48915 -0.75142,-0.924574 -0.006,-0.404283 0.18281,-0.71926 0.53784,-0.896668 0.5944,-0.297024 1.28907,0.06177 1.39304,0.719496 0.0882,0.557683 -0.31262,1.066169 -0.88015,1.116693 -0.0971,0.0086 -0.23183,0.0019 -0.29931,-0.01495 z m -5.37391,-2.994152 c -0.10218,-0.03267 -0.25051,-0.09734 -0.32962,-0.143697 -0.18267,-0.107055 -0.44985,-0.398223 -0.54414,-0.592999 -0.04,-0.08268 -0.5539,-1.786263 -1.14195,-3.785736 -0.58804,-1.999474 -1.09249,-3.658773 -1.121,-3.687333 -0.0425,-0.04257 -0.16273,-0.05486 -0.66759,-0.06822 -0.55675,-0.01473 -0.62454,-0.02276 -0.70757,-0.08377 -0.29746,-0.218584 -0.25933,-0.66857 0.0702,-0.828077 0.13998,-0.06776 0.18144,-0.0709 0.7749,-0.05865 0.5562,0.01148 0.64816,0.02128 0.81425,0.08675 0.22807,0.0899 0.50149,0.332076 0.61744,0.546872 0.0468,0.08672 0.22814,0.645176 0.40296,1.241012 l 0.31786,1.083339 h 4.85105 c 5.30773,0 4.96015,-0.0128 5.1031,0.187952 0.14167,0.198951 0.14916,0.162066 -0.5623,2.768653 -0.36804,1.348374 -0.70457,2.521312 -0.74785,2.606528 -0.17278,0.340155 -0.49852,0.612806 -0.87041,0.728552 -0.18866,0.05872 -0.34157,0.06164 -3.13592,0.05997 -2.75019,-0.0016 -2.94944,-0.0055 -3.12338,-0.06116 z"
       id="path1069"
       sodipodi:nodetypes="ccsccccccccscccccccccccccccccssccsccc" />
    <path
       style="fill:#ffffff;fill-opacity:1;stroke:none;stroke-width:0.10388;stroke-miterlimit:4;stroke-dasharray:none;stroke-opacity:1"
       d="m 107.77222,84.903383 c -0.0545,-0.03855 -0.0993,-0.107749 -0.0993,-0.153789 0,-0.199194 1.34924,-2.991964 1.46291,-3.02804 0.10372,-0.03291 0.2577,0.06626 0.28799,0.18546 0.0243,0.09606 -0.50216,1.287259 -1.10041,2.489402 -0.29205,0.58684 -0.35528,0.645007 -0.55107,0.506967 z"
       id="path2570" />
    <path
       style="fill:#ffffff;fill-opacity:1;stroke:none;stroke-width:0.10388;stroke-miterlimit:4;stroke-dasharray:none;stroke-opacity:1"
       d="m 107.03208,83.450028 c -0.28947,-0.1292 -0.46399,-0.414859 -0.46399,-0.759483 0,-0.811267 1.00135,-1.076491 1.33022,-0.352339 0.18643,0.410471 0.0127,0.913694 -0.3758,1.090255 -0.21389,0.09714 -0.31152,0.101432 -0.49043,0.02158 z m 0.37402,-0.553096 c 0.14641,-0.273531 -0.079,-0.645211 -0.25932,-0.42782 -0.0705,0.08504 -0.0743,0.362633 -0.006,0.444992 0.0781,0.09415 0.21024,0.08559 0.26524,-0.01717 z"
       id="path2868" />
    <path
       style="fill:#ffffff;fill-opacity:1;stroke:none;stroke-width:0.10388;stroke-miterlimit:4;stroke-dasharray:none;stroke-opacity:1"
       d="m 109.5782,84.718524 c -0.4714,-0.232221 -0.58012,-0.937448 -0.2027,-1.314861 0.36083,-0.360835 0.86687,-0.25861 1.08639,0.219465 0.1951,0.424822 -0.007,0.968377 -0.41687,1.123849 -0.17161,0.06503 -0.29199,0.05768 -0.46682,-0.02844 z m 0.39579,-0.525083 c 0.0888,-0.106886 0.0738,-0.370628 -0.025,-0.442926 -0.1064,-0.07774 -0.13311,-0.07672 -0.21817,0.0082 -0.0793,0.07923 -0.0913,0.293178 -0.0236,0.419534 0.0554,0.103651 0.18732,0.111084 0.267,0.01506 z"
       id="path2907" />
  </g>
</svg>
