<?xml version="1.0" encoding="UTF-8" standalone="no"?>
<!-- Created with Inkscape (http://www.inkscape.org/) -->

<svg
   width="45.000023"
   height="44.997173"
   viewBox="0 0 11.906255 11.905502"
   version="1.1"
   id="svg5"
   inkscape:version="1.1.1 (3bf5ae0d25, 2021-09-20)"
   sodipodi:docname="facebook.svg"
   xmlns:inkscape="http://www.inkscape.org/namespaces/inkscape"
   xmlns:sodipodi="http://sodipodi.sourceforge.net/DTD/sodipodi-0.dtd"
   xmlns="http://www.w3.org/2000/svg"
   xmlns:svg="http://www.w3.org/2000/svg">
  <sodipodi:namedview
     id="namedview7"
     pagecolor="#ffffff"
     bordercolor="#5858586"
     borderopacity="1.0"
     inkscape:pageshadow="2"
     inkscape:pageopacity="0.0"
     inkscape:pagecheckerboard="0"
     inkscape:document-units="mm"
     showgrid="false"
     units="px"
     width="793.70081px"
     fit-margin-top="0"
     fit-margin-left="0"
     fit-margin-right="0"
     fit-margin-bottom="0"
     inkscape:zoom="4.1524866"
     inkscape:cx="40.216867"
     inkscape:cy="16.014501"
     inkscape:window-width="1920"
     inkscape:window-height="1009"
     inkscape:window-x="-8"
     inkscape:window-y="-8"
     inkscape:window-maximized="1"
     inkscape:current-layer="layer1"
     showguides="true" />
  <defs
     id="defs2" />
  <g
     inkscape:label="Слой 1"
     inkscape:groupmode="layer"
     id="layer1"
     transform="translate(-100.66107,-77.153283)">
    <path
       style="fill:#585858;stroke-width:0.116416"
       d="m 105.35529,86.162804 c 0,-1.499449 -0.0318,-2.809139 -0.0707,-2.910418 -0.0533,-0.139091 -0.23851,-0.184146 -0.7567,-0.184146 h -0.68605 V 82.026045 80.98385 l 0.72384,-0.03466 0.72385,-0.03466 0.0393,-0.814917 c 0.07,-1.450032 0.43859,-2.093168 1.47688,-2.576664 0.48868,-0.227563 0.77667,-0.273458 1.72191,-0.274406 l 1.13505,-0.0013 v 1.105958 1.105957 h -0.97529 c -1.15217,0 -1.26591,0.08365 -1.21427,0.893184 l 0.0358,0.562025 1.08327,0.03356 c 0.95783,0.02968 1.07681,0.05662 1.0273,0.232835 -0.0308,0.109604 -0.11702,0.579085 -0.19157,1.043296 l -0.13559,0.84402 h -0.92082 -0.92081 v 2.910417 2.910418 h -1.04776 -1.04772 z"
       id="path3674"
       sodipodi:nodetypes="ssscccccssccccsscssscccccccs" />
  </g>
</svg>
