<?xml version="1.0" encoding="UTF-8" standalone="no"?>
<!-- Created with Inkscape (http://www.inkscape.org/) -->

<svg
   width="80"
   height="220"
   viewBox="0 0 21.166666 58.208335"
   version="1.1"
   id="svg5"
   inkscape:version="1.1.1 (3bf5ae0d25, 2021-09-20)"
   sodipodi:docname="linear.svg"
   xmlns:inkscape="http://www.inkscape.org/namespaces/inkscape"
   xmlns:sodipodi="http://sodipodi.sourceforge.net/DTD/sodipodi-0.dtd"
   xmlns="http://www.w3.org/2000/svg"
   xmlns:svg="http://www.w3.org/2000/svg">
  <sodipodi:namedview
     id="namedview7"
     pagecolor="#ffffff"
     bordercolor="#666666"
     borderopacity="1.0"
     inkscape:pageshadow="2"
     inkscape:pageopacity="0.0"
     inkscape:pagecheckerboard="0"
     inkscape:document-units="mm"
     showgrid="false"
     units="px"
     inkscape:zoom="2.9362514"
     inkscape:cx="72.882043"
     inkscape:cy="131.63042"
     inkscape:window-width="1920"
     inkscape:window-height="1009"
     inkscape:window-x="-8"
     inkscape:window-y="-8"
     inkscape:window-maximized="1"
     inkscape:current-layer="layer1" />
  <defs
     id="defs2" />
  <g
     inkscape:label="Слой 1"
     inkscape:groupmode="layer"
     id="layer1">
    <path
       style="fill:#b3bacd;fill-opacity:1;stroke-width:0.264583"
       d="M 15.45378,58.08143 C 15.35358,57.98993 13.75942,57.87581 7.67292,57.52448 6.36323,57.44888 4.51776,57.30754 3.57188,57.2104 2.62599,57.1133 1.77967,57.04895 1.69117,57.06751 1.60267,57.08611 1.18595,56.74188 0.76513,56.30264 L 0,55.50402 V 29.72479 C 0,15.54621 0.0916,3.9454363 0.20348,3.9452893 0.3154,3.9451413 0.3304,3.6399913 0.23688,3.2671773 -0.00694,2.2956943 0.81968,0.61371234 1.72532,0.23858734 c 0.7106,-0.29434 5.55574,-0.189415 6.07509,0.131561 0.12333,0.07622 0.28454,-0.01098 0.35824,-0.193792 0.0917,-0.227348 0.1406,-0.234675 0.15489,-0.02319 0.0149,0.221046 1.35972,0.326304 4.71724,0.369224 2.58299,0.03302 5.02494,0.04741 5.42654,0.03199 1.22372,-0.047 2.53452,0.91023996 2.73901,2.00021296 0.0978,0.521376 0.0984,7.089934 0.001,14.5967967 -0.097,7.50686 -0.17906,19.30431 -0.18236,26.21655 -0.004,7.44612 -0.11156,12.90144 -0.26502,13.38664 -0.14245,0.45041 -0.52375,0.94853 -0.84733,1.10693 -0.70759,0.34638 -3.63102,0.32789 -3.63102,-0.023 0,-0.13634 -0.15978,-0.11528 -0.35507,0.0468 -0.19529,0.16208 -0.40365,0.25032 -0.46302,0.1961 z m 4.45288,-0.90386 c -0.25645,-0.0502 -0.39834,-0.20125 -0.31532,-0.33558 0.083,-0.13433 0.15322,-12.34382 0.15601,-27.13221 C 19.75135,10.114423 19.67155,2.7409063 19.45429,2.5235183 19.15014,2.2192103 2.75993,1.6771903 2.05397,1.9480953 1.86501,2.0206053 1.72865,2.4102823 1.75095,2.8140403 1.79815,3.6675843 1.48621,35.04247 1.31523,46.64528 c -0.0641,4.34914 -0.0477,8.18173 0.0364,8.51685 0.12794,0.50974 0.37589,0.63383 1.51732,0.75931 1.77546,0.1952 3.97031,0.36727 6.92063,0.54258 4.35088,0.25852 6.213,0.44063 6.32477,0.61851 0.0608,0.0968 1.04388,0.17836 2.18457,0.18121 1.14069,0.003 1.86417,-0.0359 1.60773,-0.0862 z M 13.09688,52.0312 C 9.51382,51.7996 8.41743,51.54863 8.73611,51.033 c 0.0722,-0.11687 0.5174,-0.1745 0.98928,-0.12807 0.47187,0.0464 1.69138,0.15454 2.71003,0.24024 4.55221,0.38296 5.18583,0.47776 5.0912,0.76166 -0.13425,0.40276 -0.12626,0.40253 -4.42974,0.12437 z M 3.82919,51.65776 c -0.3598,-0.24279 -0.6936,-0.47072 -0.74177,-0.50651 -0.25523,-0.18963 0.56575,-1.1382 1.21945,-1.40897 0.81006,-0.33554 2.10329,-0.0312 2.49672,0.58752 0.86362,1.35821 -1.41918,2.37739 -2.9744,1.32796 z M 6.20356,51.0673 C 6.40968,50.68217 6.37585,50.52746 6.05894,50.40585 5.31833,50.12165 4.16101,50.23839 4.01774,50.61174 3.65672,51.55255 5.71435,51.9814 6.20356,51.0673 Z m 9.27456,-0.79561 c -1.74279,-0.22963 -1.68142,-0.81557 0.0713,-0.68101 0.76114,0.0584 1.53271,0.11098 1.71461,0.11675 0.1819,0.006 0.33073,0.1891 0.33073,0.40738 0,0.41058 -0.12227,0.41965 -2.11667,0.15688 z m -1.25723,-2.14125 c 0.072,-0.38678 0.24418,-0.40684 2.58015,-0.30066 0.49636,0.0226 0.79375,0.1783 0.79375,0.41568 0,0.29592 -0.38007,0.36884 -1.72388,0.33073 -1.37194,-0.0389 -1.70879,-0.1299 -1.65002,-0.44575 z m 0.79421,-1.24393 c -0.94064,-0.12308 -1.16684,-0.73075 -0.35138,-0.944 0.27968,-0.0731 1.05921,-0.0709 1.73229,0.005 0.94117,0.10608 1.20512,0.23659 1.14297,0.56514 -0.0851,0.44968 -0.95719,0.57888 -2.52388,0.37389 z m 0,-1.87766 c -0.53076,-0.0537 -0.85989,-0.23243 -0.85989,-0.46705 0,-0.54805 2.98289,-0.53351 3.43958,0.0168 0.18116,0.21828 0.28503,0.41353 0.23083,0.43388 -0.22948,0.0862 -2.01704,0.0966 -2.81052,0.0164 z M 14.9164,43.24723 C 14.85,43.18083 13.61066,43.10649 12.1623,43.082 9.22841,43.0324 8.86351,42.95582 8.86351,42.38961 c 0,-0.33768 0.49002,-0.3636 3.50572,-0.18545 1.92816,0.11391 3.89268,0.19117 4.36563,0.17169 0.68706,-0.0283 0.85989,0.0678 0.85989,0.47834 0,0.43775 -0.18918,0.51375 -1.27882,0.51375 -0.70335,0 -1.33314,-0.0543 -1.39953,-0.12071 z M 3.31362,42.84958 c -0.62147,-0.39502 0.49819,-0.6878 2.22431,-0.58163 1.81972,0.11193 1.95817,0.57082 0.17221,0.57082 -0.7157,0 -1.45984,0.0583 -1.65364,0.12952 -0.1938,0.0712 -0.5281,0.0178 -0.74288,-0.11871 z m 11.74715,-1.34727 c -0.2798,-0.10165 -0.60947,-0.12609 -0.73259,-0.0543 -0.12313,0.0718 -0.18027,-0.0919 -0.12698,-0.36384 0.079,-0.40317 0.31554,-0.48625 1.2822,-0.45041 0.65192,0.0242 1.46193,0.0539 1.80002,0.0661 0.42741,0.0154 0.58861,0.15776 0.52904,0.4671 -0.0926,0.48074 -1.78406,0.68685 -2.75169,0.3353 z m -0.31029,-1.77512 c -0.66348,-0.1117 -0.80596,-0.79294 -0.2134,-1.02033 0.70819,-0.27176 3.18996,0.2688 3.18996,0.69482 0,0.39533 -1.55299,0.56516 -2.97656,0.32551 z m 0.86219,-1.62634 c -0.9703,-0.11526 -1.34391,-0.27969 -1.40845,-0.61989 -0.0756,-0.39838 0.12727,-0.46246 1.4529,-0.45897 0.84742,0.002 1.70693,0.10927 1.91004,0.23788 0.43349,0.27448 0.19932,1.1 -0.29484,1.03942 -0.18646,-0.0229 -0.93331,-0.11216 -1.65965,-0.19844 z M 14.75048,36.2842 c -0.3843,-0.0625 -0.59531,-0.28249 -0.59531,-0.62066 0,-0.46309 0.1611,-0.51696 1.38906,-0.46445 1.90264,0.0814 2.35475,0.22696 2.25839,0.72733 -0.082,0.42553 -1.56593,0.59949 -3.05214,0.35778 z M 3.67741,33.97252 C 2.97824,33.27335 2.96861,33.22856 3.44295,32.88172 4.13883,32.37288 4.97611,32.43199 5.7554,33.04498 l 0.66738,0.52496 0.14424,-0.55158 c 0.21598,-0.82592 0.70903,-0.33366 0.70903,0.7079 0,1.03615 -0.40929,1.17566 -1.22355,0.41705 -0.798,-0.74345 -1.63132,-1.13347 -1.80867,-0.84651 -0.0847,0.13696 0.057,0.368 0.31467,0.5134 0.359,0.20254 0.39602,0.33769 0.1583,0.5779 -0.23863,0.24113 -0.47865,0.14516 -1.03939,-0.41558 z m 9.15664,0.3338 c -2.10909,-0.13166 -3.87997,-0.28465 -3.93529,-0.33997 -0.0553,-0.0553 -0.0273,-0.29151 0.0622,-0.52485 0.14245,-0.37123 0.60127,-0.40424 3.67071,-0.26412 4.60239,0.2101 5.28205,0.32206 5.17804,0.85298 -0.10677,0.54495 -0.40337,0.5614 -4.97568,0.27596 z m 1.4217,-1.90592 c -0.29045,-0.75692 0.17066,-0.97619 1.70833,-0.81233 1.56464,0.16674 2.07471,0.42759 1.77725,0.9089 -0.27955,0.45232 -3.30714,0.36844 -3.48558,-0.0966 z m 0.0376,-1.68248 c -0.076,-0.076 -0.13817,-0.30237 -0.13817,-0.50304 0,-0.28175 0.40622,-0.34705 1.78319,-0.28664 1.46511,0.0643 1.79928,0.16253 1.87332,0.55079 0.0798,0.41853 -0.1082,0.46708 -1.64503,0.42481 -0.95432,-0.0263 -1.79731,-0.10992 -1.87331,-0.18592 z m 1.05244,-1.62165 c -0.69852,-0.0978 -1.05832,-0.28305 -1.05832,-0.545 0,-0.31207 0.36747,-0.39687 1.71978,-0.39687 1.50958,0 1.71979,0.0611 1.71979,0.49968 0,0.56186 -0.65594,0.68367 -2.38125,0.44219 z m -0.89845,-1.84526 c -0.53629,-0.33959 -0.15926,-1.05118 0.55352,-1.0447 1.9346,0.0176 2.85847,0.26766 2.85847,0.77367 0,0.44855 -0.19102,0.51245 -1.52135,0.50891 -0.83674,-0.002 -1.68753,-0.10928 -1.89064,-0.23788 z M 6.06385,25.60602 C 5.96207,25.44133 6.08835,25.1893 6.34456,25.04594 6.72349,24.83388 6.74275,24.74247 6.44786,24.55566 5.9168,24.21925 5.68851,24.26709 5.68851,24.71481 c 0,0.53885 -0.44432,0.5015 -0.76076,-0.0639 -0.14184,-0.25345 -0.35266,-0.36603 -0.46851,-0.25019 -0.11584,0.11584 -0.0365,0.31825 0.17639,0.4498 0.28863,0.17838 0.31069,0.31549 0.0868,0.53941 -0.39232,0.39231 -1.70811,-0.42552 -1.51101,-0.93917 0.45897,-1.19604 4.3292,-0.99115 4.3292,0.22919 0,0.34394 -0.81265,1.22553 -1.12969,1.22553 -0.0891,0 -0.24527,-0.13474 -0.34705,-0.29942 z m 5.97466,-0.21638 C 9.22074,25.25475 8.9958,25.20486 8.9958,24.71481 c 0,-0.45548 0.16579,-0.52474 1.19063,-0.49738 2.72782,0.0728 7.51125,0.37982 7.62052,0.4891 0.0648,0.0648 0.0472,0.30148 -0.0389,0.52604 -0.16759,0.43672 0.0102,0.43185 -5.72952,0.15707 z m 3.17799,-1.60087 c -0.56931,-0.0816 -0.9545,-0.29697 -1.00516,-0.56202 -0.11184,-0.58511 0.34774,-0.70081 2.06049,-0.51873 1.19053,0.12657 1.46901,0.25096 1.53109,0.68388 0.0627,0.43722 -0.0752,0.52916 -0.79375,0.52916 -0.47829,0 -1.28499,-0.0595 -1.79267,-0.13229 z m 0.0632,-1.77587 c -0.90812,-0.0861 -1.12447,-0.20737 -1.12447,-0.63017 0,-0.47659 0.16722,-0.5193 1.86556,-0.47644 1.73412,0.0438 1.85996,0.0864 1.78593,0.60488 -0.0862,0.60347 -0.52838,0.69128 -2.52702,0.50173 z m -0.83231,-1.90564 c -0.2031,-0.12861 -0.30584,-0.39915 -0.2283,-0.6012 0.10243,-0.26692 0.58858,-0.35327 1.77793,-0.31579 1.79603,0.0566 2.00363,0.14458 1.77106,0.75063 -0.17571,0.45791 -2.66343,0.58253 -3.32069,0.16636 z m 0.9646,-1.55851 c -0.8561,-0.0549 -1.25676,-0.19757 -1.25676,-0.4474 0,-0.56025 0.40585,-0.70038 2.02853,-0.70038 0.92035,0 1.56826,0.12867 1.69702,0.337 0.42978,0.69541 -0.33788,0.94752 -2.46879,0.81078 z M 4.55763,16.69981 C 3.86289,16.32698 3.33656,15.89424 3.38801,15.73816 c 0.12632,-0.38322 3.12532,-0.4938 3.62341,-0.13361 0.29893,0.21618 0.31526,0.32012 0.0661,0.4212 -0.1819,0.0738 -0.33073,0.42193 -0.33073,0.77361 0,0.81766 -0.52449,0.79381 -2.18921,-0.0995 z m 11.63764,0.045 c -0.0332,-0.0332 -1.66668,-0.11743 -3.62993,-0.18715 -3.31005,-0.11755 -3.57542,-0.16505 -3.65045,-0.65343 -0.0786,-0.51143 0.0362,-0.52267 3.96875,-0.38855 3.95429,0.13485 5.24028,0.33835 5.24028,0.82922 0,0.20703 -1.75717,0.57138 -1.92865,0.39991 z m -0.21115,-1.701627 c -0.16502,-0.101985 -0.49521,-0.138941 -0.73376,-0.08212 -0.62293,0.148364 -1.1998,-0.307671 -1.01113,-0.799332 0.12185,-0.31754 0.43783,-0.395017 1.29532,-0.317607 0.62379,0.05631 1.40205,0.11423 1.72947,0.128706 0.9467,0.04186 0.78568,0.996654 -0.19228,1.140189 -0.43318,0.06358 -0.92261,0.03215 -1.08762,-0.06983 z m -1.7812,-2.433098 c 0.0755,-0.531454 0.22645,-0.592164 1.40746,-0.565958 2.16496,0.04804 2.24895,0.07165 2.24895,0.632103 0,0.479266 -0.17639,0.529167 -1.87048,0.529167 -1.78842,0 -1.86677,-0.02612 -1.78593,-0.595312 z m 0.27951,-1.407246 c -0.74723,-0.546392 -0.0812,-0.907858 1.67273,-0.907858 1.62381,0 1.70417,0.03003 1.70417,0.63681 0,0.601021 -0.0834,0.634918 -1.48439,0.603137 -0.81642,-0.01852 -1.66805,-0.16796 -1.89251,-0.332089 z m -0.1382,-1.7927937 c -0.29828,-0.885853 0.0853,-1.100276 1.80825,-1.010718 1.57609,0.08192 1.70685,0.135087 1.70685,0.693925 0,0.567086 -0.10745,0.605749 -1.70608,0.613844 -1.06162,0.0054 -1.74498,-0.106835 -1.80902,-0.297051 z M 4.36559,8.0701183 c -0.75185,-0.269972 -0.94135,-0.486237 -1.0074,-1.149705 -0.0708,-0.711039 -0.0106,-0.798692 0.46302,-0.674824 0.29941,0.0783 0.54438,0.329516 0.54438,0.558265 0,0.324808 0.11816,0.289073 0.53947,-0.163151 0.29671,-0.318481 0.81404,-0.579057 1.14962,-0.579057 1.37863,0 2.05731,2.149277 0.7377,2.336206 -0.5597,0.07929 -0.58739,0.03396 -0.30341,-0.496669 0.24426,-0.456396 0.23955,-0.629004 -0.0215,-0.790372 -0.58284,-0.360216 -1.05278,0.01237 -0.88064,0.698212 0.17851,0.711252 0.087,0.730825 -1.22119,0.261095 z m 7.67582,-0.407601 C 9.40354,7.5361153 8.9897,7.4545353 8.91156,7.0455413 8.82786,6.6074793 9.14033,6.5763073 13.34042,6.6037183 l 4.51891,0.02949 v 0.64026 c 0,0.719296 0.44833,0.689316 -5.81792,0.389049 z"
       id="path1178" />
  </g>
</svg>
