<?xml version="1.0" encoding="UTF-8" standalone="no"?>
<!-- Created with Inkscape (http://www.inkscape.org/) -->

<svg
   width="45.000023"
   height="44.997173"
   viewBox="0 0 11.906255 11.905502"
   version="1.1"
   id="svg5"
   inkscape:version="1.1.1 (3bf5ae0d25, 2021-09-20)"
   sodipodi:docname="instagram.svg"
   xmlns:inkscape="http://www.inkscape.org/namespaces/inkscape"
   xmlns:sodipodi="http://sodipodi.sourceforge.net/DTD/sodipodi-0.dtd"
   xmlns="http://www.w3.org/2000/svg"
   xmlns:svg="http://www.w3.org/2000/svg">
  <sodipodi:namedview
     id="namedview7"
     pagecolor="#ffffff"
     bordercolor="#5858586"
     borderopacity="1.0"
     inkscape:pageshadow="2"
     inkscape:pageopacity="0.0"
     inkscape:pagecheckerboard="0"
     inkscape:document-units="mm"
     showgrid="false"
     units="px"
     width="793.70081px"
     fit-margin-top="0"
     fit-margin-left="0"
     fit-margin-right="0"
     fit-margin-bottom="0"
     inkscape:zoom="1.4681257"
     inkscape:cx="-17.709655"
     inkscape:cy="114.09105"
     inkscape:window-width="1920"
     inkscape:window-height="1009"
     inkscape:window-x="-8"
     inkscape:window-y="-8"
     inkscape:window-maximized="1"
     inkscape:current-layer="layer1"
     showguides="true" />
  <defs
     id="defs2" />
  <g
     inkscape:label="Слой 1"
     inkscape:groupmode="layer"
     id="layer1"
     transform="translate(-100.66107,-77.153283)">
    <path
       d="m 103.19083,88.940428 c -1.02886,-0.24227 -1.85801,-0.981086 -2.25961,-2.013453 -0.24264,-0.623708 -0.26146,-0.884071 -0.26946,-3.724912 -0.0103,-3.642034 0.085,-4.118582 1.00809,-5.043363 0.92656,-0.928273 1.30779,-1.005417 4.96848,-1.005417 2.72944,0 3.19343,0.02759 3.75522,0.223276 0.86846,0.302509 1.59078,1.020818 1.91795,1.907273 0.23732,0.643047 0.25583,0.922278 0.25583,3.858341 0,3.551126 -0.0888,4.046528 -0.86854,4.844969 -0.96207,0.985138 -1.43446,1.083908 -5.12034,1.070581 -1.61401,-0.0058 -3.13844,-0.05862 -3.38762,-0.117295 z m 7.18446,-1.238977 c 0.45501,-0.275289 0.78109,-0.695041 0.97362,-1.253314 0.1491,-0.432313 0.20437,-5.890845 0.0666,-6.579573 -0.11977,-0.59887 -0.78989,-1.279361 -1.44811,-1.470522 -0.80865,-0.234852 -6.00023,-0.236625 -6.68286,-0.0023 -0.62865,0.215809 -0.99882,0.558653 -1.28111,1.186561 -0.20758,0.461695 -0.23027,0.8066 -0.2286,3.473557 0.002,3.096051 0.0554,3.494058 0.55376,4.117548 0.25494,0.318997 0.62024,0.548998 1.12862,0.710595 0.16854,0.05358 1.70784,0.08658 3.42067,0.07334 2.8428,-0.02196 3.14761,-0.04427 3.4974,-0.255909 z m -4.64939,-1.670309 c -1.41284,-0.504873 -2.14573,-1.535374 -2.13927,-3.007956 0.007,-1.561184 1.18559,-2.79545 2.77854,-2.909426 0.97694,-0.0699 1.70453,0.166332 2.37335,0.770569 1.04141,0.940844 1.25823,2.654342 0.48781,3.854943 -0.77501,1.20774 -2.23156,1.745303 -3.50043,1.29187 z m 1.80832,-1.182134 c 0.78663,-0.401952 1.02055,-0.793183 1.02055,-1.706835 0,-0.584517 -0.0581,-0.83941 -0.25057,-1.099161 -0.9081,-1.225603 -2.51771,-1.185654 -3.38045,0.0839 -0.2366,0.34816 -0.27504,0.529467 -0.23465,1.106705 0.0563,0.804562 0.31443,1.220095 1.00227,1.613421 0.59705,0.341407 1.17734,0.342026 1.84285,0.0018 z m 1.861,-4.448841 c -0.35004,-0.350033 -0.37185,-0.517839 -0.11498,-0.884566 0.34862,-0.497734 1.25087,-0.271245 1.25087,0.314004 0,0.72184 -0.65541,1.051052 -1.13589,0.570562 z"
       style="fill:#5858580;stroke-width:0.0316912"
       id="path3799" />
  </g>
</svg>
