<?xml version="1.0" encoding="UTF-8" standalone="no"?>
<!-- Created with Inkscape (http://www.inkscape.org/) -->

<svg
   width="50"
   height="50"
   viewBox="0 0 13.229166 13.229167"
   version="1.1"
   id="svg5"
   inkscape:version="1.1.1 (3bf5ae0d25, 2021-09-20)"
   sodipodi:docname="jp.svg"
   xmlns:inkscape="http://www.inkscape.org/namespaces/inkscape"
   xmlns:sodipodi="http://sodipodi.sourceforge.net/DTD/sodipodi-0.dtd"
   xmlns="http://www.w3.org/2000/svg"
   xmlns:svg="http://www.w3.org/2000/svg">
  <sodipodi:namedview
     id="namedview7"
     pagecolor="#ffffff"
     bordercolor="#666666"
     borderopacity="1.0"
     inkscape:pageshadow="2"
     inkscape:pageopacity="0.0"
     inkscape:pagecheckerboard="0"
     inkscape:document-units="mm"
     showgrid="false"
     units="px"
     width="50px"
     inkscape:zoom="8.3049731"
     inkscape:cx="19.024746"
     inkscape:cy="41.721989"
     inkscape:window-width="1920"
     inkscape:window-height="1009"
     inkscape:window-x="-8"
     inkscape:window-y="-8"
     inkscape:window-maximized="1"
     inkscape:current-layer="layer1" />
  <defs
     id="defs2" />
  <g
     inkscape:label="Слой 1"
     inkscape:groupmode="layer"
     id="layer1">
    <path
       style="fill:#000000;stroke-width:0.264583"
       id="path2682"
       d="" />
    <path
       style="fill:#304ffe;fill-opacity:1;stroke-width:0.0599792"
       d="M 6.0290369,13.07704 C 5.979554,13.065074 5.7366387,13.022376 5.4892251,12.982157 3.9269334,12.728188 2.4554765,11.822343 1.4603053,10.50191 -0.92636399,7.3351813 0.08152978,2.7492604 3.5766946,0.87233014 4.5723861,0.33763625 5.4252114,0.12950238 6.6288278,0.12744997 7.5831499,0.12581337 8.2482084,0.24735356 9.0332292,0.56682297 11.848966,1.7127057 13.501759,4.6370095 13.018312,7.6176759 12.583577,10.298015 10.59065,12.387798 7.9214763,12.96221 7.5269057,13.04712 6.2305908,13.125781 6.0290369,13.07704 Z m 0.2779724,-1.620958 c 0.6608929,-0.224873 1.0903714,-0.719121 1.2203235,-1.40436 0.035524,-0.1873174 0.061161,-1.3875969 0.061161,-2.8634487 V 4.6473252 H 6.7187965 5.8490996 l -0.00716,1.6044555 C 5.8276658,9.4463784 5.8197317,9.6599513 5.7090383,9.828893 5.5749396,10.033555 5.2198758,10.20929 4.8381562,10.259927 l -0.3085969,0.04094 v 0.659289 0.65929 l 0.7347439,-0.02929 c 0.4710106,-0.01878 0.8452863,-0.06691 1.0427061,-0.134074 z M 6.73348,4.0930325 C 7.4329394,3.8224823 7.593311,3.7151134 7.7308328,3.4253043 7.8202284,3.2369151 7.8708773,2.6080177 7.7966535,2.6080177 c -0.017466,0 -0.4628108,0.165571 -0.9896551,0.3679357 L 5.8490996,3.343889 v 0.5358008 c 0,0.6223594 -0.1065847,0.5966475 0.8843804,0.2133427 z M 6.8859281,2.6602553 C 7.4207871,2.4580644 7.9423202,2.2301659 8.0448906,2.153814 8.3049521,1.9602281 8.4383611,1.651028 8.416319,1.2929614 L 8.3982105,0.99881766 7.1236546,1.4820351 5.849099,1.9652522 v 0.5313115 c 0,0.2922212 0.014482,0.5313114 0.032179,0.5313114 0.017698,0 0.4697906,-0.165429 1.0046501,-0.3676198 z"
       id="path4309" />
  </g>
</svg>
