<?xml version="1.0" encoding="UTF-8" standalone="no"?>
<!-- Created with Inkscape (http://www.inkscape.org/) -->

<svg
   width="44.952492"
   height="44.926762"
   viewBox="0 0 11.89368 11.886873"
   version="1.1"
   id="svg5"
   inkscape:version="1.1.1 (3bf5ae0d25, 2021-09-20)"
   sodipodi:docname="language.svg"
   xmlns:inkscape="http://www.inkscape.org/namespaces/inkscape"
   xmlns:sodipodi="http://sodipodi.sourceforge.net/DTD/sodipodi-0.dtd"
   xmlns="http://www.w3.org/2000/svg"
   xmlns:svg="http://www.w3.org/2000/svg">
  <sodipodi:namedview
     id="namedview7"
     pagecolor="#ffffff"
     bordercolor="#ffd5e6"
     borderopacity="1.0"
     inkscape:pageshadow="2"
     inkscape:pageopacity="0.0"
     inkscape:pagecheckerboard="0"
     inkscape:document-units="mm"
     showgrid="false"
     units="px"
     width="50px"
     fit-margin-top="0"
     fit-margin-left="0"
     fit-margin-right="0"
     fit-margin-bottom="0"
     inkscape:zoom="4.1524866"
     inkscape:cx="34.678017"
     inkscape:cy="31.908592"
     inkscape:window-width="1920"
     inkscape:window-height="1009"
     inkscape:window-x="-8"
     inkscape:window-y="-8"
     inkscape:window-maximized="1"
     inkscape:current-layer="layer1" />
  <defs
     id="defs2" />
  <g
     inkscape:label="Слой 1"
     inkscape:groupmode="layer"
     id="layer1"
     transform="translate(-0.51993336,-0.14889958)">
    <path
       style="fill:#585858;stroke-width:0.0320692"
       d="M 5.602312,11.998278 C 4.519069,11.823377 3.5120019,11.377666 2.6952677,10.711667 2.3709449,10.447203 1.8434528,9.8837427 1.6026467,9.5445448 1.3530651,9.192987 1.0193063,8.5592547 0.87697725,8.1666649 0.62652399,7.4758346 0.52083418,6.8680206 0.51994384,6.1134002 0.51923029,5.5081319 0.55478743,5.1938931 0.68257204,4.6761864 1.2185131,2.5048775 2.8912715,0.84256897 5.0892065,0.29708014 5.9099541,0.09338454 7.0652439,0.10032299 7.9097678,0.31401821 8.5652929,0.4798904 9.3936322,0.85885534 9.9145171,1.2311919 10.255292,1.4747817 10.81904,2.0032609 11.08164,2.3252956 c 0.603922,0.7406091 1.048487,1.6912124 1.240365,2.6522462 0.09792,0.4904281 0.121715,1.3967543 0.05005,1.9063579 -0.357174,2.5400211 -2.207768,4.5238283 -4.7150947,5.0545043 -0.3288046,0.06958 -0.4908281,0.08378 -1.0765447,0.0942 -0.5009677,0.0089 -0.7684007,-4.62e-4 -0.9781084,-0.03432 z m 1.2501035,-1.104535 c 0.2687538,-0.024 0.32907,-0.03965 0.3760275,-0.09764 C 7.325881,10.67577 7.7547647,9.7989793 7.8793225,9.4654707 8.0094732,9.1169853 8.1518069,8.661744 8.1518069,8.5939537 c 0,-0.034656 -0.2937984,-0.042455 -1.5998649,-0.042455 H 4.9520777 l 0.09216,0.3156614 c 0.1705503,0.5841568 0.409226,1.1491209 0.709366,1.6791199 l 0.194369,0.343223 0.1638948,0.01163 c 0.312381,0.02216 0.4219944,0.02107 0.7405476,-0.0074 z M 4.3215349,10.223811 C 4.1361054,9.7832498 3.9768842,9.2930077 3.8226645,8.6877882 L 3.7879344,8.5514946 H 3.0641846 c -0.8366906,0 -0.7860935,-0.037095 -0.4989424,0.3658371 0.2344419,0.3289736 0.7551012,0.8496637 1.0822718,1.0823363 0.2511629,0.178619 0.7235988,0.451133 0.744997,0.429736 0.00602,-0.006 -0.025917,-0.09853 -0.070976,-0.205593 z M 9.3383648,9.9697448 C 9.6789173,9.7195422 10.185155,9.1956496 10.42246,8.8478413 L 10.624653,8.5514946 H 9.9827455 9.3408368 l -0.03473,0.1362936 C 9.1887879,9.1481941 9.057543,9.5767829 8.9343064,9.9019321 8.8566918,10.106714 8.7931889,10.284867 8.7931889,10.297827 c 0,0.03581 0.2758177,-0.130188 0.5451759,-0.3280822 z M 3.5742203,7.2126093 C 3.5608366,7.1111905 3.5498882,6.5555911 3.5498882,5.9779421 V 4.9276735 l -0.8726474,5.5e-6 -0.8726474,4.5e-6 -0.03111,0.1202598 C 1.6213815,5.6359235 1.6353389,6.683572 1.8031782,7.2767468 l 0.034028,0.1202587 h 0.8806742 0.8806735 z m 4.8471628,-0.024052 c 0.036876,-0.2420069 0.044021,-1.9038748 0.00906,-2.1085459 L 8.4044322,4.9276846 H 6.5661604 4.7278899 l -0.019977,0.088196 C 4.6632491,5.21303 4.648189,6.4928065 4.6855746,6.9137834 c 0.021041,0.236908 0.045626,0.4426698 0.054638,0.4572498 0.009,0.014582 0.8343634,0.022792 1.8341175,0.018236 l 1.8177347,-0.00824 z M 11.1728,7.1244242 C 11.308362,6.489412 11.314612,5.7483646 11.18956,5.1361393 l -0.0393,-0.1924149 -0.785693,-0.00857 -0.7856932,-0.00857 v 1.0508112 c 0,0.5779452 -0.010985,1.1340427 -0.024402,1.2357701 l -0.024395,0.1849576 0.7939712,-0.00857 0.793973,-0.00857 z M 3.7892188,3.6369074 C 3.9422221,3.0116789 4.147421,2.3806388 4.3855214,1.8031207 4.4060528,1.7533222 4.361147,1.7680439 4.1568589,1.8780841 3.4392826,2.2646099 2.7510367,2.9288312 2.3178081,3.6529412 L 2.2458576,3.7731999 H 3.0008615 3.755865 Z M 8.1467649,3.5406944 C 7.9610118,2.8683942 7.7251407,2.2818628 7.4062138,1.6991901 7.2331215,1.3829534 7.1985437,1.3388179 7.111724,1.3232943 6.8905313,1.283744 6.4147545,1.2647665 6.1847622,1.286319 L 5.9395965,1.3092904 5.7586414,1.6288842 C 5.4416862,2.1886722 5.1711082,2.8470149 4.997301,3.4812969 L 4.917315,3.7731933 h 1.6468448 1.646845 z m 2.4571281,0.080175 C 10.262674,3.0266299 9.5376993,2.3027258 8.9395823,1.9590138 8.8005058,1.8790914 8.7844666,1.8756607 8.8072792,1.9307107 8.9545726,2.2861701 9.1717971,2.9372857 9.2678673,3.3112868 l 0.1186009,0.4617182 0.6524468,9.58e-5 0.652448,9.7e-5 z"
       id="path854" />
  </g>
</svg>
