<?xml version="1.0" encoding="UTF-8" standalone="no"?>
<!-- Created with Inkscape (http://www.inkscape.org/) -->

<svg
   width="50"
   height="50"
   viewBox="0 0 13.229166 13.229167"
   version="1.1"
   id="svg5"
   inkscape:version="1.1.1 (3bf5ae0d25, 2021-09-20)"
   sodipodi:docname="np.svg"
   xmlns:inkscape="http://www.inkscape.org/namespaces/inkscape"
   xmlns:sodipodi="http://sodipodi.sourceforge.net/DTD/sodipodi-0.dtd"
   xmlns="http://www.w3.org/2000/svg"
   xmlns:svg="http://www.w3.org/2000/svg">
  <sodipodi:namedview
     id="namedview7"
     pagecolor="#ffffff"
     bordercolor="#666666"
     borderopacity="1.0"
     inkscape:pageshadow="2"
     inkscape:pageopacity="0.0"
     inkscape:pagecheckerboard="0"
     inkscape:document-units="mm"
     showgrid="false"
     units="px"
     width="50px"
     inkscape:zoom="8.3049731"
     inkscape:cx="34.918837"
     inkscape:cy="31.727978"
     inkscape:window-width="1920"
     inkscape:window-height="1009"
     inkscape:window-x="-8"
     inkscape:window-y="-8"
     inkscape:window-maximized="1"
     inkscape:current-layer="layer1" />
  <defs
     id="defs2" />
  <g
     inkscape:label="Слой 1"
     inkscape:groupmode="layer"
     id="layer1">
    <path
       style="fill:#ed1c24;fill-opacity:1;stroke-width:0.0299057"
       d="M 6.4890583,12.99157 C 6.350506,12.92903 3.9495111,10.508859 3.9708466,10.453256 c 0.014776,-0.0385 0.1159324,-0.04717 0.6449783,-0.05534 0.616765,-0.0095 0.6287678,-0.0109 0.7046083,-0.0822 0.042436,-0.0399 0.090518,-0.120644 0.1068479,-0.179433 0.016876,-0.06075 0.029764,-0.5331093 0.029861,-1.0945935 2.263e-4,-1.1017544 -0.00147,-1.0924523 0.2029129,-1.1492106 0.1468021,-0.040768 1.7799556,-0.040887 1.9266822,-1.243e-4 0.060926,0.016925 0.1383133,0.065767 0.1719577,0.1085359 0.058848,0.074811 0.061172,0.1156468 0.061172,1.0765286 0,1.3857249 -0.049421,1.3041029 0.8027064,1.3258009 0.5417372,0.0138 0.5880433,0.01926 0.5978461,0.07045 0.00763,0.03992 -0.3325219,0.399291 -1.2102197,1.278622 -0.6714668,0.672715 -1.24804,1.230839 -1.2812768,1.24028 -0.033231,0.0094 -0.080615,0.02218 -0.1052873,0.02833 -0.024676,0.0062 -0.085231,-0.0071 -0.1345765,-0.02934 z M 2.626066,9.1988606 C 2.5118245,9.1342891 0.13460859,6.7030186 0.12950661,6.6455372 c -0.002695,-0.0304 -0.002773,-0.084799 -1.6953e-4,-0.1208887 0.005047,-0.069942 2.44393152,-2.5182418 2.54697842,-2.5568133 0.03223,-0.012064 0.068605,-0.00451 0.087446,0.018218 0.022664,0.027313 0.029988,0.8118605 0.024619,2.6369794 -0.00827,2.8162343 0.00102,2.6681705 -0.1623164,2.5758289 z m 7.854998,-0.097626 c -0.0469,-0.1233622 -0.02596,-5.0235917 0.0217,-5.0712153 0.03922,-0.0392 0.263414,0.168919 1.783038,1.6551482 0.736631,0.7204432 0.773336,0.761634 0.789392,0.8858676 l 0.01683,0.1302925 -1.249453,1.2304077 c -0.687198,0.6767247 -1.2678,1.2347519 -1.290228,1.2400606 -0.02242,0.00529 -0.0545,-0.02644 -0.07127,-0.070558 z M 5.5447263,5.1720585 5.4573103,5.0846436 V 4.1393581 c 0,-1.0316743 -0.00931,-1.0986039 -0.1680418,-1.2027101 C 5.2171615,2.889343 5.1192752,2.879976 4.5619086,2.86704 3.9624981,2.853124 3.9171233,2.848204 3.9071294,2.79604 3.8925824,2.720111 6.2827428,0.3231199 6.4467556,0.24916099 6.6874583,0.14061919 6.6600664,0.11964739 8.0195363,1.4533293 c 0.7208999,0.707225 1.2445383,1.2436974 1.2551283,1.2858889 0.00999,0.039817 0.00638,0.083799 -0.00804,0.097735 -0.014426,0.013934 -0.295373,0.02987 -0.6243365,0.035398 -0.6562688,0.011035 -0.6957079,0.020835 -0.7775595,0.1933237 -0.036927,0.07782 -0.044855,0.2617623 -0.044855,1.0414595 0,0.5922839 -0.011535,0.9684953 -0.030792,1.0044817 C 7.7145828,5.2508085 7.6452775,5.2594852 6.6078759,5.2594852 H 5.6321504 Z"
       id="path854" />
  </g>
</svg>
