<?xml version="1.0" encoding="UTF-8" standalone="no"?>
<!-- Created with Inkscape (http://www.inkscape.org/) -->

<svg
   width="13.229177mm"
   height="13.229165mm"
   viewBox="0 0 13.229178 13.229165"
   version="1.1"
   id="svg5"
   inkscape:version="1.1.1 (3bf5ae0d25, 2021-09-20)"
   sodipodi:docname="open_mobile_menu.svg"
   xmlns:inkscape="http://www.inkscape.org/namespaces/inkscape"
   xmlns:sodipodi="http://sodipodi.sourceforge.net/DTD/sodipodi-0.dtd"
   xmlns="http://www.w3.org/2000/svg"
   xmlns:svg="http://www.w3.org/2000/svg">
  <sodipodi:namedview
     id="namedview7"
     pagecolor="#ffffff"
     bordercolor="#ffd5e6"
     borderopacity="1.0"
     inkscape:pageshadow="2"
     inkscape:pageopacity="0.0"
     inkscape:pagecheckerboard="0"
     inkscape:document-units="mm"
     showgrid="false"
     fit-margin-top="0"
     fit-margin-left="0"
     fit-margin-right="0"
     fit-margin-bottom="0"
     inkscape:zoom="5.8725028"
     inkscape:cx="1.3622812"
     inkscape:cy="3.6611307"
     inkscape:window-width="1920"
     inkscape:window-height="1009"
     inkscape:window-x="-8"
     inkscape:window-y="-8"
     inkscape:window-maximized="1"
     inkscape:current-layer="layer1" />
  <defs
     id="defs2" />
  <g
     inkscape:label="Слой 1"
     inkscape:groupmode="layer"
     id="layer1"
     transform="translate(-184.37759,-29.48172)">
    <path
       style="fill:#73aadb;stroke-width:0.0126121"
       d="m 185.19081,40.914728 c -0.20513,-0.03221 -0.37274,-0.115084 -0.52467,-0.259406 -0.19717,-0.18729 -0.28855,-0.402071 -0.28855,-0.678214 0,-0.201482 0.0397,-0.343289 0.14091,-0.503836 0.0513,-0.08141 0.17646,-0.213815 0.25157,-0.266218 0.075,-0.05234 0.21313,-0.119422 0.30092,-0.146157 0.0727,-0.02215 0.29989,-0.02319 5.86466,-0.02666 3.97699,-0.0025 5.81595,5.1e-4 5.87513,0.0096 0.37585,0.05746 0.68253,0.340829 0.77901,0.719812 0.0226,0.08888 0.0226,0.338129 0,0.427006 -0.0447,0.175465 -0.12332,0.315004 -0.25153,0.446255 -0.10639,0.108911 -0.22803,0.185068 -0.3803,0.238112 l -0.11982,0.04174 -5.8079,0.0015 c -3.19435,8.15e-4 -5.82209,-7.44e-4 -5.83943,-0.0035 z m 0,-3.783649 c -0.20513,-0.03221 -0.37274,-0.115084 -0.52467,-0.259406 -0.19717,-0.18729 -0.28855,-0.402071 -0.28855,-0.678214 0,-0.201482 0.0397,-0.343289 0.14091,-0.503836 0.0513,-0.08141 0.17646,-0.213815 0.25157,-0.266218 0.075,-0.05234 0.21313,-0.119422 0.30092,-0.146157 0.0727,-0.02215 0.29989,-0.02318 5.86466,-0.02666 3.97699,-0.0025 5.81595,5.1e-4 5.87513,0.0096 0.37585,0.05746 0.68253,0.340829 0.77901,0.719811 0.0226,0.08888 0.0226,0.33813 0,0.427006 -0.0447,0.175464 -0.12332,0.315004 -0.25153,0.446255 -0.10639,0.108911 -0.22803,0.185068 -0.3803,0.238112 l -0.11982,0.04174 -5.8079,0.0015 c -3.19435,8.15e-4 -5.82209,-7.44e-4 -5.83943,-0.0035 z m 0,-3.783649 c -0.20513,-0.03221 -0.37274,-0.115083 -0.52467,-0.259406 -0.19717,-0.18729 -0.28855,-0.402071 -0.28855,-0.678214 0,-0.201483 0.0397,-0.343289 0.14091,-0.503836 0.0513,-0.08141 0.17646,-0.213815 0.25157,-0.266218 0.075,-0.05234 0.21313,-0.119422 0.30092,-0.146157 0.0727,-0.02215 0.29989,-0.02319 5.86466,-0.02666 3.97699,-0.0025 5.81595,5.08e-4 5.87513,0.0096 0.37585,0.05746 0.68253,0.34083 0.77901,0.719812 0.0226,0.08888 0.0226,0.33813 0,0.427006 -0.0447,0.175464 -0.12332,0.315004 -0.25153,0.446255 -0.10639,0.10891 -0.22803,0.185069 -0.3803,0.238112 l -0.11982,0.04174 -5.8079,0.0015 c -3.19435,8.16e-4 -5.82209,-7.46e-4 -5.83943,-0.0035 z"
       id="path854" />
  </g>
</svg>
