<?xml version="1.0" encoding="UTF-8" standalone="no"?>
<!-- Created with Inkscape (http://www.inkscape.org/) -->

<svg
   width="50.000099"
   height="46.364597"
   viewBox="0 0 13.229192 12.2673"
   version="1.1"
   id="svg5"
   inkscape:version="1.1.1 (3bf5ae0d25, 2021-09-20)"
   sodipodi:docname="shopping_cart.svg"
   xmlns:inkscape="http://www.inkscape.org/namespaces/inkscape"
   xmlns:sodipodi="http://sodipodi.sourceforge.net/DTD/sodipodi-0.dtd"
   xmlns="http://www.w3.org/2000/svg"
   xmlns:svg="http://www.w3.org/2000/svg">
  <sodipodi:namedview
     id="namedview7"
     pagecolor="#ffffff"
     bordercolor="#666666"
     borderopacity="1.0"
     inkscape:pageshadow="2"
     inkscape:pageopacity="0.0"
     inkscape:pagecheckerboard="0"
     inkscape:document-units="mm"
     showgrid="false"
     units="px"
     width="793.70081px"
     fit-margin-top="0"
     fit-margin-left="0"
     fit-margin-right="0"
     fit-margin-bottom="0"
     inkscape:zoom="5.8725029"
     inkscape:cx="-10.217109"
     inkscape:cy="6.5559781"
     inkscape:window-width="1920"
     inkscape:window-height="1009"
     inkscape:window-x="-8"
     inkscape:window-y="-8"
     inkscape:window-maximized="1"
     inkscape:current-layer="layer1"
     showguides="false" />
  <defs
     id="defs2" />
  <g
     inkscape:label="Слой 1"
     inkscape:groupmode="layer"
     id="layer1"
     transform="translate(-100.70964,-77.244741)">
    <path
       style="fill:#000000;stroke-width:0.0325816"
       d="m 105.84362,89.481986 c -0.29931,-0.08391 -0.59202,-0.373582 -0.67334,-0.666352 -0.12457,-0.448525 0.0906,-0.94286 0.50228,-1.153923 0.18411,-0.09439 0.54495,-0.114952 0.76055,-0.04334 0.21973,0.07298 0.43844,0.271669 0.55071,0.500284 0.0764,0.155658 0.0911,0.226254 0.0894,0.430548 -0.002,0.277547 -0.0874,0.484547 -0.28017,0.681171 -0.22533,0.22983 -0.63751,0.339059 -0.94947,0.251611 z m 4.95357,0.01098 c -0.43584,-0.108958 -0.74483,-0.48915 -0.75142,-0.924574 -0.006,-0.404283 0.18281,-0.71926 0.53784,-0.896668 0.5944,-0.297024 1.28907,0.06177 1.39304,0.719496 0.0882,0.557683 -0.31262,1.066169 -0.88015,1.116693 -0.0971,0.0086 -0.23183,0.0019 -0.29931,-0.01495 z m -5.37391,-2.994152 c -0.10218,-0.03267 -0.25051,-0.09734 -0.32962,-0.143697 -0.18267,-0.107055 -0.44985,-0.398223 -0.54414,-0.592999 -0.04,-0.08268 -0.5539,-1.786263 -1.14195,-3.785736 -0.58804,-1.999474 -1.09249,-3.658773 -1.121,-3.687333 -0.0425,-0.04257 -0.16273,-0.05486 -0.66759,-0.06822 -0.55675,-0.01473 -0.62454,-0.02276 -0.70757,-0.08377 -0.29746,-0.218584 -0.25933,-0.66857 0.0702,-0.828077 0.13998,-0.06776 0.18144,-0.0709 0.7749,-0.05865 0.5562,0.01148 0.64816,0.02128 0.81425,0.08675 0.22807,0.0899 0.50149,0.332076 0.61744,0.546872 0.0468,0.08672 0.22814,0.645176 0.40296,1.241012 l 0.31786,1.083339 h 4.85105 c 5.30773,0 4.96015,-0.0128 5.1031,0.187952 0.14167,0.198951 0.14916,0.162066 -0.5623,2.768653 -0.36804,1.348374 -0.70457,2.521312 -0.74785,2.606528 -0.17278,0.340155 -0.49852,0.612806 -0.87041,0.728552 -0.18866,0.05872 -0.34157,0.06164 -3.13592,0.05997 -2.75019,-0.0016 -2.94944,-0.0055 -3.12338,-0.06116 z"
       id="path1069"
       sodipodi:nodetypes="ccsccccccccscccccccccccccccccssccsccc" />
  </g>
</svg>
