<?xml version="1.0" encoding="UTF-8" standalone="no"?>
<!-- Created with Inkscape (http://www.inkscape.org/) -->

<svg
   width="115"
   height="106"
   viewBox="0 0 30.427083 28.045834"
   version="1.1"
   id="svg37189"
   inkscape:version="1.1.1 (3bf5ae0d25, 2021-09-20)"
   sodipodi:docname="smile.svg"
   xmlns:inkscape="http://www.inkscape.org/namespaces/inkscape"
   xmlns:sodipodi="http://sodipodi.sourceforge.net/DTD/sodipodi-0.dtd"
   xmlns="http://www.w3.org/2000/svg"
   xmlns:svg="http://www.w3.org/2000/svg">
  <sodipodi:namedview
     id="namedview37191"
     pagecolor="#ffffff"
     bordercolor="#666666"
     borderopacity="1.0"
     inkscape:pageshadow="2"
     inkscape:pageopacity="0.0"
     inkscape:pagecheckerboard="0"
     inkscape:document-units="mm"
     showgrid="false"
     units="px"
     inkscape:zoom="4.1524866"
     inkscape:cx="22.396219"
     inkscape:cy="73.570376"
     inkscape:window-width="1920"
     inkscape:window-height="1009"
     inkscape:window-x="-8"
     inkscape:window-y="-8"
     inkscape:window-maximized="1"
     inkscape:current-layer="layer1"
     width="110px" />
  <defs
     id="defs37186" />
  <g
     inkscape:label="Слой 1"
     inkscape:groupmode="layer"
     id="layer1">
    <path
       d="m 11.725133,27.679304 c -1.7526804,-0.39212 -4.2245704,-1.67752 -5.5549704,-2.88858 -1.38933,-1.26473 -2.66623,-3.13498 -3.21279,-4.70573 -0.35919,-1.03228 -0.49696,-1.19037 -1.2075,-1.38565 -0.80423001,-0.22105 -1.69187001,-1.10494 -1.69187001,-1.68476 0,-0.55831 0.72524,-1.45445 1.41520001,-1.74871 0.58614,-0.24997 0.71416,-0.46045 0.9568,-1.57306 0.89657,-4.1110208 3.49692,-7.4588407 7.2545,-9.3397407 1.5470004,-0.77437 4.3264004,-1.56411 5.5046404,-1.56411 0.46865,0 0.67688,-0.55751 0.68141,-1.82437006 0.002,-0.45609 0.0904,-0.82926 0.19716,-0.82926 0.35311,0 1.49502,1.50361006 1.63463,2.15238006 0.12284,0.57088 0.26959,0.66522 1.40831,0.90528 2.07157,0.43674 4.25788,1.69411 6.00351,3.45271 2.05953,2.0748199 3.03317,4.1456297 3.43722,7.3105907 0.118,0.92425 0.25368,1.17872 0.82695,1.55087 0.54354,0.35286 0.69999,0.62109 0.75429,1.29322 0.0835,1.03306 -0.34764,1.59115 -1.50169,1.94407 -0.61863,0.18918 -0.87821,0.41854 -1.05303,0.9304 -0.42479,1.24378 -2.00707,3.47045 -3.30413,4.64975 -3.36457,3.0591 -8.1508,4.33863 -12.54864,3.3547 z m 6.63985,-0.86551 c 4.25924,-1.17103 8.03709,-4.9361 9.12907,-9.0982 0.37272,-1.42064 0.37183,-4.11313 -0.002,-5.52839 -0.54121,-2.049801 -1.26488,-3.2791508 -2.93973,-4.9938207 -1.70072,-1.74118 -3.17775,-2.63482 -5.3209,-3.21924 -1.39585,-0.38064 -1.3394,-0.38953 -1.49301,0.23515 -0.19345,0.78674 -1.17788,1.8974 -1.5519,1.75091 -0.24722,-0.0968 -0.17403,-0.28929 0.33521,-0.88129 0.71234,-0.8281 0.85984,-1.94676 0.40937,-3.10482 l -0.24223,-0.6225101 -0.35366,0.9951001 c -0.49094,1.38143 -0.831,1.93956 -1.35679,2.22678 -0.65804,0.35945 -1.08117,-0.11312 -0.50177,-0.5604 0.40708,-0.31424 0.40263,-0.32574 -0.1286,-0.33253 -2.37536,-0.0304 -6.6643304,2.28757 -8.5490804,4.6202499 -4.43185,5.4851308 -3.50733,12.9942808 2.06771,16.7942008 1.47975,1.0086 3.2894704,1.76373 4.8651104,2.03006 1.37637,0.23263 4.22778,0.0751 5.63292,-0.31125 z m -4.68349,-1.55798 c -1.9934,-0.71492 -3.22426,-2.14867 -3.22426,-3.75575 v -0.79915 h 4.87464 c 2.68105,0 4.87464,0.0317 4.87464,0.0704 0,0.67248 -0.79307,2.41664 -1.34813,2.96489 -1.38182,1.36485 -3.70605,2.04709 -5.17689,1.51958 z m 2.4225,-0.71061 c 1.25445,-0.4188 2.7836,-1.7445 2.85851,-2.47816 l 0.0524,-0.51353 -3.87127,0.005 c -2.12919,0.003 -3.91828,0.0534 -3.97574,0.11201 -0.0575,0.0587 0.11937,0.51315 0.39296,1.01001 0.37319,0.67774 0.82017,1.06798 1.78967,1.56248 1.51361,0.77201 1.38673,0.75811 2.75343,0.30183 z m -6.7142904,-5.75376 c -1.05372,-1.36733 0.0418,-4.44906 1.3934104,-3.91966 0.48614,0.19041 0.75738,1.00445 0.75738,2.27307 0,0.8176 -0.12111,1.19237 -0.53128,1.64412 -0.66956,0.73742 -1.0526704,0.738 -1.6195104,0.002 z m 5.1964304,0.26638 c -0.20536,-0.25257 -0.16992,-0.36393 0.17589,-0.55284 0.57975,-0.3167 1.00837,-0.29813 1.29645,0.0562 0.17381,0.21377 0.16928,0.3629 -0.0168,0.55284 -0.35011,0.35737 -1.1442,0.32672 -1.45553,-0.0562 z m 5.31972,-0.0986 c -1.1329,-1.27775 -0.23499,-4.44623 1.15487,-4.07525 0.86666,0.23133 1.20062,2.58516 0.51241,3.61163 -0.66476,0.99151 -1.09352,1.11073 -1.66728,0.46362 z M 2.2245126,16.941574 c 0,-0.60812 -0.0758,-1.10567 -0.16845,-1.10567 -0.39331,0 -1.13146001,0.72132 -1.13146001,1.10567 0,0.38435 0.73815001,1.10568 1.13146001,1.10568 0.0927,0 0.16845,-0.49756 0.16845,-1.10568 z m 26.8733404,0.70072 c 0.37928,-0.31348 0.45718,-0.53828 0.34484,-0.99511 -0.18734,-0.7619 -1.00199,-0.83685 -1.0064,-0.0926 -0.002,0.27365 -0.0618,0.72145 -0.13361,0.9951 -0.15834,0.6031 0.13603,0.63738 0.79517,0.0926 z"
       style="fill:#000000;stroke-width:0.0579123"
       id="path27086" />
    <path
       style="fill:#fef0eb;fill-opacity:1;stroke:#000000;stroke-width:0.268;stroke-miterlimit:4;stroke-dasharray:none;stroke-opacity:0"
       d="m 12.600363,27.049894 c -2.46668,-0.47547 -5.2382004,-2.0487 -6.8133204,-3.86752 -2.80214,-3.2357 -3.4878,-7.43343 -1.88416,-11.53504 0.41544,-1.062551 1.19122,-2.3780908 1.94968,-3.3062108 1.7723,-2.1687299 5.7580904,-4.4190699 8.0949604,-4.5703499 l 0.72535,-0.0469 -0.25534,0.27226 c -0.16603,0.17703 -0.24482,0.34657 -0.22527,0.48473 0.0265,0.18703 0.0763,0.21151 0.4163,0.20445 0.31089,-0.006 0.44865,-0.068 0.70624,-0.31538 0.38469,-0.36948 0.58376,-0.74109 1.03359,-1.92933 l 0.34112,-0.90109 0.14125,0.33664 c 0.34105,0.81279 0.38812,1.76057 0.11884,2.39279 -0.0572,0.1343 -0.30305,0.51833 -0.54633,0.8534 -0.45636,0.62854 -0.49674,0.87758 -0.14229,0.87758 0.4562,0 1.30438,-0.99897 1.51625,-1.78581 0.0572,-0.21236 0.16098,-0.40798 0.23067,-0.43472 0.17835,-0.0684 1.9275,0.43406 2.81477,0.80862 1.23618,0.52186 2.18971,1.21841 3.58631,2.61976 1.68283,1.6885499 2.2998,2.6430199 2.86106,4.4261007 0.35768,1.13636 0.45116,2.02696 0.39987,3.80977 -0.0358,1.24317 -0.0883,1.74938 -0.23853,2.29664 -1.23258,4.49108 -5.55033,8.45166 -10.05029,9.21891 -1.13497,0.19351 -3.96854,0.2473 -4.78073,0.0907 z m 4.09241,-1.93686 c 1.38612,-0.50935 2.29517,-1.24653 2.86867,-2.32633 0.32752,-0.61665 0.65315,-1.5494 0.65315,-1.87092 v -0.22811 h -4.92429 -4.92429 l 0.053,0.81753 c 0.0694,1.07108 0.39001,1.78476 1.12481,2.50376 0.51246,0.50144 1.50565,1.09717 2.22542,1.33483 0.63325,0.2091 2.02563,0.0992 2.92357,-0.23076 z m -5.73765,-6.20541 c 0.52108,-0.50627 0.63959,-0.92247 0.59194,-2.07893 -0.0658,-1.59746 -0.53694,-2.27894 -1.37512,-1.98914 -1.0678104,0.36919 -1.6074504,2.68147 -0.8961204,3.83974 0.32135,0.52327 0.7552604,0.77664 1.1048504,0.64515 0.13051,-0.0491 0.38901,-0.23666 0.57445,-0.41682 z m 4.77921,0.43596 c 0.27706,-0.10534 0.51545,-0.34292 0.51545,-0.51368 0,-0.0731 -0.0995,-0.23236 -0.22117,-0.354 -0.27802,-0.27802 -0.72976,-0.29136 -1.2297,-0.0363 -0.3053,0.15576 -0.35796,0.22318 -0.33432,0.42802 0.0473,0.40969 0.75062,0.67334 1.26975,0.47597 z m 5.41821,-0.27995 c 0.59055,-0.54434 0.80934,-1.12193 0.80134,-2.11549 -0.004,-0.51635 -0.0607,-0.95784 -0.15554,-1.2152 -0.59196,-1.60586 -2.07516,-0.96548 -2.39456,1.03385 -0.20765,1.29985 0.39472,2.63765 1.19579,2.65574 0.0878,0.002 0.33667,-0.15952 0.55297,-0.3589 z"
       id="path30409" />
    <path
       style="fill:#fef0eb;fill-opacity:1;stroke:#000000;stroke-width:0.0681141;stroke-miterlimit:4;stroke-dasharray:none;stroke-opacity:0"
       d="m 28.323823,17.871764 c -0.002,-0.31461 0.22163,-1.56914 0.29671,-1.66703 0.25615,-0.33394 0.78722,0.13307 0.78234,0.68798 -0.003,0.38475 -0.10542,0.5366 -0.57437,0.85484 -0.38753,0.26298 -0.50379,0.29159 -0.50468,0.12421 z"
       id="path30448" />
    <path
       style="fill:#fef0eb;fill-opacity:1;stroke:#000000;stroke-width:0.0681141;stroke-miterlimit:4;stroke-dasharray:none;stroke-opacity:0"
       d="m 1.5154626,17.700694 c -0.17772,-0.15604 -0.37944,-0.39261 -0.44827,-0.52571 -0.11037001,-0.21343 -0.10600001,-0.2735 0.037,-0.5086 0.19088,-0.31387 0.69221,-0.7545 0.85844,-0.7545 0.0646,0 0.14134,0.15055 0.17231,0.33791 0.12371,0.74844 0.0236,1.7346 -0.17609,1.7346 -0.0661,0 -0.26564,-0.12766 -0.44336,-0.2837 z"
       id="path30487" />
    <path
       style="fill:#fcb4ca;fill-opacity:1;stroke:#fcb4ca;stroke-width:0.248;stroke-miterlimit:4;stroke-dasharray:none;stroke-opacity:1"
       d="m 14.259933,24.621474 c -0.83068,-0.34173 -1.7123,-0.87302 -2.11208,-1.2728 -0.38858,-0.38859 -1.01968,-1.53423 -0.90715,-1.64676 0.0349,-0.0349 1.78451,-0.0795 3.88794,-0.099 l 3.82442,-0.0355 v 0.23951 c 0,0.58877 -0.87024,1.58648 -1.95432,2.24058 -0.46644,0.28143 -1.84467,0.7886 -2.12777,0.78299 -0.0594,-0.001 -0.33436,-0.0953 -0.61104,-0.20908 z"
       id="path33607" />
  </g>
</svg>
