<?xml version="1.0" encoding="UTF-8" standalone="no"?>
<!-- Created with Inkscape (http://www.inkscape.org/) -->

<svg
   width="55.000015"
   height="50.951019"
   viewBox="0 0 14.552087 13.480791"
   version="1.1"
   id="svg37189"
   inkscape:version="1.1.1 (3bf5ae0d25, 2021-09-20)"
   sodipodi:docname="smile.svg"
   xmlns:inkscape="http://www.inkscape.org/namespaces/inkscape"
   xmlns:sodipodi="http://sodipodi.sourceforge.net/DTD/sodipodi-0.dtd"
   xmlns="http://www.w3.org/2000/svg"
   xmlns:svg="http://www.w3.org/2000/svg">
  <sodipodi:namedview
     id="namedview37191"
     pagecolor="#ffffff"
     bordercolor="#666666"
     borderopacity="1.0"
     inkscape:pageshadow="2"
     inkscape:pageopacity="0.0"
     inkscape:pagecheckerboard="0"
     inkscape:document-units="mm"
     showgrid="false"
     units="px"
     inkscape:zoom="2.0762433"
     inkscape:cx="-36.604573"
     inkscape:cy="4.0939325"
     inkscape:window-width="1920"
     inkscape:window-height="1009"
     inkscape:window-x="-8"
     inkscape:window-y="-8"
     inkscape:window-maximized="1"
     inkscape:current-layer="layer1"
     width="110px"
     fit-margin-top="0"
     fit-margin-left="0"
     fit-margin-right="0"
     fit-margin-bottom="0" />
  <defs
     id="defs37186" />
  <g
     inkscape:label="Слой 1"
     inkscape:groupmode="layer"
     id="layer1"
     transform="translate(-6.9371696,-0.13533324)">
    <path
       d="M 12.580611,13.458467 C 11.732832,13.268796 10.537168,12.647043 9.8936475,12.061248 9.2216228,11.449493 8.6039805,10.544845 8.3396068,9.7850672 8.1658651,9.285749 8.0992253,9.2092803 7.7555343,9.1148225 7.3665248,9.0078997 6.9371696,8.5803584 6.9371696,8.2998971 c 0,-0.2700569 0.3508017,-0.7035235 0.6845379,-0.8458583 C 7.9052262,7.3331272 7.9671499,7.2313172 8.0845159,6.6931431 8.5181907,4.7046252 9.7759913,3.0852708 11.593549,2.1754717 c 0.748291,-0.374566 2.092699,-0.7565666 2.662618,-0.7565666 0.226688,0 0.32741,-0.2696699 0.329601,-0.88245535 9.67e-4,-0.22061263 0.04373,-0.40111651 0.09537,-0.40111651 0.170801,0 0.723147,0.72730244 0.790677,1.04111516 0.05942,0.2761371 0.130402,0.3217697 0.681206,0.4378877 1.002027,0.211253 2.059554,0.8194481 2.903923,1.6700902 0.996203,1.0035991 1.467157,2.0052584 1.662597,3.5361632 0.05708,0.4470635 0.122706,0.5701517 0.399999,0.7501623 0.262913,0.1706798 0.338588,0.3004238 0.364854,0.6255358 0.04039,0.4996955 -0.168155,0.7696459 -0.726374,0.9403548 -0.299234,0.091507 -0.424794,0.2024495 -0.509355,0.4500383 -0.205473,0.6016213 -0.970828,1.6786713 -1.598222,2.2491033 -1.627456,1.4797 -3.942575,2.098614 -6.069829,1.622683 z m 3.211723,-0.418651 C 17.852546,12.473384 19.679908,10.652204 20.208103,8.6389785 20.38839,7.9518091 20.387959,6.6494404 20.207136,5.9648733 19.94535,4.973376 19.595308,4.3787344 18.785176,3.5493414 17.962531,2.7071254 17.248085,2.274868 16.211435,1.9921816 15.536256,1.8080645 15.563561,1.8037644 15.48926,2.1059247 15.395687,2.4864741 14.919514,3.023705 14.738599,2.9528471 14.619018,2.9060246 14.65442,2.8129164 14.900742,2.5265635 15.245303,2.1260081 15.31665,1.5849076 15.098756,1.0247491 L 14.981588,0.72363841 14.810521,1.2049725 C 14.573051,1.8731759 14.408563,2.1431457 14.154236,2.2820752 13.835939,2.4559427 13.63127,2.2273586 13.911528,2.0110074 14.108434,1.8590082 14.106282,1.8534456 13.849324,1.8501613 12.700352,1.8354567 10.625758,2.9566684 9.7140965,4.0849954 7.5703914,6.738176 8.0175857,10.370383 10.714257,12.20842 c 0.715762,0.487864 1.591131,0.853124 2.353275,0.981949 0.665756,0.112524 2.044995,0.03633 2.724667,-0.150553 z m -2.265423,-0.753602 c -0.964216,-0.345809 -1.559588,-1.03932 -1.559588,-1.816672 V 10.08299 h 2.357883 c 1.296835,0 2.357884,0.01533 2.357884,0.03405 0,0.325281 -0.383611,1.168939 -0.652096,1.43413 -0.668392,0.660183 -1.792632,0.990186 -2.504083,0.735027 z m 1.171773,-0.343725 c 0.606783,-0.202575 1.346439,-0.843822 1.382673,-1.198696 l 0.02535,-0.248397 -1.872549,0.0024 c -1.029898,0.0015 -1.895289,0.02583 -1.923082,0.05418 -0.02781,0.02839 0.05774,0.248212 0.190076,0.488546 0.180514,0.327825 0.39672,0.516586 0.865671,0.755778 0.732139,0.373424 0.670767,0.366701 1.331846,0.145996 z M 11.450953,9.1593717 c -0.509689,-0.6613833 0.02022,-2.1520289 0.673999,-1.8959559 0.235148,0.092102 0.366348,0.4858566 0.366348,1.0994934 0,0.3954765 -0.05858,0.5767544 -0.256982,0.7952677 -0.323869,0.3566931 -0.509182,0.3569737 -0.783365,9.674e-4 z m 2.513536,0.1288491 c -0.09933,-0.1221692 -0.08219,-0.1760345 0.08508,-0.267411 0.280428,-0.1531891 0.487753,-0.1442068 0.627099,0.027184 0.08407,0.1034015 0.08188,0.1755363 -0.0081,0.267411 -0.169349,0.1728614 -0.553454,0.1580359 -0.704045,-0.027184 z m 2.57317,-0.047693 C 15.989671,8.6224745 16.423994,7.0898676 17.096275,7.2693122 17.515482,7.3812074 17.67702,8.5197648 17.34413,9.0162726 17.022582,9.4958701 16.815189,9.5535373 16.537659,9.2405278 Z M 7.9851195,8.2645818 c 0,-0.2941501 -0.036665,-0.5348171 -0.08148,-0.5348171 -0.1902457,0 -0.547292,0.3489054 -0.547292,0.5348171 0,0.1859117 0.3570463,0.5348221 0.547292,0.5348221 0.044839,0 0.08148,-0.2406719 0.08148,-0.5348221 z M 20.983868,8.603523 c 0.183459,-0.1516316 0.22114,-0.2603683 0.166801,-0.4813388 -0.09062,-0.3685342 -0.484667,-0.4047879 -0.4868,-0.044791 -9.68e-4,0.1323656 -0.02989,0.3489683 -0.06463,0.481334 -0.07659,0.291722 0.0658,0.3083033 0.384627,0.044791 z"
       style="fill:#000000;stroke-width:0.0280124"
       id="path27086" />
    <path
       style="fill:#fef0eb;fill-opacity:1;stroke:#000000;stroke-width:0.129633;stroke-miterlimit:4;stroke-dasharray:none;stroke-opacity:0"
       d="M 13.003963,13.154018 C 11.81082,12.924031 10.470223,12.163054 9.7083308,11.283283 8.3529232,9.7181612 8.0212667,7.6877017 8.7969543,5.7037359 8.9979043,5.1897756 9.3731528,4.5534435 9.7400231,4.104508 10.597292,3.0554843 12.525237,1.9669855 13.65559,1.8938107 l 0.350855,-0.022686 -0.123509,0.1316933 c -0.08031,0.08563 -0.11842,0.1676373 -0.108964,0.2344659 0.01282,0.090467 0.03691,0.1023083 0.201366,0.098893 0.150379,-0.0029 0.217014,-0.032892 0.341611,-0.1525506 0.186077,-0.178719 0.282368,-0.3584683 0.499952,-0.9332249 l 0.165001,-0.43586102 0.06832,0.16283417 c 0.164967,0.39314995 0.187735,0.85159505 0.05748,1.15740245 -0.02767,0.064961 -0.146587,0.2507184 -0.264262,0.4127932 -0.220743,0.3040274 -0.240275,0.4244891 -0.06883,0.4244891 0.220665,0 0.630934,-0.483206 0.733416,-0.8638038 0.02767,-0.1027194 0.07787,-0.1973416 0.111576,-0.2102758 0.08627,-0.033085 0.93234,0.2099566 1.361516,0.3911328 0.597945,0.2524259 1.059172,0.58935 1.734713,1.2671888 0.813992,0.8167586 1.112423,1.2784398 1.383907,2.1409234 0.173011,0.549662 0.218228,0.9804489 0.193419,1.8428016 -0.01732,0.6013265 -0.04271,0.8461823 -0.115378,1.1108943 -0.596205,2.1723534 -2.684718,4.0881024 -4.861368,4.4592244 -0.548989,0.0936 -1.919599,0.11962 -2.312459,0.04387 z m 1.979516,-0.936867 c 0.670472,-0.246375 1.110183,-0.602952 1.387588,-1.125255 0.158423,-0.298277 0.315931,-0.749452 0.315931,-0.904972 v -0.110338 h -2.381899 -2.3819 l 0.02564,0.395443 c 0.03357,0.518086 0.18865,0.863296 0.544076,1.211079 0.247879,0.242548 0.728289,0.530705 1.076445,0.645663 0.306305,0.101142 0.979805,0.04798 1.414143,-0.11162 z M 12.208154,9.2155684 c 0.252049,-0.2448849 0.309372,-0.4462026 0.286324,-1.0055871 -0.03183,-0.772698 -0.25972,-1.1023327 -0.665151,-0.9621553 -0.516505,0.1785788 -0.777531,1.2970382 -0.433458,1.8572982 0.155438,0.2531079 0.365323,0.375664 0.534421,0.3120618 0.06313,-0.02375 0.188166,-0.1144735 0.277864,-0.2016176 z m 2.311724,0.2108757 c 0.134015,-0.050953 0.249325,-0.1658719 0.249325,-0.2484692 0,-0.035359 -0.04813,-0.1123935 -0.106981,-0.1712313 -0.134479,-0.1344794 -0.352988,-0.140932 -0.594811,-0.017558 -0.147675,0.075342 -0.173146,0.1079531 -0.161712,0.207035 0.02288,0.1981688 0.363078,0.3256974 0.614184,0.2302287 z m 2.620811,-0.135413 C 17.42634,9.0277316 17.53217,8.7483489 17.5283,8.2677598 17.526365,8.0179991 17.498939,7.8044486 17.453065,7.6799625 17.166731,6.9032013 16.449301,7.2129558 16.294806,8.18004 c -0.100441,0.6287429 0.190928,1.2758423 0.578409,1.2845925 0.04247,9.674e-4 0.162848,-0.07716 0.267474,-0.1736014 z"
       id="path30409" />
    <path
       style="fill:#fef0eb;fill-opacity:1;stroke:#000000;stroke-width:0.0329471;stroke-miterlimit:4;stroke-dasharray:none;stroke-opacity:0"
       d="m 20.609466,8.7145186 c -9.67e-4,-0.1521782 0.107204,-0.7589995 0.14352,-0.8063493 0.123901,-0.1615282 0.380782,0.064367 0.378421,0.3327788 -0.0015,0.1861051 -0.05099,0.2595556 -0.277825,0.4134896 -0.18745,0.1272045 -0.243685,0.1410433 -0.244116,0.060081 z"
       id="path30448" />
    <path
       style="fill:#fef0eb;fill-opacity:1;stroke:#000000;stroke-width:0.0329471;stroke-miterlimit:4;stroke-dasharray:none;stroke-opacity:0"
       d="M 7.6421489,8.6317713 C 7.556185,8.5562941 7.4586122,8.4418643 7.4253188,8.3774832 7.3719326,8.2742462 7.3740464,8.2451901 7.4432159,8.1314713 7.5355453,7.9796511 7.7780411,7.7665165 7.8584472,7.7665165 c 0.031247,0 0.068367,0.072822 0.083347,0.1634485 0.059839,0.3620235 0.011415,0.8390332 -0.085175,0.8390332 -0.031973,0 -0.1284912,-0.06175 -0.2144554,-0.1372269 z"
       id="path30487" />
    <path
       style="fill:#fcb4ca;fill-opacity:1;stroke:#fcb4ca;stroke-width:0.119959;stroke-miterlimit:4;stroke-dasharray:none;stroke-opacity:1"
       d="m 13.806704,11.979381 c -0.401803,-0.165296 -0.828246,-0.422283 -1.021622,-0.615658 -0.187957,-0.187963 -0.493223,-0.742114 -0.438792,-0.796545 0.01688,-0.01688 0.863175,-0.03845 1.880613,-0.04789 l 1.849888,-0.01717 v 0.115852 c 0,0.28479 -0.420939,0.767387 -0.945313,1.083778 -0.225619,0.136129 -0.892274,0.381449 -1.029211,0.378735 -0.02873,-4.83e-4 -0.161731,-0.0461 -0.295563,-0.101133 z"
       id="path33607" />
  </g>
</svg>
