<?xml version="1.0" encoding="UTF-8" standalone="no"?>
<!-- Created with Inkscape (http://www.inkscape.org/) -->

<svg
   width="54.999985"
   height="35.466915"
   viewBox="0 0 14.552079 9.3839549"
   version="1.1"
   id="svg37189"
   inkscape:version="1.1.1 (3bf5ae0d25, 2021-09-20)"
   sodipodi:docname="speak.svg"
   xmlns:inkscape="http://www.inkscape.org/namespaces/inkscape"
   xmlns:sodipodi="http://sodipodi.sourceforge.net/DTD/sodipodi-0.dtd"
   xmlns="http://www.w3.org/2000/svg"
   xmlns:svg="http://www.w3.org/2000/svg">
  <sodipodi:namedview
     id="namedview37191"
     pagecolor="#ffffff"
     bordercolor="#666666"
     borderopacity="1.0"
     inkscape:pageshadow="2"
     inkscape:pageopacity="0.0"
     inkscape:pagecheckerboard="0"
     inkscape:document-units="mm"
     showgrid="false"
     units="px"
     inkscape:zoom="8.3049732"
     inkscape:cx="31.908592"
     inkscape:cy="28.597323"
     inkscape:window-width="1920"
     inkscape:window-height="1009"
     inkscape:window-x="-8"
     inkscape:window-y="-8"
     inkscape:window-maximized="1"
     inkscape:current-layer="layer1"
     fit-margin-top="0"
     fit-margin-left="0"
     fit-margin-right="0"
     fit-margin-bottom="0" />
  <defs
     id="defs37186" />
  <g
     inkscape:label="Слой 1"
     inkscape:groupmode="layer"
     id="layer1"
     transform="translate(-0.05800259,-0.13533324)">
    <path
       d="M 3.986391,9.409543 C 3.3962536,9.277514 2.5639544,8.8447126 2.1160012,8.4369419 1.648206,8.0111002 1.2182666,7.3813765 1.0342368,6.8524961 0.91329547,6.5049216 0.86690754,6.4516919 0.62766473,6.38594 0.35687597,6.3115112 0.05800259,6.0139005 0.05800259,5.8186718 c 0,-0.1879861 0.24419238,-0.4897215 0.4765058,-0.5888005 C 0.73186502,5.145705 0.77497007,5.0748352 0.85666832,4.7002132 1.1585485,3.3160094 2.0341009,2.1887796 3.2992992,1.55547 3.820183,1.2947353 4.7560226,1.0288254 5.1527426,1.0288254 c 0.1577971,0 0.2279093,-0.18771676 0.2294346,-0.61427566 6.734e-4,-0.15356806 0.030438,-0.2792165 0.066385,-0.2792165 0.1188942,0 0.5033817,0.50627396 0.5503892,0.72471846 0.041361,0.1922185 0.090772,0.2239833 0.4741858,0.3048129 0.6975093,0.1470528 1.4336522,0.5704163 2.0214156,1.1625468 0.6934553,0.6986035 1.0212854,1.3958568 1.1573313,2.461517 0.039731,0.3112002 0.085415,0.3968816 0.2784387,0.5221866 0.1830132,0.11881 0.2356902,0.2091245 0.2539732,0.4354345 0.02811,0.3478371 -0.117052,0.5357491 -0.505627,0.6545793 C 9.4703726,6.4648267 9.3829706,6.5420535 9.3241077,6.7143997 9.1810785,7.1331874 8.6483159,7.8829197 8.2115886,8.2799966 7.0787189,9.3100128 5.4671684,9.7408377 3.986391,9.409543 Z M 6.2220658,9.1181209 C 7.6561758,8.7238285 8.9281991,7.4561083 9.2958749,6.0547058 9.4213718,5.5763684 9.4210722,4.6697918 9.2952015,4.1932658 9.1129731,3.5030863 8.8693093,3.0891573 8.3053779,2.5118184 7.7327359,1.9255533 7.2354116,1.6246597 6.513801,1.4278822 6.0438104,1.2997185 6.0628175,1.2967252 6.0110961,1.5070585 5.9459604,1.7719583 5.6144973,2.1459237 5.4885627,2.0965997 5.4053223,2.0640066 5.4299658,1.9991942 5.6014298,1.7998644 5.8412786,1.5210385 5.8909427,1.1443794 5.7392669,0.75445408 L 5.6577067,0.54485144 5.5386274,0.87990723 C 5.3733252,1.3450425 5.2588251,1.532968 5.0817886,1.6296766 4.8602228,1.7507054 4.7177526,1.5915884 4.9128398,1.4409867 5.049906,1.3351804 5.0484076,1.3313083 4.8695395,1.329022 4.0697424,1.3187862 2.625622,2.0992597 1.9910161,2.8846861 0.49878729,4.7315605 0.81007837,7.2599335 2.6872257,8.5393879 3.1854658,8.8789892 3.7948088,9.1332457 4.3253357,9.2229205 4.7887672,9.3012483 5.748853,9.2482071 6.2219715,9.1181209 Z M 4.6451084,8.5935403 C 3.9739194,8.3528227 3.5594819,7.870071 3.5594819,7.3289581 V 7.0598798 h 1.6413187 c 0.9027246,0 1.6413187,0.010674 1.6413187,0.023704 0,0.2264278 -0.2670312,0.8136963 -0.453923,0.9982951 C 5.9229298,8.5414317 5.1403485,8.7711457 4.6451084,8.5935302 Z M 5.4607777,8.3542739 C 5.8831581,8.2132616 6.3980315,7.7668909 6.4232541,7.5198635 l 0.017643,-0.1729084 -1.3034784,0.00168 c -0.7169102,0.00101 -1.3193069,0.01798 -1.338654,0.037714 -0.019361,0.019765 0.040193,0.1727805 0.1323119,0.340076 C 4.0567317,7.954624 4.2072324,8.08602 4.5336685,8.2525209 5.0433095,8.512461 5.0005883,8.5077808 5.4607639,8.3541488 Z M 3.2000384,6.4169506 C 2.845245,5.9565629 3.2141127,4.9189271 3.6692075,5.097179 c 0.1636861,0.064112 0.2550141,0.338204 0.2550141,0.7653555 0,0.2752905 -0.040778,0.4014776 -0.1788849,0.5535844 -0.2254446,0.2482935 -0.3544401,0.2484887 -0.5452983,6.734e-4 z m 1.7496673,0.089692 c -0.069146,-0.085042 -0.057213,-0.1225377 0.059223,-0.1861447 0.1952051,-0.1066347 0.3395238,-0.1003821 0.436522,0.018923 0.058523,0.071978 0.056997,0.1221905 -0.00566,0.1861444 -0.117884,0.1203285 -0.3852585,0.1100084 -0.490085,-0.018923 z m 1.7911797,-0.0332 C 6.3594316,6.0432174 6.6617629,4.9763724 7.1297366,5.1012835 7.4215459,5.1791736 7.5339921,5.9717214 7.3022679,6.3173396 7.0784395,6.6511866 6.9340736,6.6913286 6.7408854,6.4734426 Z M 0.78747868,5.7940889 c 0,-0.2047574 -0.0255223,-0.3722853 -0.0567181,-0.3722853 -0.13242968,0 -0.38096894,0.2428725 -0.38096894,0.3722853 0,0.1294128 0.24853926,0.3722887 0.38096894,0.3722887 0.0312126,0 0.0567181,-0.1675312 0.0567181,-0.3722887 z M 9.8358834,6.0300253 C 9.9635891,5.9244748 9.9898185,5.8487834 9.951993,5.6949662 9.8889145,5.4384302 9.6146173,5.4131941 9.6131324,5.6637872 9.612459,5.7559267 9.592324,5.9067035 9.5681452,5.998843 9.5148312,6.2019102 9.6139472,6.2134524 9.8358834,6.030022 Z"
       style="fill:#000000;stroke-width:0.0194994"
       id="path27086" />
    <path
       style="fill:#fef0eb;fill-opacity:1;stroke:#000000;stroke-width:0.0902371;stroke-miterlimit:4;stroke-dasharray:none;stroke-opacity:0"
       d="M 4.2810858,9.1976171 C 3.4505408,9.0375237 2.5173543,8.5078083 1.9870026,7.8954014 1.0435063,6.805923 0.8126407,5.3925237 1.3525953,4.0114886 1.4924763,3.6537217 1.7536858,3.210772 2.0090635,2.8982688 2.6058069,2.1680453 3.9478449,1.4103432 4.7346822,1.3594063 l 0.2442294,-0.015791 -0.085974,0.091671 c -0.055903,0.059607 -0.082432,0.1166921 -0.07585,0.1632113 0.00892,0.062974 0.025691,0.071217 0.1401705,0.068839 0.1046785,-0.00202 0.151063,-0.022896 0.237795,-0.1061902 0.1295273,-0.124406 0.1965553,-0.2495292 0.3480156,-0.64961628 l 0.114857,-0.30340206 0.04756,0.11334858 C 5.8203187,0.9951481 5.8361675,1.3142709 5.7454994,1.527143 5.7262394,1.572363 5.6434607,1.7016676 5.561547,1.8144875 5.407888,2.0261205 5.3942918,2.1099737 5.513637,2.1099737 c 0.1536051,0 0.4391921,-0.3363588 0.5105299,-0.6012923 0.01926,-0.071503 0.054203,-0.1373692 0.077668,-0.1463727 0.060052,-0.023031 0.6490001,0.1461505 0.9477489,0.2722669 0.4162287,0.1757132 0.7372877,0.4102455 1.2075307,0.8820879 0.5666183,0.5685443 0.7743556,0.8899197 0.963335,1.490293 C 9.3408824,4.3895753 9.3723576,4.6894453 9.355088,5.2897275 9.3430339,5.7083098 9.3253569,5.8787536 9.2747736,6.0630191 8.859757,7.575191 7.4059463,8.9087405 5.8907845,9.1670779 5.5086337,9.2322338 4.5545548,9.2503452 4.2810858,9.1976171 Z M 5.6590233,8.5454654 C 6.1257377,8.3739644 6.4318199,8.1257518 6.6249206,7.7621771 6.7351984,7.5545475 6.8448398,7.2404854 6.8448398,7.1322278 V 7.0554219 H 5.1868037 3.5287676 l 0.017845,0.2752669 c 0.023367,0.3606387 0.1313186,0.6009387 0.3787299,0.8430301 0.1725481,0.1688376 0.5069608,0.3694233 0.7493114,0.4494447 0.2132188,0.070405 0.682041,0.033401 0.9843824,-0.077698 z M 3.7271243,6.456069 C 3.9025748,6.2856051 3.9424778,6.1454682 3.9264338,5.7560816 3.9042786,5.2182079 3.7456431,4.9887497 3.4634232,5.086327 3.1038854,5.2106353 2.9221856,5.989193 3.1616944,6.379189 3.2698947,6.555377 3.4159948,6.6406881 3.5337037,6.5964147 3.5776472,6.5798824 3.6646856,6.5167299 3.7271243,6.456069 Z M 5.3363111,6.6028592 C 5.4295988,6.5673906 5.509866,6.4873961 5.509866,6.4299003 5.509866,6.4052873 5.476364,6.3516633 5.435397,6.3107065 5.341786,6.2170956 5.1896826,6.2126039 5.02135,6.2984841 4.9185537,6.3509293 4.9008228,6.37363 4.9087825,6.4426008 c 0.015926,0.1379449 0.252738,0.2267174 0.427532,0.1602618 z M 7.1606529,6.5085985 C 7.3594944,6.3253161 7.4331622,6.1308383 7.4304686,5.7963011 7.4291217,5.6224432 7.4100305,5.473791 7.3780974,5.3871364 7.1787811,4.8464343 6.6793793,5.0620539 6.5718356,5.7352395 6.5019186,6.1729063 6.70474,6.6233511 6.9744648,6.6294421 7.0040275,6.6301155 7.0878235,6.5757308 7.1606529,6.5085985 Z"
       id="path30409" />
    <path
       style="fill:#fef0eb;fill-opacity:1;stroke:#000000;stroke-width:0.0229344;stroke-miterlimit:4;stroke-dasharray:none;stroke-opacity:0"
       d="M 9.5752632,6.1072891 C 9.5745897,6.0013582 9.6498872,5.5789509 9.6751671,5.5459908 9.7614142,5.4335513 9.9402285,5.5907962 9.9385854,5.7776375 9.9375752,5.907185 9.9030898,5.9583137 9.7451917,6.0654669 9.6147082,6.1540138 9.5755628,6.1636469 9.5752632,6.1072891 Z"
       id="path30448" />
    <path
       style="fill:#fef0eb;fill-opacity:1;stroke:#000000;stroke-width:0.0229344;stroke-miterlimit:4;stroke-dasharray:none;stroke-opacity:0"
       d="M 0.54873757,6.0496889 C 0.48889824,5.9971494 0.42097798,5.9174949 0.39780254,5.8726794 0.36064033,5.8008163 0.36211174,5.7805904 0.41026065,5.7014309 0.47453101,5.5957491 0.64333164,5.4473865 0.69930222,5.4473865 c 0.0217512,0 0.04759,0.050691 0.0580177,0.1137762 0.0416538,0.252004 0.007946,0.5840496 -0.0592905,0.5840496 -0.0222562,0 -0.0894425,-0.042984 -0.1492818,-0.095523 z"
       id="path30487" />
    <path
       style="fill:#fcb4ca;fill-opacity:1;stroke:#fcb4ca;stroke-width:0.083503;stroke-miterlimit:4;stroke-dasharray:none;stroke-opacity:1"
       d="M 4.8398724,8.3799544 C 4.5601777,8.264892 4.2633313,8.0860037 4.1287232,7.9513955 3.9978861,7.8205551 3.7853912,7.4348117 3.8232807,7.3969222 3.8350317,7.3851711 4.4241352,7.3701541 5.1323719,7.3635883 l 1.2877037,-0.011953 v 0.080644 c 0,0.1982422 -0.2930147,0.5341768 -0.6580305,0.7544159 -0.157053,0.094759 -0.6211108,0.2655261 -0.7164321,0.2636371 -0.02,-3.367e-4 -0.1125809,-0.032088 -0.2057406,-0.070398 z"
       id="path33607" />
    <path
       d="m 10.959416,6.9736495 c 0.02593,-0.5425236 0.06503,-1.0159755 0.08691,-1.052131 0.05012,-0.082779 0.388696,-0.045183 0.591686,0.065705 0.28162,0.1538374 0.279024,0.4381112 -0.0062,0.6797312 -0.099,0.08387 -0.08641,0.1200423 0.105436,0.3029677 0.119827,0.114251 0.217866,0.2766946 0.217866,0.3609855 0,0.1906831 -0.349343,0.5312204 -0.546359,0.5325908 -0.08065,6.734e-4 -0.225347,0.022526 -0.321544,0.048782 l -0.174898,0.047772 z m 0.65332,0.6015516 c 0.21161,-0.1858144 0.03659,-0.6806673 -0.240744,-0.6806673 -0.09811,0 -0.138811,0.086537 -0.176266,0.3747231 -0.0268,0.2061008 -0.02997,0.4056696 -0.0071,0.4434951 0.05034,0.083139 0.244445,0.020169 0.424071,-0.1375509 z m -0.03561,-1.1509339 c 0.11685,-0.1997271 0.115891,-0.2147744 -0.02027,-0.3174461 -0.211606,-0.159558 -0.292112,-0.093614 -0.317476,0.2600243 -0.01869,0.2606438 -0.0017,0.3125672 0.09618,0.292045 0.0654,-0.013738 0.174111,-0.1193083 0.241577,-0.2346232 z m 0.742719,0.4782297 c 0,-0.884024 0.01734,-1.0503666 0.109422,-1.0503666 0.09143,0 0.109423,0.1530461 0.109423,0.9307183 v 0.9307149 h 0.178063 c 0.09793,0 0.19835,0.033502 0.223145,0.074459 0.0262,0.04327 -0.04588,0.074456 -0.172097,0.074456 -0.11945,0 -0.269105,0.020337 -0.332567,0.045199 -0.101857,0.039893 -0.115389,-0.077971 -0.115389,-1.0051806 z m 0.87537,0.9216172 c 0,-0.089493 0.600646,-1.5769844 0.698573,-1.7299969 0.05897,-0.092146 0.167868,-0.1675346 0.242004,-0.1675346 0.142306,0 0.14807,0.029765 0.270149,1.3960791 0.04571,0.511567 0.04036,0.5398166 -0.102244,0.5398166 -0.109927,0 -0.156696,-0.055176 -0.173558,-0.2047541 -0.01983,-0.1760903 -0.05992,-0.2079089 -0.286217,-0.2272325 -0.233471,-0.019933 -0.273533,0.00303 -0.355349,0.2047541 -0.05072,0.1249817 -0.137473,0.2272325 -0.192787,0.2272325 -0.05531,0 -0.100571,-0.017273 -0.100571,-0.038364 z m 0.944113,-0.7248262 c -0.0024,-0.133093 -0.02855,-0.3760093 -0.05829,-0.5398166 l -0.05408,-0.2978262 -0.160555,0.4309192 c -0.214454,0.5755848 -0.207882,0.6487105 0.05829,0.6487105 0.199128,0 0.218462,-0.021785 0.214637,-0.2419869 z m -1.57791,-2.4182703 c -0.03256,-0.011044 -0.05195,-0.4640578 -0.04307,-1.006703 0.01333,-0.8162013 0.03539,-0.9907865 0.127659,-1.0107027 0.09541,-0.020606 0.111527,0.1112308 0.111527,0.9121052 v 0.9361733 h 0.178063 c 0.300022,0 0.277115,0.1315711 -0.02808,0.1612786 -0.157787,0.015354 -0.313527,0.018889 -0.346093,0.00785 z M 11.137759,3.748703 c 0.03542,-1.094869 0.07229,-1.1644761 0.53716,-1.0143627 0.276267,0.089214 0.31951,0.1322109 0.338995,0.3370929 0.01677,0.1762856 -0.0196,0.265324 -0.145894,0.3571268 -0.15509,0.1127458 -0.158259,0.1281299 -0.04057,0.1969996 0.07021,0.041088 0.179036,0.1761072 0.241828,0.3000455 0.104015,0.2053096 0.103675,0.2416873 -0.0038,0.4091411 -0.136891,0.2132491 -0.38632,0.3260623 -0.720904,0.3260623 h -0.236313 z m 0.61674,0.6595393 c 0.146127,-0.1132173 0.170468,-0.4929943 0.04012,-0.6260337 -0.04814,-0.049142 -0.163039,-0.089352 -0.255317,-0.089352 -0.154736,0 -0.167777,0.031852 -0.167777,0.4095185 0,0.3412815 0.02128,0.4091209 0.127655,0.4071478 0.07021,-0.00135 0.185104,-0.046879 0.255317,-0.101281 z M 11.675808,3.346259 c 0.173545,-0.1603022 0.170063,-0.3727062 -0.0077,-0.4698121 -0.21274,-0.1162105 -0.223636,-0.1036413 -0.223636,0.2579839 0,0.3669922 0.03182,0.3961273 0.231333,0.2118282 z m 1.738246,1.2475653 c 0,-0.1423962 0.53414,-1.4699627 0.669563,-1.6641543 0.23133,-0.3317122 0.330025,-0.2608324 0.414693,0.2978296 0.0419,0.2764251 0.08799,0.711998 0.102433,0.9679515 0.02276,0.4035181 0.0093,0.4653574 -0.101211,0.4653574 -0.08483,0 -0.135187,-0.068496 -0.150551,-0.2047608 -0.0204,-0.1810062 -0.05704,-0.2073096 -0.315853,-0.2267914 -0.267435,-0.020135 -0.300025,-0.00236 -0.376636,0.2047608 -0.07699,0.2081952 -0.242438,0.3172508 -0.242438,0.1598072 z m 0.920961,-0.6868996 c -0.02509,-0.1279721 -0.04559,-0.3457634 -0.04559,-0.4839742 0,-0.138211 -0.02902,-0.2512935 -0.06448,-0.2512935 -0.09263,0 -0.396077,0.7954841 -0.339251,0.889334 0.02619,0.04324 0.148245,0.078614 0.271253,0.078614 0.211589,0 0.221196,-0.012559 0.178064,-0.2326804 z"
       style="fill:#000000;stroke-width:0.0194994"
       id="path36984" />
  </g>
</svg>
