<?xml version="1.0" encoding="UTF-8" standalone="no"?>
<!-- Created with Inkscape (http://www.inkscape.org/) -->

<svg
   width="22.031065mm"
   height="14.64411mm"
   viewBox="0 0 22.031066 14.644111"
   version="1.1"
   id="svg5"
   inkscape:version="1.1.1 (3bf5ae0d25, 2021-09-20)"
   sodipodi:docname="404.svg"
   xmlns:inkscape="http://www.inkscape.org/namespaces/inkscape"
   xmlns:sodipodi="http://sodipodi.sourceforge.net/DTD/sodipodi-0.dtd"
   xmlns="http://www.w3.org/2000/svg"
   xmlns:svg="http://www.w3.org/2000/svg">
  <sodipodi:namedview
     id="namedview7"
     pagecolor="#ffffff"
     bordercolor="#666666"
     borderopacity="1.0"
     inkscape:pageshadow="2"
     inkscape:pageopacity="0.0"
     inkscape:pagecheckerboard="0"
     inkscape:document-units="mm"
     showgrid="false"
     fit-margin-top="0"
     fit-margin-left="0"
     fit-margin-right="0"
     fit-margin-bottom="0"
     inkscape:zoom="2.9362514"
     inkscape:cx="-37.122162"
     inkscape:cy="-35.930166"
     inkscape:window-width="1920"
     inkscape:window-height="1009"
     inkscape:window-x="-8"
     inkscape:window-y="-8"
     inkscape:window-maximized="1"
     inkscape:current-layer="layer1" />
  <defs
     id="defs2" />
  <g
     inkscape:label="Слой 1"
     inkscape:groupmode="layer"
     id="layer1"
     transform="translate(-12.416272,-48.963086)">
    <path
       style="fill:#8ecad8;fill-opacity:1;stroke-width:0.0206621"
       d="m 17.303643,55.679253 c -0.251472,0.185433 -0.513508,0.278044 -0.858545,0.303431 -0.483156,0.03555 -0.815109,-0.05464 -1.665598,-0.452555 -0.496063,-0.23209 -0.709301,-0.318377 -0.966612,-0.391143 -0.186602,-0.05277 -0.210014,-0.05384 -0.322256,-0.01467 -0.34948,0.121947 -0.682984,-0.06012 -0.668409,-0.364888 0.0041,-0.08587 0.0034,-0.08706 -0.108979,-0.17027 -0.08419,-0.06231 -0.124765,-0.105803 -0.158469,-0.169928 -0.08752,-0.166206 -0.06106,-0.419787 0.05795,-0.555292 0.04141,-0.04712 0.04099,-0.04852 -0.04063,-0.12375 -0.206427,-0.190301 -0.207986,-0.51387 -0.0033,-0.690964 0.06423,-0.05558 0.06467,-0.05781 0.02215,-0.112144 -0.06839,-0.08738 -0.09183,-0.240196 -0.057,-0.371662 0.05214,-0.196793 0.223792,-0.361213 0.413847,-0.396388 l 0.06775,-0.01254 -0.06238,-0.101875 c -0.177935,-0.290564 -0.15965,-0.578876 0.04998,-0.788026 0.281345,-0.280702 0.75156,-0.222832 1.04494,0.128605 0.109748,0.131473 0.237533,0.368496 0.283571,0.526007 l 0.03294,0.112698 0.134482,0.0183 c 0.398998,0.05431 0.773364,0.309756 0.968895,0.661126 0.269664,0.484595 0.310335,0.52861 0.544405,0.589167 0.102443,0.02651 0.255204,0.03741 0.454429,0.03245 0.4516,-0.01125 0.619476,0.02628 0.89077,0.199156 0.503174,0.320626 0.672163,1.059196 0.375634,1.641695 -0.08721,0.171319 -0.27059,0.386263 -0.429511,0.503463 z m 0.170679,-0.667168 c 0.164292,-0.355573 0.122958,-0.766506 -0.106387,-1.057589 -0.184845,-0.234603 -0.426457,-0.320865 -0.874094,-0.312086 -0.367182,0.0072 -0.547584,-0.0153 -0.711228,-0.08871 -0.22394,-0.10046 -0.326524,-0.217784 -0.559625,-0.64004 -0.08847,-0.160254 -0.126912,-0.210555 -0.231187,-0.302449 -0.195037,-0.171911 -0.423767,-0.261284 -0.673528,-0.263244 -0.07004,-5.47e-4 -0.141742,-0.01365 -0.159327,-0.0291 -0.01756,-0.01549 -0.06234,-0.117936 -0.09947,-0.227715 -0.10676,-0.315699 -0.17299,-0.435002 -0.308001,-0.554806 -0.0951,-0.0844 -0.134413,-0.106872 -0.218929,-0.125295 -0.137138,-0.02987 -0.249592,10e-4 -0.327934,0.09012 -0.05378,0.06124 -0.06018,0.08456 -0.05318,0.194009 0.01094,0.170313 0.0642,0.246283 0.301862,0.430604 0.103494,0.08021 0.204742,0.160426 0.2251,0.17813 0.05812,0.05066 0.05088,0.129456 -0.02148,0.233849 -0.09391,0.135483 -0.162533,0.145275 -0.305766,0.04364 -0.197075,-0.139834 -0.365347,-0.149245 -0.473309,-0.02646 -0.06362,0.07233 -0.07195,0.136427 -0.02671,0.205446 0.04767,0.07273 0.147501,0.13316 0.274784,0.166455 0.123946,0.03238 0.202392,0.102175 0.204685,0.182109 0.0038,0.131096 -0.101675,0.183023 -0.266409,0.131183 -0.116788,-0.03676 -0.241947,-0.02081 -0.293328,0.03736 -0.04705,0.05326 -0.05579,0.136874 -0.02058,0.19685 0.04281,0.07293 0.09824,0.104406 0.278265,0.157956 0.165041,0.0491 0.1834,0.06415 0.189197,0.155224 0.0061,0.09527 -0.04175,0.144312 -0.171205,0.175377 -0.05892,0.01414 -0.135226,0.05016 -0.169561,0.08004 -0.05186,0.0452 -0.06269,0.06892 -0.06431,0.140746 -0.0015,0.06899 0.0099,0.09675 0.0564,0.137668 0.07067,0.06217 0.1356,0.05887 0.259151,-0.01311 0.145044,-0.08451 0.283489,-0.016 0.262739,0.129993 -0.0079,0.0554 -0.02119,0.07173 -0.123884,0.152015 -0.136755,0.106814 -0.171063,0.178267 -0.110948,0.231125 0.05351,0.047 0.147597,0.04574 0.282156,-0.0039 0.140849,-0.05194 0.14772,-0.05177 0.391841,0.0089 0.297136,0.07382 0.540355,0.169416 1.080877,0.424824 0.536641,0.253575 0.629894,0.2914 0.879569,0.356758 0.508638,0.133148 0.969122,0.08118 1.292624,-0.145867 0.133126,-0.09344 0.332258,-0.322486 0.391095,-0.449923 z"
       id="path1485"
       sodipodi:nodetypes="sssssssccssscscsssscsssssssssssscssscsssscssssccssssssscssssssssssss" />
    <path
       d="m 20.132851,53.804214 c -0.487205,0.363423 -1.079506,0.382559 -1.556951,0.0503 -0.112196,-0.07806 -0.252626,-0.243804 -0.331573,-0.391265 -0.03154,-0.05892 -0.0887,-0.221844 -0.127027,-0.362068 -0.103057,-0.377058 -0.154323,-0.493303 -0.268766,-0.609427 -0.111536,-0.113172 -0.168756,-0.13604 -0.529576,-0.211647 -0.269394,-0.05645 -0.452315,-0.13655 -0.635671,-0.278366 -0.162384,-0.125611 -0.293322,-0.290302 -0.377392,-0.474728 l -0.05513,-0.120947 -0.19194,-0.01219 c -0.362424,-0.02302 -0.604534,-0.117042 -0.796852,-0.309463 -0.06511,-0.06511 -0.128283,-0.149335 -0.154491,-0.205879 -0.09694,-0.209146 -0.07486,-0.465995 0.05528,-0.643026 0.137893,-0.187642 0.420842,-0.271024 0.678751,-0.200097 0.06016,0.01654 0.114095,0.03022 0.119872,0.03041 0.0059,1.84e-4 0.0083,-0.04079 0.0057,-0.09105 -0.0027,-0.05026 0.0052,-0.127254 0.01738,-0.171108 0.03228,-0.115918 0.161195,-0.276314 0.266728,-0.331902 0.0904,-0.0476 0.271837,-0.06193 0.361156,-0.02852 0.03789,0.01417 0.05645,0.0098 0.06578,-0.01534 0.104551,-0.282157 0.445438,-0.393212 0.704813,-0.229621 l 0.07106,0.04486 0.08338,-0.09591 c 0.191904,-0.220819 0.470077,-0.245505 0.683926,-0.06071 0.09011,0.07788 0.101377,0.08223 0.15027,0.05823 0.115733,-0.05682 0.311183,-0.02538 0.416173,0.06694 0.112653,0.09911 0.182035,0.294952 0.167304,0.472505 -0.0079,0.09557 8.79e-4,0.118485 0.11297,0.293943 0.155506,0.243411 0.26803,0.384229 0.673131,0.842378 0.368769,0.41706 0.54921,0.646929 0.667115,0.849856 0.306211,0.527027 0.35023,1.110735 0.122063,1.618603 -0.07053,0.156987 -0.278403,0.426486 -0.397436,0.515325 z m 0.09809,-0.610822 c 0.112272,-0.220544 0.14562,-0.393466 0.127464,-0.660948 -0.01802,-0.265525 -0.08753,-0.475736 -0.248374,-0.751188 -0.1359,-0.232733 -0.254478,-0.384698 -0.560446,-0.718265 -0.465429,-0.507407 -0.74044,-0.863698 -0.859362,-1.113331 -0.02827,-0.05933 -0.04777,-0.164402 -0.05173,-0.278693 -0.0047,-0.13492 -0.0171,-0.192899 -0.04698,-0.219168 -0.08227,-0.07228 -0.149386,-0.01723 -0.230736,0.189286 -0.04641,0.117828 -0.12218,0.165782 -0.212894,0.134869 -0.09067,-0.0309 -0.120046,-0.108746 -0.08406,-0.22306 0.04816,-0.15307 0.01178,-0.237587 -0.115933,-0.269387 -0.145551,-0.03623 -0.243288,0.08894 -0.231916,0.296941 0.0076,0.138121 -0.03628,0.212576 -0.131652,0.223489 -0.06673,0.0076 -0.130026,-0.04379 -0.207337,-0.168492 -0.08631,-0.139213 -0.178104,-0.210672 -0.263586,-0.20515 -0.159663,0.01025 -0.206921,0.203102 -0.0913,0.372594 0.03441,0.05044 0.06414,0.116328 0.06607,0.146412 0.0047,0.07284 -0.06321,0.146827 -0.139238,0.151694 -0.05229,0.0034 -0.07217,-0.0083 -0.140909,-0.08225 -0.26708,-0.287507 -0.260843,-0.282205 -0.337404,-0.286288 -0.09295,-0.005 -0.187356,0.09226 -0.193204,0.199022 -0.0067,0.122013 0.0351,0.196103 0.179423,0.318115 0.155246,0.131178 0.1667,0.172446 0.08386,0.301001 -0.06653,0.10324 -0.146711,0.145973 -0.221547,0.11805 -0.03036,-0.01133 -0.127932,-0.07949 -0.216831,-0.151474 -0.132176,-0.107095 -0.183495,-0.137024 -0.281589,-0.164761 -0.148548,-0.04196 -0.185671,-0.0435 -0.286997,-0.01193 -0.160088,0.04988 -0.22045,0.205322 -0.149705,0.385464 0.03151,0.08022 0.05805,0.113112 0.152302,0.188658 0.147438,0.118191 0.315094,0.163033 0.644322,0.172378 0.271814,0.0077 0.312842,0.02788 0.352258,0.173167 0.04756,0.175317 0.135902,0.308478 0.303633,0.457692 0.187712,0.167048 0.25954,0.198741 0.621619,0.275037 0.322593,0.06794 0.466762,0.134347 0.613265,0.282466 0.141798,0.143368 0.208169,0.276351 0.303884,0.608885 0.105789,0.367532 0.142873,0.456091 0.245575,0.58644 0.335979,0.426418 1.048486,0.412072 1.444276,-0.02908 0.05004,-0.05573 0.124528,-0.167449 0.165661,-0.248166 z"
       style="fill:#8ecad8;fill-opacity:1;stroke-width:0.00546684"
       id="path1610" />
    <path
       style="fill:#8ecad8;fill-opacity:1;stroke-width:0.0206621"
       d="m 33.451461,61.402524 c -0.08268,0.301309 -0.231128,0.536262 -0.486377,0.769807 -0.357425,0.327038 -0.673949,0.46172 -1.588196,0.675767 -0.533251,0.124847 -0.754131,0.189099 -1.001251,0.291255 -0.17921,0.07409 -0.198263,0.08774 -0.262158,0.187982 -0.198958,0.312127 -0.573576,0.375623 -0.750813,0.127257 -0.04993,-0.06998 -0.05126,-0.07044 -0.190994,-0.06625 -0.104697,0.0031 -0.163483,-0.0059 -0.229649,-0.03534 -0.17163,-0.07633 -0.307847,-0.291857 -0.298272,-0.471953 0.0033,-0.06264 0.0021,-0.06348 -0.108515,-0.07204 -0.279926,-0.02165 -0.481469,-0.274788 -0.430386,-0.540564 0.01603,-0.08341 0.01499,-0.08543 -0.05203,-0.101774 -0.107802,-0.02628 -0.220819,-0.131778 -0.274859,-0.256582 -0.0809,-0.18682 -0.04788,-0.422216 0.07959,-0.567501 l 0.0454,-0.05182 -0.112059,-0.04138 c -0.319623,-0.118026 -0.483753,-0.355763 -0.448617,-0.649788 0.04716,-0.39462 0.452258,-0.640282 0.900226,-0.545924 0.167578,0.0353 0.414674,0.142331 0.548342,0.237526 l 0.09565,0.0681 0.116932,-0.06889 c 0.346961,-0.204371 0.799104,-0.235532 1.170189,-0.08064 0.511783,0.213613 0.570972,0.222999 0.792282,0.12564 0.09685,-0.04261 0.223575,-0.12862 0.376955,-0.255855 0.347682,-0.288421 0.502757,-0.362875 0.822832,-0.395073 0.593649,-0.05972 1.183605,0.415671 1.311354,1.0567 0.03757,0.188533 0.02663,0.470859 -0.02562,0.661285 z M 33.172459,60.77292 c -0.09111,-0.38095 -0.377981,-0.67807 -0.738297,-0.764677 -0.290404,-0.0698 -0.533549,0.01203 -0.879649,0.296062 -0.283895,0.232978 -0.439498,0.326993 -0.613459,0.370654 -0.238058,0.05975 -0.391252,0.03112 -0.835728,-0.156172 -0.168688,-0.07108 -0.230018,-0.08678 -0.368801,-0.09439 -0.259594,-0.01426 -0.49455,0.05716 -0.691905,0.210248 -0.05534,0.04294 -0.119763,0.07703 -0.143139,0.07578 -0.02339,-0.0013 -0.121969,-0.05402 -0.21909,-0.117248 -0.27929,-0.181826 -0.405161,-0.234514 -0.585358,-0.245016 -0.126942,-0.0074 -0.17172,-7.32e-4 -0.249497,0.03713 -0.126196,0.06143 -0.19537,0.155331 -0.201734,0.273801 -0.0044,0.08138 0.0051,0.103674 0.07834,0.185286 0.114026,0.126981 0.202863,0.153696 0.503641,0.151279 0.130931,-0.001 0.260106,-8.01e-4 0.287053,5.31e-4 0.077,0.0038 0.120097,0.07017 0.127903,0.196947 0.01013,0.164535 -0.0377,0.21471 -0.2131,0.223573 -0.241338,0.01219 -0.379311,0.10898 -0.388083,0.272241 -0.0052,0.09619 0.02797,0.15168 0.106211,0.17788 0.08247,0.02761 0.198273,0.0133 0.318845,-0.0394 0.11738,-0.0513 0.222197,-0.04506 0.273485,0.01629 0.08412,0.10062 0.03346,0.206676 -0.128003,0.267949 -0.114476,0.04344 -0.202887,0.133448 -0.207224,0.21094 -0.004,0.07095 0.04093,0.142028 0.105704,0.167335 0.07877,0.03077 0.141785,0.02116 0.316314,-0.04823 0.16001,-0.06362 0.183748,-0.06316 0.244681,0.0047 0.06378,0.07102 0.05656,0.139168 -0.02588,0.243717 -0.03755,0.04755 -0.07514,0.123116 -0.08361,0.167829 -0.0128,0.06761 -0.0066,0.09294 0.03664,0.150344 0.04153,0.05511 0.06765,0.06988 0.129525,0.07319 0.094,0.005 0.142941,-0.03771 0.195401,-0.170735 0.06159,-0.15616 0.212721,-0.188074 0.286811,-0.06056 0.02811,0.04839 0.02777,0.06945 -0.0032,0.196074 -0.04127,0.168548 -0.02398,0.245899 0.05596,0.250193 0.07112,0.0038 0.144225,-0.05546 0.219185,-0.177725 0.07846,-0.127986 0.08394,-0.132117 0.313213,-0.235617 0.279048,-0.125984 0.529234,-0.201487 1.111836,-0.335545 0.578419,-0.133096 0.675069,-0.161124 0.911608,-0.264371 0.481871,-0.210332 0.811325,-0.536223 0.92481,-0.914808 0.0467,-0.1558 0.06128,-0.458953 0.02864,-0.595454 z"
       id="path1485-8"
       sodipodi:nodetypes="sssssssccssscscsssscsssssssssssscssscsssscssssccssssssscssssssssssss" />
    <path
       d="m 34.444656,57.191787 c 0.03503,0.606811 -0.275188,1.111734 -0.815462,1.32727 -0.126946,0.05064 -0.342624,0.0766 -0.50919,0.06128 -0.06654,-0.0061 -0.23402,-0.04814 -0.372169,-0.09337 -0.371482,-0.121632 -0.496743,-0.14286 -0.656697,-0.111288 -0.15589,0.03077 -0.206489,0.06593 -0.468308,0.325474 -0.195473,0.193776 -0.363076,0.302342 -0.582428,0.377285 -0.194269,0.06638 -0.403849,0.08496 -0.604087,0.05356 l -0.13132,-0.02059 -0.11587,0.153504 c -0.21884,0.28981 -0.430623,0.440141 -0.697149,0.494698 -0.09021,0.01846 -0.195297,0.02483 -0.256926,0.01557 -0.227959,-0.03427 -0.430188,-0.194148 -0.50631,-0.400234 -0.08065,-0.218447 0.0055,-0.500533 0.206782,-0.676745 0.04693,-0.04111 0.08806,-0.07859 0.09139,-0.08331 0.0033,-0.0047 -0.02946,-0.02942 -0.07288,-0.05486 -0.04337,-0.02552 -0.103388,-0.07438 -0.133263,-0.108725 -0.07897,-0.09079 -0.141867,-0.286718 -0.130138,-0.405423 0.01005,-0.101665 0.09801,-0.261007 0.175095,-0.317155 0.03267,-0.02384 0.03928,-0.04172 0.02341,-0.06337 -0.177939,-0.242654 -0.0829,-0.588352 0.196492,-0.714756 l 0.07657,-0.03464 -0.03413,-0.122417 c -0.07862,-0.281793 0.05396,-0.527572 0.325977,-0.604301 0.114626,-0.03233 0.124468,-0.03933 0.131366,-0.09336 0.01631,-0.12789 0.150189,-0.273718 0.285038,-0.310535 0.144754,-0.03949 0.346445,0.01049 0.486533,0.120571 0.07541,0.05925 0.09938,0.06452 0.307567,0.06759 0.288812,0.0043 0.468321,-0.01212 1.07383,-0.09794 0.551205,-0.07812 0.842447,-0.102144 1.07676,-0.0888 0.608541,0.03465 1.119999,0.319371 1.418254,0.789513 0.09219,0.145331 0.202665,0.467255 0.211226,0.615548 z M 33.988833,56.77352 c -0.122256,-0.21517 -0.248223,-0.338241 -0.481487,-0.470394 -0.231562,-0.131183 -0.445297,-0.18894 -0.763794,-0.20638 -0.269102,-0.01474 -0.461249,5.49e-4 -0.908178,0.07224 -0.679848,0.109045 -1.128695,0.142379 -1.402552,0.104164 -0.06509,-0.0091 -0.163539,-0.05067 -0.261119,-0.110286 -0.115194,-0.0704 -0.170429,-0.09196 -0.208812,-0.08149 -0.105654,0.02882 -0.09666,0.115191 0.03092,0.296838 0.07278,0.103628 0.07112,0.193273 -0.0047,0.251975 -0.07573,0.05866 -0.1569,0.04026 -0.232481,-0.05268 -0.101246,-0.1245 -0.191811,-0.140696 -0.288701,-0.05159 -0.110396,0.101533 -0.05975,0.25205 0.120172,0.357096 0.119463,0.06974 0.157447,0.147362 0.114047,0.232963 -0.03037,0.0599 -0.108165,0.08441 -0.254826,0.08027 -0.163736,-0.0046 -0.273931,0.03263 -0.316412,0.106988 -0.07937,0.138918 0.05557,0.284567 0.260719,0.281404 0.06105,-9.38e-4 0.132418,0.01053 0.158594,0.02548 0.06338,0.03621 0.08774,0.133627 0.04996,0.199756 -0.02595,0.04551 -0.04659,0.05572 -0.146255,0.07232 -0.387067,0.06459 -0.379209,0.0623 -0.424788,0.123923 -0.05537,0.07481 -0.02617,0.207192 0.05972,0.270872 0.09816,0.07278 0.183014,0.0787 0.364339,0.02543 0.195004,-0.05729 0.235745,-0.04417 0.297428,0.09577 0.04954,0.112387 0.04104,0.202851 -0.02347,0.249934 -0.02617,0.01911 -0.1368,0.06301 -0.245845,0.09757 -0.162165,0.0514 -0.215437,0.07767 -0.292601,0.144303 -0.116829,0.100885 -0.13856,0.131023 -0.168007,0.232989 -0.04652,0.161093 0.04997,0.297081 0.239299,0.337238 0.08431,0.01789 0.126387,0.01383 0.241348,-0.02323 0.179851,-0.05798 0.309614,-0.173211 0.498722,-0.442877 0.156135,-0.222631 0.195561,-0.245772 0.338535,-0.198662 0.172535,0.05685 0.332328,0.05645 0.549248,-0.0014 0.242799,-0.06473 0.308834,-0.107146 0.571909,-0.367389 0.234369,-0.23185 0.369194,-0.315615 0.573511,-0.356327 0.197757,-0.0394 0.345309,-0.02157 0.675584,0.08168 0.365035,0.114108 0.459377,0.131925 0.624738,0.117986 0.540958,-0.0456 0.921377,-0.648222 0.771118,-1.221538 -0.01895,-0.07246 -0.07114,-0.196175 -0.1159,-0.274948 z"
       style="fill:#8ecad8;fill-opacity:1;stroke-width:0.00546684"
       id="path1610-3" />
    <path
       style="fill:#8ecad8;fill-opacity:1;stroke-width:0.0206621"
       d="m 22.063751,62.162377 c -0.246904,0.191475 -0.506618,0.290408 -0.850941,0.324143 -0.482154,0.04724 -0.816195,-0.03488 -1.676073,-0.412076 -0.501541,-0.220002 -0.716804,-0.3011 -0.975803,-0.367611 -0.187837,-0.04819 -0.211253,-0.04878 -0.322515,-0.0069 -0.346424,0.130382 -0.684242,-0.04355 -0.677053,-0.348589 0.002,-0.08594 0.0012,-0.08711 -0.113071,-0.167582 -0.08564,-0.0603 -0.12726,-0.102792 -0.16254,-0.166038 -0.09153,-0.16403 -0.07122,-0.418183 0.04448,-0.556532 0.04025,-0.04813 0.03973,-0.04955 -0.04362,-0.122732 -0.210974,-0.185244 -0.220373,-0.50868 -0.02007,-0.69068 0.06287,-0.05712 0.06324,-0.05936 0.01945,-0.112637 -0.07048,-0.08569 -0.09762,-0.237901 -0.06599,-0.370173 0.04735,-0.198001 0.214975,-0.366531 0.40412,-0.4063 l 0.06743,-0.01418 -0.06483,-0.100321 c -0.184925,-0.286167 -0.173626,-0.574838 0.03087,-0.789005 0.274461,-0.287437 0.745941,-0.240976 1.047749,0.103254 0.112902,0.128771 0.246388,0.362636 0.296226,0.518985 l 0.03566,0.111866 0.134882,0.01504 c 0.400198,0.04463 0.780642,0.29093 0.984626,0.637462 0.281324,0.47792 0.323053,0.520937 0.55852,0.575806 0.103057,0.02396 0.256036,0.03122 0.455079,0.02143 0.451196,-0.02219 0.619933,0.01127 0.895344,0.177474 0.510792,0.308345 0.697624,1.042603 0.415293,1.632113 -0.08304,0.173381 -0.261154,0.392705 -0.417196,0.513715 z m 0.154476,-0.671103 c 0.155634,-0.359449 0.104351,-0.76926 -0.131976,-1.054703 -0.19047,-0.230058 -0.434102,-0.310442 -0.881396,-0.290822 -0.3669,0.01609 -0.547794,-0.002 -0.713169,-0.07146 -0.226307,-0.09501 -0.331703,-0.20981 -0.574965,-0.626295 -0.09233,-0.158063 -0.131974,-0.20742 -0.23845,-0.296757 -0.199143,-0.167136 -0.429971,-0.250944 -0.679707,-0.246855 -0.07003,0.0012 -0.142025,-0.01021 -0.159978,-0.02525 -0.01792,-0.01506 -0.06519,-0.116386 -0.10496,-0.225237 -0.114374,-0.313023 -0.183477,-0.430683 -0.321349,-0.547184 -0.09714,-0.08204 -0.136953,-0.1036 -0.221896,-0.11996 -0.137813,-0.02657 -0.249494,0.0071 -0.325657,0.09804 -0.05232,0.06248 -0.05816,0.08598 -0.04842,0.195249 0.01505,0.169997 0.07014,0.244657 0.312203,0.423166 0.105383,0.07771 0.208586,0.155393 0.229347,0.172625 0.05932,0.04925 0.054,0.128185 -0.01581,0.234303 -0.0906,0.137713 -0.158964,0.149171 -0.30462,0.05103 -0.200404,-0.135015 -0.368856,-0.140343 -0.473812,-0.01499 -0.06183,0.07387 -0.06862,0.138133 -0.02173,0.206033 0.04942,0.07156 0.15066,0.129572 0.278734,0.159756 0.124685,0.02943 0.204808,0.09724 0.209039,0.177093 0.007,0.130971 -0.09721,0.185432 -0.263137,0.137625 -0.117652,-0.03389 -0.24238,-0.01495 -0.292339,0.04446 -0.04574,0.05438 -0.05245,0.13819 -0.0158,0.197294 0.04458,0.07186 0.100745,0.101985 0.282011,0.151167 0.166187,0.04508 0.184903,0.05969 0.192951,0.150534 0.0084,0.09509 -0.03823,0.145279 -0.166905,0.179472 -0.05856,0.01557 -0.133976,0.05342 -0.167572,0.08413 -0.05079,0.04641 -0.06105,0.0704 -0.06088,0.142262 1.75e-4,0.069 0.01221,0.09649 0.05972,0.136263 0.07217,0.06042 0.136986,0.05557 0.258758,-0.01939 0.142955,-0.08799 0.283019,-0.02286 0.265804,0.123597 -0.0065,0.05558 -0.01941,0.07222 -0.120218,0.154931 -0.134134,0.110094 -0.166694,0.182358 -0.10531,0.233745 0.05461,0.04572 0.148669,0.04212 0.281978,-0.01071 0.139553,-0.05533 0.146415,-0.05534 0.391941,-6.15e-4 0.298834,0.06661 0.544299,0.156278 1.090849,0.398516 0.542626,0.2405 0.636769,0.276054 0.887954,0.335346 0.511713,0.120791 0.970803,0.05768 1.28871,-0.177138 0.130827,-0.09664 0.324348,-0.33044 0.380116,-0.459235 z"
       id="path1485-1"
       sodipodi:nodetypes="sssssssccssscscsssscsssssssssssscssscsssscssssccssssssscssssssssssss" />
    <path
       d="m 24.116718,60.291365 c -0.587142,0.15719 -1.144427,-0.04435 -1.464922,-0.529743 -0.07526,-0.114089 -0.144393,-0.320016 -0.163125,-0.486229 -0.0075,-0.06641 -2.51e-4,-0.238921 0.01607,-0.383368 0.04388,-0.388415 0.0393,-0.515383 -0.02401,-0.665628 -0.0617,-0.14643 -0.106399,-0.188851 -0.413568,-0.39269 -0.229337,-0.152189 -0.3696,-0.294325 -0.487408,-0.493958 -0.104349,-0.176797 -0.164981,-0.378278 -0.174786,-0.580724 l -0.0064,-0.132762 -0.173781,-0.0824 c -0.328138,-0.155588 -0.518227,-0.33257 -0.625621,-0.582527 -0.03635,-0.0846 -0.06386,-0.186225 -0.06728,-0.248451 -0.01261,-0.230175 0.103004,-0.460593 0.289444,-0.576853 0.197604,-0.123188 0.491285,-0.09593 0.704598,0.06545 0.04973,0.03766 0.09479,0.07032 0.100078,0.07265 0.0055,0.0023 0.02286,-0.03481 0.03895,-0.08248 0.01608,-0.04769 0.05196,-0.116283 0.07948,-0.152522 0.07291,-0.09573 0.252049,-0.196993 0.370685,-0.209515 0.101593,-0.01074 0.275446,0.04312 0.346051,0.107212 0.02991,0.02723 0.04879,0.03005 0.06677,0.01015 0.201597,-0.223389 0.559374,-0.200328 0.739738,0.04768 l 0.04948,0.06794 0.112979,-0.05821 c 0.26004,-0.134043 0.527569,-0.054 0.657783,0.196874 0.05485,0.105719 0.0637,0.113936 0.118032,0.109738 0.128547,-0.0099 0.298452,0.09168 0.361808,0.216276 0.06797,0.13377 0.05988,0.341392 -0.01954,0.500868 -0.04275,0.08584 -0.04306,0.110378 -0.0039,0.314882 0.05432,0.28369 0.10671,0.456163 0.313373,1.031747 0.188132,0.523962 0.270629,0.804306 0.305016,1.036467 0.0893,0.602949 -0.08594,1.161469 -0.485943,1.548751 -0.123653,0.119703 -0.416534,0.293087 -0.560023,0.331497 z m 0.317289,-0.531086 c 0.185942,-0.163308 0.280959,-0.311578 0.363137,-0.566771 0.08157,-0.253328 0.09484,-0.474334 0.04743,-0.789761 -0.04007,-0.26651 -0.09394,-0.451582 -0.254654,-0.874733 -0.244462,-0.643681 -0.368004,-1.076474 -0.386036,-1.352398 -0.0043,-0.06558 0.01649,-0.170411 0.05514,-0.278037 0.0456,-0.127071 0.05554,-0.18552 0.03752,-0.220983 -0.04968,-0.09759 -0.132378,-0.07133 -0.284426,0.09039 -0.08674,0.09227 -0.174868,0.108783 -0.247707,0.04644 -0.07277,-0.0623 -0.07124,-0.145465 0.0045,-0.23833 0.101419,-0.124356 0.09892,-0.216337 -0.0079,-0.293167 -0.121777,-0.08756 -0.258926,-0.0075 -0.325349,0.190016 -0.04408,0.13111 -0.112419,0.184028 -0.205044,0.158862 -0.06482,-0.0176 -0.104557,-0.08883 -0.130227,-0.233281 -0.02863,-0.161272 -0.08743,-0.261646 -0.168849,-0.288189 -0.152091,-0.04966 -0.267415,0.11205 -0.222779,0.312301 0.01329,0.0596 0.0165,0.131809 0.0072,0.160476 -0.02261,0.06941 -0.113052,0.113018 -0.185502,0.08938 -0.0498,-0.01629 -0.06399,-0.03438 -0.10043,-0.12859 -0.141637,-0.365968 -0.137798,-0.358738 -0.20738,-0.390892 -0.08449,-0.03906 -0.208203,0.01633 -0.253165,0.113336 -0.05145,0.11084 -0.04,0.195164 0.04888,0.361941 0.0956,0.179356 0.091,0.221918 -0.03355,0.310659 -0.100025,0.07129 -0.190343,0.08127 -0.249513,0.02762 -0.02397,-0.0218 -0.08941,-0.121212 -0.145343,-0.220989 -0.08313,-0.148422 -0.119688,-0.195243 -0.200561,-0.257319 -0.122455,-0.09397 -0.156373,-0.109154 -0.262183,-0.117349 -0.16718,-0.01294 -0.280805,0.109098 -0.281793,0.302631 -4.45e-4,0.08619 0.01204,0.126564 0.07162,0.231643 0.09318,0.164394 0.232293,0.268148 0.534694,0.398705 0.249639,0.107812 0.280285,0.141733 0.263103,0.291286 -0.02073,0.180472 0.01202,0.336875 0.112579,0.537588 0.112517,0.224683 0.167473,0.280736 0.47559,0.485664 0.274506,0.182559 0.383838,0.297631 0.465087,0.489466 0.07864,0.185678 0.09105,0.333787 0.05683,0.678129 -0.03781,0.380578 -0.03617,0.476575 0.01097,0.635686 0.154202,0.520517 0.821377,0.771018 1.352399,0.507738 0.06709,-0.03326 0.177725,-0.109358 0.245781,-0.169176 z"
       style="fill:#8ecad8;fill-opacity:1;stroke-width:0.00546684"
       id="path1610-5" />
    <path
       d="m 25.887142,53.349848 c -0.183272,-0.09345 -0.194689,-0.132234 -0.203605,-0.691602 l -0.008,-0.500696 -0.590933,-0.0078 c -0.656842,-0.0087 -0.665136,-0.01077 -0.794824,-0.201323 -0.05676,-0.0834 -0.05814,-0.101986 -0.0581,-0.78569 2.6e-5,-0.615125 0.0055,-0.711204 0.04522,-0.790189 0.068,-0.135339 0.192894,-0.207221 0.360055,-0.207221 0.126365,0 0.149387,0.0094 0.248103,0.101441 l 0.10881,0.101441 0.008,0.492838 0.008,0.492838 h 0.334331 0.33433 l 5.3e-5,-0.445709 c 2.3e-5,-0.372769 0.0074,-0.460425 0.04522,-0.535628 0.068,-0.135339 0.192891,-0.207221 0.360055,-0.207221 0.126384,0 0.149373,0.0094 0.248103,0.101485 l 0.108809,0.101485 0.0067,1.377753 c 0.0065,1.339052 0.0053,1.380118 -0.04498,1.461963 -0.107434,0.174936 -0.330272,0.236254 -0.51544,0.141834 z m 1.906323,0.0047 c -0.358011,-0.11021 -0.651039,-0.407074 -0.758286,-0.768214 -0.03024,-0.101825 -0.03883,-0.280719 -0.03883,-0.808479 0,-0.76856 0.01667,-0.865939 0.193829,-1.132851 0.204017,-0.307368 0.53278,-0.47909 0.917215,-0.47909 0.384434,0 0.713197,0.171722 0.917218,0.47909 0.177165,0.266912 0.193825,0.364291 0.193825,1.132851 0,0.530694 -0.0085,0.706368 -0.03921,0.809768 -0.10867,0.365931 -0.402854,0.659771 -0.769583,0.768677 -0.162171,0.04816 -0.456758,0.04732 -0.616172,-0.0018 z m 0.494794,-0.809993 c 0.139041,-0.09582 0.154946,-0.173676 0.154991,-0.758683 5e-5,-0.581844 -0.01233,-0.649294 -0.140825,-0.767857 -0.05458,-0.05036 -0.09757,-0.06459 -0.195035,-0.06459 -0.14219,0 -0.239204,0.06856 -0.300469,0.212335 -0.05021,0.11784 -0.0504,1.110452 -2.32e-4,1.228975 0.0861,0.203432 0.304974,0.271526 0.481576,0.149825 z m 3.106809,0.800574 c -0.171757,-0.107852 -0.186886,-0.164952 -0.186994,-0.705766 l -9.5e-5,-0.484466 -0.561983,-5.82e-4 c -0.63518,-6.35e-4 -0.732758,-0.02233 -0.833271,-0.185257 -0.0504,-0.08169 -0.05242,-0.119002 -0.04575,-0.843133 l 0.007,-0.757657 0.108812,-0.101464 c 0.09872,-0.09206 0.121727,-0.101463 0.248103,-0.101463 0.167161,0 0.29206,0.07188 0.360055,0.207221 0.03778,0.0752 0.04518,0.162859 0.04522,0.535628 l 4e-5,0.445709 h 0.334333 0.33433 l 0.008,-0.492838 0.008,-0.492838 0.108812,-0.101441 c 0.09871,-0.09203 0.121738,-0.101441 0.2481,-0.101441 0.167164,0 0.29206,0.07188 0.360058,0.207221 0.04124,0.08209 0.04518,0.204625 0.04518,1.407668 0,1.449932 0.0024,1.426968 -0.160337,1.546241 -0.104185,0.07637 -0.32068,0.08581 -0.427641,0.01864 z"
       style="fill:#c78aa8;fill-opacity:1;stroke-width:0.00683636"
       id="path1118" />
  </g>
</svg>
