<?xml version="1.0" encoding="UTF-8" standalone="no"?>
<!-- Created with Inkscape (http://www.inkscape.org/) -->

<svg
   width="13.198389mm"
   height="12.083632mm"
   viewBox="0 0 13.198389 12.083632"
   version="1.1"
   id="svg827"
   inkscape:version="1.1.1 (3bf5ae0d25, 2021-09-20)"
   sodipodi:docname="baby_ok.svg"
   xmlns:inkscape="http://www.inkscape.org/namespaces/inkscape"
   xmlns:sodipodi="http://sodipodi.sourceforge.net/DTD/sodipodi-0.dtd"
   xmlns="http://www.w3.org/2000/svg"
   xmlns:svg="http://www.w3.org/2000/svg">
  <sodipodi:namedview
     id="namedview829"
     pagecolor="#ffffff"
     bordercolor="#666666"
     borderopacity="1.0"
     inkscape:pageshadow="2"
     inkscape:pageopacity="0.0"
     inkscape:pagecheckerboard="0"
     inkscape:document-units="mm"
     showgrid="false"
     fit-margin-top="0"
     fit-margin-left="0"
     fit-margin-right="0"
     fit-margin-bottom="0"
     inkscape:zoom="5.8725028"
     inkscape:cx="5.4491247"
     inkscape:cy="16.091946"
     inkscape:window-width="1920"
     inkscape:window-height="1009"
     inkscape:window-x="-8"
     inkscape:window-y="-8"
     inkscape:window-maximized="1"
     inkscape:current-layer="layer1" />
  <defs
     id="defs824" />
  <g
     inkscape:label="Слой 1"
     inkscape:groupmode="layer"
     id="layer1"
     transform="translate(-64.922832,-105.12394)">
    <path
       style="fill:#8ecad8;stroke-width:0.0258382;fill-opacity:1"
       d="m 70.94253,117.18957 c -2.055228,-0.23468 -3.816354,-1.59221 -4.53763,-3.49774 l -0.09685,-0.25586 -0.208726,-0.07 c -0.529395,-0.17762 -0.911318,-0.55376 -1.09843,-1.08177 -0.07221,-0.20377 -0.07883,-0.25008 -0.078,-0.54565 7.87e-4,-0.27975 0.01021,-0.35109 0.07039,-0.53306 0.08865,-0.26803 0.272755,-0.54988 0.48412,-0.74116 0.180234,-0.1631 0.545477,-0.36253 0.717038,-0.39152 0.06117,-0.0103 0.111327,-0.0355 0.121437,-0.0609 0.0095,-0.0238 0.04655,-0.12468 0.08239,-0.22416 0.160835,-0.44639 0.522963,-1.07702 0.853144,-1.48569 0.391843,-0.485 1.028552,-1.03393 1.499461,-1.29275 0.0604,-0.0332 0.109769,-0.0669 0.109715,-0.075 -5.1e-5,-0.008 -0.05528,-0.0369 -0.122731,-0.064 -0.314362,-0.12665 -0.64989,-0.40926 -0.846289,-0.71282 -0.176452,-0.27273 -0.267737,-0.53797 -0.309015,-0.89788 l -0.01556,-0.13565 h 0.383998 0.383997 l 0.03184,0.17279 c 0.04622,0.25085 0.144016,0.43709 0.324055,0.61713 0.175604,0.1756 0.362979,0.27607 0.594421,0.31871 0.158329,0.0292 0.428044,0.0385 0.428044,0.0148 0,-0.007 -0.03086,-0.0623 -0.06858,-0.12208 -0.150317,-0.23811 -0.246319,-0.52545 -0.280611,-0.83988 l -0.01761,-0.16149 h 0.384862 0.384863 l 0.02942,0.17178 c 0.04075,0.23791 0.159355,0.46567 0.323005,0.62028 0.289194,0.27322 0.510938,0.34365 1.084305,0.34438 2.247781,0.003 4.315242,1.43878 5.096276,3.53955 0.04877,0.13117 0.09234,0.24141 0.09683,0.24499 0.0045,0.004 0.06621,0.0207 0.137151,0.0381 0.50135,0.12281 0.993322,0.5958 1.16751,1.12245 0.06018,0.18197 0.0696,0.25331 0.07039,0.53306 8.32e-4,0.29557 -0.0058,0.34188 -0.078,0.54565 -0.187093,0.52796 -0.578777,0.9131 -1.102679,1.08426 l -0.204156,0.0667 -0.09701,0.25629 c -0.264879,0.69978 -0.648116,1.29765 -1.188807,1.85459 -0.825494,0.8503 -1.846359,1.38908 -3.024147,1.59606 -0.340619,0.0599 -1.148986,0.0857 -1.483839,0.0475 z m 1.177304,-0.78609 c 1.721992,-0.22924 3.149192,-1.34608 3.794711,-2.96951 0.03324,-0.0836 0.09794,-0.28125 0.143772,-0.43925 l 0.08334,-0.28727 0.235407,-0.0198 c 0.129475,-0.0109 0.29969,-0.0439 0.378256,-0.0732 0.20093,-0.0752 0.422336,-0.28619 0.518274,-0.49395 0.06592,-0.14274 0.07472,-0.19036 0.07297,-0.39486 -0.0015,-0.17689 -0.01473,-0.26037 -0.05524,-0.34881 -0.17323,-0.3782 -0.452034,-0.55961 -0.907864,-0.59071 l -0.241622,-0.0165 -0.089,-0.31006 c -0.315939,-1.10064 -1.008357,-2.04116 -1.961319,-2.66409 -0.227326,-0.14859 -0.679166,-0.38464 -0.698765,-0.36504 -0.0067,0.007 0.01062,0.0703 0.03858,0.14125 0.295064,0.74858 0.0884,1.64419 -0.509568,2.20828 -0.578774,0.54599 -1.384149,0.70594 -2.132746,0.42356 -0.500883,-0.18893 -0.944712,-0.62026 -1.154511,-1.12199 -0.08005,-0.19144 -0.153694,-0.51488 -0.153694,-0.67502 v -0.10444 h 0.387574 0.387573 v 0.085 c 0,0.0468 0.01782,0.15344 0.03961,0.23707 0.141301,0.5425 0.662945,0.944 1.226465,0.944 0.563519,0 1.085163,-0.4015 1.226464,-0.944 0.07814,-0.3 0.03632,-0.65392 -0.109577,-0.92734 -0.0923,-0.17296 -0.349547,-0.431 -0.51152,-0.51308 -0.264444,-0.134 -0.399224,-0.15646 -0.837676,-0.1396 -1.129389,0.0434 -2.196004,0.50302 -3.029998,1.30558 -0.621797,0.59836 -1.029444,1.27752 -1.270378,2.11654 l -0.08712,0.30338 -0.241621,0.0166 c -0.391304,0.0269 -0.643513,0.16102 -0.821911,0.43703 -0.252341,0.39042 -0.188371,0.87892 0.156966,1.19864 0.185615,0.17185 0.356125,0.23929 0.671964,0.26578 l 0.236033,0.0198 0.07297,0.26113 c 0.513573,1.83777 2.041425,3.17416 3.925284,3.43339 0.330588,0.0455 0.882399,0.0462 1.21792,0.002 z m -0.843988,-1.48794 c -0.396998,-0.0519 -0.766243,-0.20269 -1.080977,-0.44139 -0.172934,-0.13115 -0.423266,-0.4055 -0.495916,-0.54349 l -0.03617,-0.0687 0.32787,-0.1925 0.327871,-0.1925 0.06767,0.0933 c 0.112341,0.15481 0.352347,0.35722 0.522854,0.44095 0.166924,0.082 0.456274,0.15526 0.612985,0.15526 0.149989,0 0.437965,-0.0711 0.604935,-0.14944 0.165104,-0.0774 0.416241,-0.28876 0.530903,-0.44677 l 0.06767,-0.0933 0.327871,0.1925 0.32787,0.1925 -0.03617,0.0687 c -0.07288,0.13843 -0.323187,0.41248 -0.495916,0.54296 -0.333344,0.25181 -0.675639,0.39004 -1.093941,0.44176 -0.240176,0.0297 -0.253439,0.0297 -0.479407,1.6e-4 z m -3.241974,-3.13839 c 0,-0.14812 0.08379,-0.4021 0.185114,-0.56114 0.10673,-0.16752 0.352932,-0.38953 0.519202,-0.46819 0.213859,-0.10117 0.356339,-0.12734 0.632899,-0.11623 0.226407,0.009 0.273173,0.02 0.453543,0.10564 0.348039,0.16529 0.592058,0.4506 0.700166,0.81865 0.02267,0.0772 0.04122,0.18474 0.04122,0.23901 v 0.0987 H 70.178443 69.79087 v -0.0656 c 0,-0.17329 -0.17702,-0.36961 -0.382609,-0.42431 -0.246062,-0.0655 -0.522383,0.10079 -0.586307,0.35279 l -0.03151,0.12423 -0.378285,0.007 -0.378285,0.007 z m 4.444174,0.0177 c 0,-0.0543 0.01855,-0.16182 0.04122,-0.23901 0.108108,-0.36805 0.352127,-0.65336 0.700166,-0.81865 0.18037,-0.0857 0.227136,-0.0966 0.453543,-0.10564 0.27656,-0.0111 0.41904,0.0151 0.632899,0.11623 0.16627,0.0787 0.412472,0.30067 0.519202,0.46819 0.101328,0.15904 0.185114,0.41302 0.185114,0.56114 v 0.11778 l -0.378285,-0.007 -0.378285,-0.007 -0.03151,-0.12423 c -0.06392,-0.252 -0.340245,-0.41827 -0.586307,-0.35279 -0.205589,0.0547 -0.382609,0.25102 -0.382609,0.42431 v 0.0656 h -0.387575 -0.387573 z"
       id="path900" />
  </g>
</svg>
