<?xml version="1.0" encoding="UTF-8" standalone="no"?>
<!-- Created with Inkscape (http://www.inkscape.org/) -->

<svg
   width="39.999954"
   height="39.997467"
   viewBox="0 0 10.58332 10.582663"
   version="1.1"
   id="svg5"
   inkscape:version="1.1.1 (3bf5ae0d25, 2021-09-20)"
   sodipodi:docname="instagram.svg"
   xmlns:inkscape="http://www.inkscape.org/namespaces/inkscape"
   xmlns:sodipodi="http://sodipodi.sourceforge.net/DTD/sodipodi-0.dtd"
   xmlns="http://www.w3.org/2000/svg"
   xmlns:svg="http://www.w3.org/2000/svg">
  <sodipodi:namedview
     id="namedview7"
     pagecolor="#ffffff"
     bordercolor="#666666"
     borderopacity="1.0"
     inkscape:pageshadow="2"
     inkscape:pageopacity="0.0"
     inkscape:pagecheckerboard="0"
     inkscape:document-units="mm"
     showgrid="false"
     units="px"
     width="793.70081px"
     fit-margin-top="0"
     fit-margin-left="0"
     fit-margin-right="0"
     fit-margin-bottom="0"
     inkscape:zoom="1.4681257"
     inkscape:cx="97.403104"
     inkscape:cy="-124.30816"
     inkscape:window-width="1920"
     inkscape:window-height="1009"
     inkscape:window-x="-8"
     inkscape:window-y="-8"
     inkscape:window-maximized="1"
     inkscape:current-layer="layer1"
     showguides="true" />
  <defs
     id="defs2" />
  <g
     inkscape:label="Слой 1"
     inkscape:groupmode="layer"
     id="layer1"
     transform="translate(-100.66109,-77.153283)">
    <path
       d="m 102.90974,87.63074 c -0.91454,-0.215351 -1.65156,-0.872076 -2.00854,-1.789735 -0.21568,-0.554407 -0.23241,-0.78584 -0.23952,-3.311031 -0.009,-3.237362 0.0756,-3.66096 0.89608,-4.482987 0.82361,-0.825132 1.16248,-0.893704 4.41643,-0.893704 2.42617,0 2.8386,0.02452 3.33797,0.198467 0.77196,0.268897 1.41403,0.907394 1.70484,1.695353 0.21095,0.571598 0.22741,0.819803 0.22741,3.429635 0,3.156555 -0.0789,3.596912 -0.77204,4.306637 -0.85517,0.875678 -1.27507,0.963474 -4.55141,0.951627 -1.43467,-0.0052 -2.78972,-0.05211 -3.01122,-0.104262 z m 6.38619,-1.101312 c 0.40445,-0.244701 0.6943,-0.617814 0.86544,-1.114056 0.13253,-0.384278 0.18166,-5.236305 0.0592,-5.848507 -0.10646,-0.532329 -0.70213,-1.137209 -1.28721,-1.30713 -0.7188,-0.208757 -5.33354,-0.210333 -5.94032,-0.002 -0.5588,0.191831 -0.88784,0.496581 -1.13876,1.054721 -0.18452,0.410395 -0.20469,0.716977 -0.2032,3.087605 0.002,2.752044 0.0492,3.105828 0.49223,3.660041 0.22661,0.283552 0.55132,0.487998 1.00322,0.631639 0.14981,0.04763 1.51808,0.07696 3.04059,0.06519 2.52693,-0.01952 2.79788,-0.03935 3.1088,-0.227474 z m -4.13279,-1.484718 c -1.25586,-0.448776 -1.90732,-1.364777 -1.90157,-2.673738 0.006,-1.387718 1.05385,-2.484843 2.46981,-2.586155 0.86839,-0.06213 1.51514,0.14785 2.10964,0.68495 0.9257,0.836305 1.11843,2.359414 0.43361,3.426614 -0.6889,1.073546 -1.98361,1.55138 -3.11149,1.148329 z m 1.60739,-1.050786 c 0.69923,-0.35729 0.90716,-0.705051 0.90716,-1.517186 0,-0.51957 -0.0516,-0.746142 -0.22273,-0.977031 -0.8072,-1.089425 -2.23796,-1.053914 -3.00484,0.07458 -0.21031,0.309476 -0.24448,0.470638 -0.20858,0.983738 0.05,0.715166 0.27949,1.084528 0.89091,1.434151 0.53071,0.303473 1.04652,0.304023 1.63808,0.0016 z m 1.65423,-3.954523 c -0.31115,-0.311141 -0.33054,-0.460301 -0.10221,-0.786281 0.30989,-0.44243 1.11189,-0.241106 1.11189,0.279115 0,0.641635 -0.58259,0.934268 -1.00968,0.507166 z"
       style="fill:#a63795;fill-opacity:1;stroke-width:0.0281699"
       id="path3799" />
  </g>
</svg>
