<?xml version="1.0" encoding="UTF-8" standalone="no"?>
<!-- Created with Inkscape (http://www.inkscape.org/) -->

<svg
   width="40.389481"
   height="44.999886"
   viewBox="0 0 10.686383 11.90622"
   version="1.1"
   id="svg5"
   inkscape:version="1.1.1 (3bf5ae0d25, 2021-09-20)"
   sodipodi:docname="viber.svg"
   xmlns:inkscape="http://www.inkscape.org/namespaces/inkscape"
   xmlns:sodipodi="http://sodipodi.sourceforge.net/DTD/sodipodi-0.dtd"
   xmlns="http://www.w3.org/2000/svg"
   xmlns:svg="http://www.w3.org/2000/svg">
  <sodipodi:namedview
     id="namedview7"
     pagecolor="#ffffff"
     bordercolor="#666666"
     borderopacity="1.0"
     inkscape:pageshadow="2"
     inkscape:pageopacity="0.0"
     inkscape:pagecheckerboard="0"
     inkscape:document-units="mm"
     showgrid="false"
     units="px"
     width="793.70081px"
     fit-margin-top="0"
     fit-margin-left="0"
     fit-margin-right="0"
     fit-margin-bottom="0"
     inkscape:zoom="8.3049731"
     inkscape:cx="1.083688"
     inkscape:cy="16.556345"
     inkscape:window-width="1920"
     inkscape:window-height="1009"
     inkscape:window-x="-8"
     inkscape:window-y="-8"
     inkscape:window-maximized="1"
     inkscape:current-layer="layer1"
     showguides="true" />
  <defs
     id="defs2" />
  <g
     inkscape:label="Слой 1"
     inkscape:groupmode="layer"
     id="layer1"
     transform="translate(-102.06061,-76.485292)">
    <path
       style="fill:#000000;stroke-width:0.264583"
       id="path852"
       d="" />
    <path
       style="fill:#7b519c;fill-opacity:1;stroke-width:0.00855902"
       d="m 104.5464,88.351352 c -0.0478,-0.111465 -0.0454,-0.03486 -0.0386,-1.281312 0.006,-1.044875 0.005,-1.145856 -0.007,-1.145856 -0.007,0 -0.0789,-0.02119 -0.15843,-0.04709 -0.39259,-0.127664 -0.72557,-0.303824 -1.03139,-0.545632 -0.11777,-0.09314 -0.35268,-0.330954 -0.44594,-0.451482 -0.47279,-0.610993 -0.71543,-1.365456 -0.79413,-2.469281 -0.0139,-0.195318 -0.0137,-1.19297 3.7e-4,-1.565618 0.0394,-1.043353 0.18757,-1.760529 0.49354,-2.388652 0.19929,-0.409108 0.45354,-0.738053 0.75684,-0.979179 0.82408,-0.655143 2.32221,-1.021092 4.05342,-0.990141 0.86573,0.01547 1.42083,0.05839 1.95537,0.151165 0.69274,0.120234 1.23405,0.293171 1.78139,0.569137 0.24383,0.122939 0.38664,0.221928 0.55454,0.384402 0.42041,0.406822 0.71471,1.00165 0.89914,1.817324 0.17422,0.770475 0.22339,1.71364 0.1458,2.796147 -0.0476,0.663488 -0.0965,1.017965 -0.19359,1.402284 -0.1285,0.50867 -0.32688,0.922517 -0.61607,1.285251 -0.0923,0.115746 -0.30461,0.3292 -0.41397,0.416188 -0.29336,0.233315 -0.61812,0.399188 -1.02003,0.52099 -0.15276,0.04631 -0.72411,0.189418 -0.88435,0.221544 -0.8376,0.167891 -1.74409,0.242639 -2.59767,0.214203 -0.18595,-0.0062 -0.35786,-0.01144 -0.38202,-0.01166 l -0.044,-3.85e-4 -0.3749,0.445069 c -0.60624,0.719729 -0.86128,1.015529 -1.17708,1.365165 -0.24196,0.267896 -0.29367,0.309902 -0.39643,0.321979 l -0.0475,0.0056 -0.0172,-0.04015 z m 5.00674,-3.402737 c 0.091,-0.02514 0.25623,-0.109867 0.34661,-0.177722 0.19028,-0.142857 0.45888,-0.454461 0.5735,-0.665268 0.12522,-0.230347 0.11637,-0.438485 -0.0256,-0.600729 -0.0433,-0.04942 -0.36934,-0.317612 -0.56265,-0.462733 -0.15685,-0.117751 -0.40744,-0.285129 -0.55414,-0.37015 -0.22847,-0.132408 -0.28843,-0.153978 -0.4286,-0.154196 -0.0984,-1.63e-4 -0.16092,0.01458 -0.25308,0.05969 -0.0822,0.0403 -0.13952,0.09693 -0.26094,0.258416 -0.1089,0.144844 -0.19324,0.227855 -0.26878,0.264603 -0.0578,0.02812 -0.0635,0.02913 -0.15835,0.02866 -0.11498,-5.5e-4 -0.20671,-0.02215 -0.36803,-0.08667 -0.43137,-0.172509 -0.71115,-0.35457 -1.02335,-0.665937 -0.21283,-0.212246 -0.36338,-0.40423 -0.51693,-0.659169 -0.15759,-0.26165 -0.33139,-0.665773 -0.34049,-0.791709 -0.005,-0.06542 0.0128,-0.14225 0.0489,-0.213291 0.031,-0.06151 0.11579,-0.142665 0.27175,-0.260599 0.067,-0.05062 0.14326,-0.115851 0.16959,-0.144952 0.0928,-0.102533 0.13809,-0.234948 0.12939,-0.378285 -0.009,-0.141756 -0.0343,-0.208029 -0.1648,-0.425112 -0.19531,-0.324864 -0.45865,-0.681805 -0.74688,-1.012384 -0.11735,-0.134598 -0.20723,-0.185339 -0.35096,-0.198112 -0.1746,-0.01552 -0.41948,0.11373 -0.72591,0.383123 -0.27561,0.242303 -0.4299,0.483163 -0.46551,0.72663 -0.0126,0.08566 -7.5e-4,0.202842 0.0317,0.315279 0.064,0.221949 0.28626,0.71896 0.52092,1.164969 0.44599,0.847614 0.91265,1.505193 1.4551,2.050375 0.59779,0.600815 1.29764,1.087322 2.26385,1.573761 0.58759,0.295819 0.91636,0.429706 1.13408,0.461834 0.0564,0.0083 0.20705,-0.0032 0.26961,-0.02033 z m 1.10662,-3.253146 c 0.0467,-0.01295 0.10474,-0.07185 0.11731,-0.118987 0.0113,-0.04026 0.007,-0.221952 -0.009,-0.423958 -0.0641,-0.811294 -0.34826,-1.537654 -0.80869,-2.067004 -0.0793,-0.09119 -0.26764,-0.277658 -0.36004,-0.356483 -0.26687,-0.227644 -0.6095,-0.433235 -0.93628,-0.561802 -0.37936,-0.149254 -0.73235,-0.222977 -1.17259,-0.244889 -0.1615,-0.0081 -0.22757,-0.0034 -0.27093,0.01902 -0.1008,0.05212 -0.10744,0.221484 -0.0113,0.285165 0.0354,0.02338 0.0357,0.02343 0.38518,0.04995 0.21412,0.01625 0.30612,0.02966 0.47873,0.06973 0.47964,0.111375 0.8922,0.312446 1.26604,0.617 0.11585,0.09439 0.32824,0.306947 0.41724,0.417587 0.30145,0.37478 0.49597,0.800527 0.59829,1.309531 0.0479,0.238311 0.081,0.549632 0.081,0.762193 0,0.133332 0.0371,0.210764 0.11379,0.237947 0.0441,0.0156 0.069,0.01672 0.11126,0.0049 z m -0.84139,-0.36651 c 0.0215,-0.01286 0.0471,-0.03792 0.0582,-0.05691 0.0196,-0.03355 0.0197,-0.03638 0.0159,-0.247909 -0.004,-0.215529 -0.0123,-0.295081 -0.0485,-0.460724 -0.13209,-0.605177 -0.50539,-1.123704 -1.02991,-1.430573 -0.28566,-0.167125 -0.58841,-0.267244 -0.98559,-0.325928 -0.17951,-0.02652 -0.25667,-0.02558 -0.30892,0.0038 -0.0856,0.0481 -0.11282,0.162719 -0.0576,0.242625 0.0358,0.05184 0.0893,0.0719 0.2339,0.08774 0.32424,0.03552 0.56273,0.09906 0.80025,0.213187 0.19744,0.09486 0.32885,0.186319 0.48625,0.338385 0.15939,0.154002 0.27392,0.312029 0.37408,0.516159 0.12914,0.263208 0.18249,0.492301 0.19563,0.840005 0.006,0.160225 0.009,0.184818 0.0253,0.216624 0.0465,0.09046 0.15028,0.117806 0.24104,0.06352 z m -0.90441,-0.266921 c 0.0426,-0.01187 0.0964,-0.06094 0.10923,-0.100012 0.0148,-0.04501 0.004,-0.242588 -0.0177,-0.352995 -0.038,-0.185391 -0.11282,-0.355109 -0.21834,-0.49517 -0.13671,-0.181479 -0.28467,-0.282985 -0.51792,-0.355313 -0.26065,-0.08082 -0.40235,-0.09201 -0.50459,-0.03986 -0.0324,0.01652 -0.063,0.06255 -0.073,0.109709 -0.0175,0.08313 0.0496,0.183917 0.12949,0.193987 0.22812,0.02878 0.39313,0.07118 0.49088,0.126118 0.15024,0.08444 0.25416,0.21282 0.31391,0.387777 0.0222,0.06483 0.0577,0.245942 0.067,0.342361 0.0101,0.104209 0.049,0.161232 0.12392,0.182522 0.0403,0.01144 0.0583,0.01161 0.0969,8.81e-4 z"
       id="path2355"
       inkscape:transform-center-x="12.927556"
       inkscape:transform-center-y="1.0553308" />
  </g>
</svg>
