<?xml version="1.0" encoding="UTF-8" standalone="no"?>
<!-- Created with Inkscape (http://www.inkscape.org/) -->

<svg
   width="50"
   height="50"
   viewBox="0 0 13.229166 13.229167"
   version="1.1"
   id="svg5"
   inkscape:version="1.1.1 (3bf5ae0d25, 2021-09-20)"
   sodipodi:docname="up.svg"
   xmlns:inkscape="http://www.inkscape.org/namespaces/inkscape"
   xmlns:sodipodi="http://sodipodi.sourceforge.net/DTD/sodipodi-0.dtd"
   xmlns="http://www.w3.org/2000/svg"
   xmlns:svg="http://www.w3.org/2000/svg">
  <sodipodi:namedview
     id="namedview7"
     pagecolor="#ffffff"
     bordercolor="#666666"
     borderopacity="1.0"
     inkscape:pageshadow="2"
     inkscape:pageopacity="0.0"
     inkscape:pagecheckerboard="0"
     inkscape:document-units="mm"
     showgrid="false"
     units="px"
     width="50px"
     inkscape:zoom="5.8725028"
     inkscape:cx="15.495948"
     inkscape:cy="46.572988"
     inkscape:window-width="1920"
     inkscape:window-height="1009"
     inkscape:window-x="-8"
     inkscape:window-y="-8"
     inkscape:window-maximized="1"
     inkscape:current-layer="layer1" />
  <defs
     id="defs2" />
  <g
     inkscape:label="Слой 1"
     inkscape:groupmode="layer"
     id="layer1">
    <path
       style="fill:#fabc26;fill-opacity:1;stroke-width:0.0064603"
       d="m 6.9010372,13.211452 c -0.0199,-0.0216 -3.8917801,-5.5528401 -3.9830001,-5.6899201 -0.5519,-0.82933 -0.83854,-1.85076 -0.7975,-2.84185 0.0383,-0.92421 0.31175,-1.77203 0.81503,-2.52666 0.17062,-0.25584 0.3416901,-0.4656 0.5683101,-0.69683 0.31094,-0.31728 0.6411,-0.57428997 1.02962,-0.80147997 0.93386,-0.54609 2.07503,-0.76644 3.1114798,-0.60078 0.5928303,0.0948 1.1513203,0.31218 1.6570603,0.64512 0.7902997,0.52024997 1.3837907,1.28856997 1.6870507,2.18397997 0.10672,0.3151 0.17065,0.61539 0.20702,0.97228 0.0164,0.1614 0.0165,0.6131 7e-5,0.77524 -0.0592,0.58469 -0.21475,1.10331 -0.48152,1.60538 -0.11713,0.22044 -0.335921,0.55345 -0.389571,0.59296 -0.028,0.0207 -0.0649,0.0238 -0.12402,0.0109 -0.0887,-0.0196 -1.6522297,-0.37324 -1.7987297,-0.40688 -0.0756,-0.0173 -0.14055,-0.0335 -0.1444,-0.0359 -0.004,-0.002 -0.011,-0.0139 -0.0159,-0.0256 -0.0154,-0.0369 -0.003,-0.0562 0.0643,-0.10137 0.30396,-0.20372 0.55946,-0.47015 0.74203,-0.77377 0.17653,-0.29357 0.2845,-0.6077 0.33197,-0.96582 0.0135,-0.10136 0.0187,-0.36156 0.01,-0.4716 -0.0496,-0.59777 -0.30494,-1.14248 -0.72823,-1.55377 -0.39344,-0.38229 -0.87618,-0.60995 -1.4333701,-0.67594 -0.12696,-0.0151 -0.39343,-0.015 -0.52328,5e-5 -1.01305,0.11752 -1.84243,0.83856 -2.08909,1.8162 -0.0849,0.33639 -0.0977,0.70098 -0.0363,1.03328 0.14574,0.78914 0.67298,1.46032 1.40039,1.78272 0.10884,0.0482 0.24585,0.0969 0.35383,0.12574 0.0407,0.0109 0.3182,0.075 0.61666,0.14257 0.29846,0.0676 1.2825301,0.29016 2.1868101,0.4947 0.9042797,0.20453 1.6591607,0.37615 1.6775107,0.38138 0.0544,0.0155 0.0843,0.0654 0.0678,0.11282 -0.005,0.0164 -3.8202408,5.4651601 -3.8499608,5.4993501 -0.008,0.009 -0.0204,0.0113 -0.0625,0.0113 -0.0492,0 -0.0538,-0.001 -0.069,-0.0177 z"
       id="path2882" />
    <path
       style="fill:#000000;stroke-width:0.264583"
       id="path2682"
       d="" />
  </g>
</svg>
