<?xml version="1.0" encoding="UTF-8" standalone="no"?>
<!-- Created with Inkscape (http://www.inkscape.org/) -->

<svg
   width="50"
   height="46.326279"
   viewBox="0 0 13.229166 12.257162"
   version="1.1"
   id="svg5"
   inkscape:version="1.1.1 (3bf5ae0d25, 2021-09-20)"
   sodipodi:docname="add_to_cart.svg"
   xmlns:inkscape="http://www.inkscape.org/namespaces/inkscape"
   xmlns:sodipodi="http://sodipodi.sourceforge.net/DTD/sodipodi-0.dtd"
   xmlns="http://www.w3.org/2000/svg"
   xmlns:svg="http://www.w3.org/2000/svg">
  <sodipodi:namedview
     id="namedview7"
     pagecolor="#ffffff"
     bordercolor="#ffd5e6"
     borderopacity="1.0"
     inkscape:pageshadow="2"
     inkscape:pageopacity="0.0"
     inkscape:pagecheckerboard="0"
     inkscape:document-units="mm"
     showgrid="false"
     units="px"
     width="793.70081px"
     fit-margin-top="0"
     fit-margin-left="0"
     fit-margin-right="0"
     fit-margin-bottom="0"
     inkscape:zoom="0.73406285"
     inkscape:cx="378.71417"
     inkscape:cy="267.68825"
     inkscape:window-width="1920"
     inkscape:window-height="1009"
     inkscape:window-x="-8"
     inkscape:window-y="-8"
     inkscape:window-maximized="1"
     inkscape:current-layer="layer1" />
  <defs
     id="defs2" />
  <g
     inkscape:label="Слой 1"
     inkscape:groupmode="layer"
     id="layer1"
     transform="translate(-4.7595521,-77.909993)">
    <path
       style="fill:#73aadb;stroke-width:0.0325547"
       d="M 9.8892973,90.13712 C 9.5902354,90.05329 9.2977624,89.763849 9.2165145,89.47132 9.0920409,89.023165 9.3070385,88.529238 9.718383,88.318349 c 0.1839554,-0.09431 0.54449,-0.114856 0.759918,-0.0433 0.219549,0.07292 0.438079,0.271444 0.550251,0.499871 0.07637,0.155528 0.09103,0.226067 0.08937,0.430192 -0.0023,0.277317 -0.08733,0.484147 -0.27994,0.680609 -0.225142,0.22964 -0.636984,0.338779 -0.9486807,0.251401 z m 4.9494767,0.01098 c -0.435482,-0.108868 -0.744215,-0.488745 -0.750797,-0.92381 -0.0061,-0.403948 0.182661,-0.718666 0.53739,-0.895926 0.59391,-0.296781 1.288011,0.06171 1.391898,0.718899 0.08809,0.557223 -0.312362,1.06529 -0.879428,1.115773 -0.09706,0.0086 -0.231641,0.0019 -0.299063,-0.01494 z M 9.4693079,87.156758 C 9.3672069,87.123925 9.2189987,87.059162 9.1399557,87.012839 8.9574324,86.905873 8.6904733,86.614945 8.5962617,86.42033 8.5562684,86.337716 8.0428192,84.635542 7.455261,82.63772 6.8677041,80.639898 6.3636676,78.981969 6.3351798,78.953433 c -0.042468,-0.04254 -0.1625942,-0.05482 -0.6670343,-0.06816 -0.5562934,-0.01472 -0.6240277,-0.02274 -0.7069896,-0.0837 -0.2972101,-0.218404 -0.2591078,-0.668018 0.070116,-0.827392 0.1398623,-0.06771 0.1812904,-0.07084 0.7742624,-0.0586 0.5542805,0.01144 0.6478903,0.02137 0.8121099,0.08613 0.2206243,0.087 0.4819198,0.312101 0.6038994,0.520244 0.048863,0.08338 0.198254,0.526372 0.3363138,0.997288 l 0.2483972,0.84727 4.9448504,0.01628 c 3.867586,0.01273 4.960314,0.02513 5.015833,0.05691 0.100568,0.05756 0.196564,0.202864 0.221217,0.334851 0.03169,0.169673 -1.281751,5.407854 -1.421938,5.670872 -0.141025,0.26459 -0.382461,0.492983 -0.672878,0.636528 l -0.244909,0.121052 -2.996742,0.0067 c -2.8275883,0.0063 -3.0072225,0.0034 -3.1823805,-0.05297 z M 12.85374,86.1777 c 0.05836,-0.03558 0.135212,-0.112435 0.170791,-0.170791 0.05994,-0.09831 0.0647,-0.165262 0.06481,-0.911829 l 1.22e-4,-0.805729 0.789452,-6.5e-5 c 0.686625,-3.2e-5 0.804208,-0.0075 0.902743,-0.05697 0.336624,-0.169125 0.351075,-0.656097 0.02536,-0.854686 -0.09831,-0.05994 -0.165262,-0.0647 -0.911829,-0.06481 l -0.805729,-1.07e-4 -1.23e-4,-0.805728 c -9.8e-5,-0.746567 -0.0049,-0.81352 -0.06481,-0.91183 -0.198589,-0.325711 -0.685561,-0.31126 -0.854686,0.02536 -0.04951,0.09854 -0.05693,0.216119 -0.05697,0.902744 l -4.3e-5,0.789451 -0.805727,1.23e-4 c -0.746567,9.8e-5 -0.81352,0.0049 -0.91183,0.06481 -0.325964,0.198743 -0.312495,0.672506 0.02421,0.851429 0.101423,0.0539 0.19708,0.06028 0.903393,0.06028 h 0.789958 v 0.78996 c 0,0.706312 0.0064,0.80197 0.06028,0.903392 0.130796,0.246137 0.447805,0.336956 0.680637,0.194997 z"
       id="path854" />
  </g>
</svg>
